{
.appVersion = "1125";
DisplayStrings = (
"NNONNOONN\012NNVNNOVO\012nnonnoonnn\012nnvnnoovoo\012/_part.stem_ascender hkh/_part.bowl amburgcefontpids",
bnionozut,
"hinges opjack juumuupi",
"/tcaron",
"abcdefogj/_part.bow nhijnklmnop/_part.bowl qrstnuvwxyz",
abcdefghijklmnopqrstuvwxpyz
);
classes = (
{
automatic = 1;
code = "A Aacute Abreve Acircumflex Adieresis Agrave Amacron Aogonek Aring Atilde AE B C Cacute Ccaron Ccedilla Ccircumflex D Eth Dcaron Dcroat E Eacute Ecaron Ecircumflex Edieresis Edotaccent Egrave Emacron Eogonek F G Gcircumflex Gcommaaccent H Hbar Hcircumflex I Iacute Icircumflex Idieresis Igrave Imacron Iogonek J Jcircumflex K Kcommaaccent L Lacute Lcaron Lcommaaccent Lslash M N Nacute Ncaron Ncommaaccent Eng Ntilde O Oacute Ocircumflex Odieresis Ograve Ohungarumlaut Omacron Oslash Otilde OE P Thorn Q R Racute Rcaron Rcommaaccent S Sacute Scaron Scedilla Scircumflex Germandbls T Tbar Tcaron Tcedilla U Uacute Ubreve Ucircumflex Udieresis Ugrave Uhungarumlaut Umacron Uogonek Uring V W Wacute Wcircumflex Wdieresis Wgrave X Y Yacute Ycircumflex Ydieresis Ygrave Z Z.ss01 Zacute Zcaron Zdotaccent";
name = Uppercase;
},
{
code = "b h k l kcommaaccent lacute lcaron lcommaaccent lslash thorn hcircumflex";
name = acender_left;
},
{
code = "abreve acircumflex adieresis amacron atilde ccaron eth iacute icircumflex idieresis igrave imacron iogonek jcircumflex racute rcaron scaron yacute ycircumflex ydieresis ygrave zcaron rcaron";
name = f_vs_diacritics;
}
);
customParameters = (
{
name = note;
value = "--- kerning italic numbers --- look at negative space and counters, bold in partic.---capitals need to thin in italic---2 & 5 too wide---";
}
);
date = "2015-10-09 09:15:36 +0000";
designer = "Mirco Monsees";
designerURL = "http://www.mircomonsees.com";
familyName = "Alenta Serif";
featurePrefixes = (
{
automatic = 1;
code = "languagesystem DFLT dflt;\012";
name = Languagesystems;
}
);
features = (
{
automatic = 1;

glyphs = (
{
color = 8;
glyphname = A;
lastChange = "2018-04-01 20:21:08 +0000";
layers = (
{
anchors = (
{
name = bottom;
position = "{300, 0}";
},
{
name = ogonek;
position = "{569, 10}";
},
{
name = top;
position = "{357, 680}";
}
);
layerId = "71FD7A9F-05F5-4D76-8D4F-547475A05E4C";
paths = (
{
closed = 1;
nodes = (
"196 1 LINE",
"204 46 LINE",
"134 58 LINE",
"201 220 OFFCURVE",
"279 390 OFFCURVE",
"345 539 CURVE SMOOTH",
"386 632 OFFCURVE",
"380 650 OFFCURVE",
"385 680 CURVE",
"319 617 LINE",
"251 451 OFFCURVE",
"102 139 OFFCURVE",
"63 59 CURVE",
"-17 46 LINE",
"-25 0 LINE"
);
},
{
closed = 1;
nodes = (
"461 279 LINE",
"206 281 LINE",
"196 237 LINE",
"461 236 LINE"
);
},
{
closed = 1;
nodes = (
"634 0 LINE",
"642 46 LINE",
"585 57 LINE",
"556 119 OFFCURVE",
"422 596 OFFCURVE",
"404 682 CURVE",
"259 680 LINE",
"249 635 LINE",
"354 617 LINE",
"358 594 OFFCURVE",
"480 119 OFFCURVE",
"491 87 CURVE SMOOTH",
"496 72 OFFCURVE",
"517 58 OFFCURVE",
"536 57 CURVE",
"427 47 LINE",
"419 0 LINE"
);
}
);
width = 662;
},
{
anchors = (
{
name = bottom;
position = "{310, 0}";
},
{
name = ogonek;
position = "{594, 10}";
},
{
name = top;
position = "{368, 680}";
}
);
background = {
paths = (
{
closed = 1;
nodes = (
"320 337 LINE",
"357 243 OFFCURVE",
"406 130 OFFCURVE",
"428 82 CURVE SMOOTH",
"433 71 OFFCURVE",
"445 59 OFFCURVE",
"468 49 CURVE",
"388 49 LINE",
"383 0 LINE",
"650 0 LINE",
"655 47 LINE",
"607 55 LINE",
"539 158 OFFCURVE",
"461 314 OFFCURVE",
"419 399 CURVE"
);
},
{
closed = 1;
nodes = (
"498 562 OFFCURVE",
"415 442 OFFCURVE",
"373 392 CURVE",
"408 316 LINE",
"476 409 OFFCURVE",
"602 586 OFFCURVE",
"631 615 CURVE SMOOTH",
"655 639 OFFCURVE",
"679 650 OFFCURVE",
"706 650 CURVE",
"711 700 LINE",
"477 700 LINE",
"472 653 LINE",
"526 645 LINE"
);
},
{
closed = 1;
nodes = (
"255 113 OFFCURVE",
"344 253 OFFCURVE",
"375 303 CURVE",
"326 368 LINE",
"266 275 OFFCURVE",
"155 112 OFFCURVE",
"124 85 CURVE SMOOTH",
"96 61 OFFCURVE",
"72 50 OFFCURVE",
"45 50 CURVE",
"40 0 LINE",
"263 0 LINE",
"268 47 LINE",
"221 55 LINE"
);
},
{
closed = 1;
nodes = (
"418 390 LINE",
"377 474 OFFCURVE",
"351 522 OFFCURVE",
"331 574 CURVE SMOOTH",
"317 610 OFFCURVE",
"303 651 OFFCURVE",
"362 651 CURVE",
"367 700 LINE",
"110 700 LINE",
"105 653 LINE",
"152 643 LINE",
"225 505 OFFCURVE",
"284 390 OFFCURVE",
"315 323 CURVE"
);
}
);
};
layerId = "977FCFA9-45AC-4A33-B2D7-4D17E6BBF8E0";
paths = (
{
closed = 1;
nodes = (
"253 1 LINE",
"263 66 LINE",
"191 78 LINE",
"245 240 OFFCURVE",
"318 390 OFFCURVE",
"383 539 CURVE SMOOTH",
"424 632 OFFCURVE",
"419 645 OFFCURVE",
"417 682 CURVE",
"341 681 LINE",
"270 511 OFFCURVE",
"112 158 OFFCURVE",
"64 78 CURVE",
"-5 65 LINE",
"-15 0 LINE"
);
},
{
closed = 1;
nodes = (
"490 292 LINE",
"209 294 LINE",
"173 220 LINE",
"488 219 LINE"
);
},
{
closed = 1;
nodes = (
"659 0 LINE",
"669 66 LINE",
"616 78 LINE",
"587 140 OFFCURVE",
"467 600 OFFCURVE",
"450 686 CURVE",
"236 681 LINE",
"221 615 LINE",
"344 585 LINE",
"376 419 OFFCURVE",
"455 116 OFFCURVE",
"459 107 CURVE SMOOTH",
"466 92 OFFCURVE",
"485 78 OFFCURVE",
"504 77 CURVE",
"394 66 LINE",
"384 0 LINE"
);
}
);
width = 715;
}
);
leftKerningGroup = A;
rightKerningGroup = A;
unicode = 0041;
},
{
color = 8;
glyphname = AE;
lastChange = "2017-09-10 18:25:38 +0000";
layers = (
{
background = {
paths = (
{
closed = 1;
nodes = (
"204 216 LINE",
"500 252 LINE",
"517 341 LINE",
"239 294 LINE"
);
},
{
closed = 1;
nodes = (
"550 280 LINE",
"692 297 LINE",
"699 249 LINE",
"757 252 LINE",
"765 295 OFFCURVE",
"778 392 OFFCURVE",
"763 392 CURVE SMOOTH",
"754 392 OFFCURVE",
"521 349 OFFCURVE",
"558 350 CURVE"
);
},
{
closed = 1;
nodes = (
"525 60 LINE",
"516 0 LINE",
"638 0 OFFCURVE",
"742 -1 OFFCURVE",
"864 -5 CURVE",
"900 168 LINE",
"850 176 LINE",
"812 106 LINE",
"768 92 OFFCURVE",
"674 88 OFFCURVE",
"598 90 CURVE"
);
},
{
closed = 1;
nodes = (
"360 636 LINE",
"280 460 OFFCURVE",
"167 198 OFFCURVE",
"128 126 CURVE SMOOTH",
"109 89 OFFCURVE",
"69 66 OFFCURVE",
"51 58 CURVE",
"55 0 LINE",
"250 1 LINE",
"264 56 LINE",
"207 68 LINE",
"254 195 OFFCURVE",
"447 600 OFFCURVE",
"476 640 CURVE"
);
},
{
closed = 1;
nodes = (
"441 440 OFFCURVE",
"459 105 OFFCURVE",
"462 97 CURVE",
"466 82 OFFCURVE",
"483 68 OFFCURVE",
"502 67 CURVE",
"403 57 LINE",
"395 0 LINE",
"649 0 LINE",
"667 54 LINE",
"612 66 LINE",
"597 115 OFFCURVE",
"572 433 OFFCURVE",
"561 604 CURVE",
"650 603 OFFCURVE",
"707 601 OFFCURVE",
"754 591 CURVE",
"781 529 LINE",
"838 539 LINE",
"828 704 LINE",
"798 703 OFFCURVE",
"641 698 OFFCURVE",
"531 698 CURVE SMOOTH",
"456 698 OFFCURVE",
"397 699 OFFCURVE",
"319 702 CURVE",
"306 638 LINE",
"434 603 LINE"
);
}
);
};
layerId = "71FD7A9F-05F5-4D76-8D4F-547475A05E4C";
paths = (
{
closed = 1;
nodes = (
"207 1 LINE",
"218 46 LINE",
"145 58 LINE",
"169.024 116.967 OFFCURVE",
"197.287 176.994 OFFCURVE",
"226.559 236.683 CURVE",
"413.554 278.311 LINE",
"412.511 163.474 OFFCURVE",
"410 134.201 OFFCURVE",
"410 93 CURVE SMOOTH",
"410 80 OFFCURVE",
"427 61 OFFCURVE",
"453 55 CURVE",
"342 46 LINE",
"338 0 LINE",
"586 0 LINE SMOOTH",
"646.166 -0.095 OFFCURVE",
"706.477 -1.179 OFFCURVE",
"769 -3 CURVE",
"805 152 LINE",
"764 159 LINE",
"722 70 LINE",
"689 60 OFFCURVE",
"616 53 OFFCURVE",
"521 55 CURVE",
"497.544 100.294 OFFCURVE",
"496.331 224.743 OFFCURVE",
"496.724 295.012 CURVE",
"695 321 LINE",
"698 390 LINE",
"684 395 LINE",
"646.399 384.472 OFFCURVE",
"536.408 355.28 OFFCURVE",
"496.93 344.853 CURVE",
"495.955 493.058 OFFCURVE",
"495.047 535.867 OFFCURVE",
"497 572 CURVE SMOOTH",
"497.541 598.485 OFFCURVE",
"501.879 614.453 OFFCURVE",
"515.543 623.85 CURVE",
"625.78 622.636 OFFCURVE",
"688.158 618.56 OFFCURVE",
"735 609 CURVE",
"743 527 LINE",
"789 537 LINE",
"805 689 LINE",
"699 683 OFFCURVE",
"606 680 OFFCURVE",
"490 680 CURVE SMOOTH",
"267 680 LINE",
"257 635 LINE",
"344.798 618.804 LINE",
"269.56 446.029 OFFCURVE",
"137.454 189.129 OFFCURVE",
"101 118 CURVE SMOOTH",
"68 55 OFFCURVE",
"46 47 OFFCURVE",
"-7 47 CURVE",
"-14 0 LINE"
);
},
{
closed = 1;
nodes = (
"275 334 OFFCURVE",
"363 515 OFFCURVE",
"410 619 CURVE",
"415 544 OFFCURVE",
"415 475 OFFCURVE",
"413.852 321.887 CURVE",
"360 310 OFFCURVE",
"305 298 OFFCURVE",
"251.081 286.244 CURVE"
);
}
);
width = 799;
},
{
background = {
paths = (
{
closed = 1;
nodes = (
"198 216 LINE",
"494 252 LINE",
"511 341 LINE",
"233 294 LINE"
);
},
{
closed = 1;
nodes = (
"544 280 LINE",
"686 297 LINE",
"693 249 LINE",
"751 252 LINE",
"759 295 OFFCURVE",
"772 392 OFFCURVE",
"757 392 CURVE SMOOTH",
"748 392 OFFCURVE",
"515 349 OFFCURVE",
"552 350 CURVE"
);
},
{
closed = 1;
nodes = (
"519 60 LINE",
"510 0 LINE",
"632 0 OFFCURVE",
"736 -1 OFFCURVE",
"858 -5 CURVE",
"894 168 LINE",
"844 176 LINE",
"806 106 LINE",
"762 92 OFFCURVE",
"668 88 OFFCURVE",
"592 90 CURVE"
);
},
{
closed = 1;
nodes = (
"354 636 LINE",
"274 460 OFFCURVE",
"161 198 OFFCURVE",
"122 126 CURVE SMOOTH",
"103 89 OFFCURVE",
"63 66 OFFCURVE",
"45 58 CURVE",
"49 0 LINE",
"244 1 LINE",
"258 56 LINE",
"201 68 LINE",
"248 195 OFFCURVE",
"441 600 OFFCURVE",
"470 640 CURVE"
);
},
{
closed = 1;
nodes = (
"435 440 OFFCURVE",
"453 105 OFFCURVE",
"456 97 CURVE",
"460 82 OFFCURVE",
"477 68 OFFCURVE",
"496 67 CURVE",
"397 57 LINE",
"389 0 LINE",
"643 0 LINE",
"661 54 LINE",
"606 66 LINE",
"591 115 OFFCURVE",
"566 433 OFFCURVE",
"555 604 CURVE",
"644 603 OFFCURVE",
"701 601 OFFCURVE",
"748 591 CURVE",
"775 529 LINE",
"832 539 LINE",
"822 704 LINE",
"792 703 OFFCURVE",
"635 698 OFFCURVE",
"525 698 CURVE SMOOTH",
"450 698 OFFCURVE",
"391 699 OFFCURVE",
"313 702 CURVE",
"300 638 LINE",
"428 603 LINE"
);
}
);
};
layerId = "977FCFA9-45AC-4A33-B2D7-4D17E6BBF8E0";
paths = (
{
closed = 1;
nodes = (
"250 1 LINE",
"263 66 LINE",
"191 78 LINE",
"209.388 124.545 OFFCURVE",
"228.932 170.099 OFFCURVE",
"249.015 214.924 CURVE",
"423.535 250.936 LINE",
"423.083 187.796 OFFCURVE",
"421.636 152.094 OFFCURVE",
"421 133 CURVE SMOOTH",
"421 97 OFFCURVE",
"437 84 OFFCURVE",
"464 78 CURVE",
"348 66 LINE",
"345 0 LINE",
"662.913 0 LINE SMOOTH",
"706.796 -0.245 OFFCURVE",
"730.714 -1.143 OFFCURVE",
"833 -4 CURVE",
"872 189 LINE",
"808 197 LINE",
"770 115 LINE",
"734.404 103.926 OFFCURVE",
"663.142 98.483 OFFCURVE",
"595.811 98.182 CURVE",
"576.745 143.702 OFFCURVE",
"573.409 206.118 OFFCURVE",
"572.53 270.932 CURVE",
"724 286 LINE",
"726 393 LINE",
"708 399 LINE",
"664.574 389.267 OFFCURVE",
"617.224 377.291 OFFCURVE",
"571.406 365.591 CURVE",
"570 431 OFFCURVE",
"569 481 OFFCURVE",
"570 519 CURVE SMOOTH",
"570 547 OFFCURVE",
"571 569 OFFCURVE",
"573.131 584.927 CURVE",
"653.216 583.316 OFFCURVE",
"713.736 580.122 OFFCURVE",
"752 574 CURVE",
"762 482 LINE",
"834 492 LINE",
"851 688 LINE",
"701 678 OFFCURVE",
"637 683 OFFCURVE",
"487 680 CURVE SMOOTH",
"254 681 LINE",
"233 615 LINE",
"320.738 594.697 LINE",
"243.702 423.206 OFFCURVE",
"128.872 194.121 OFFCURVE",
"88 126 CURVE SMOOTH",
"57 75 OFFCURVE",
"32 67 OFFCURVE",
"-3 66 CURVE",
"-15 0 LINE"
);
},
{
closed = 1;
nodes = (
"328 386 OFFCURVE",
"358 447 OFFCURVE",
"414.793 576.26 CURVE",
"420 546 OFFCURVE",
"420 527 OFFCURVE",
"423.585 324.394 CURVE",
"378 315 OFFCURVE",
"332 306 OFFCURVE",
"286.651 297.105 CURVE"
);
}
);
width = 857;
}
);
leftKerningGroup = A;
leftMetricsKey = A;
rightKerningGroup = E;
rightMetricsKey = "=E-30";
unicode = 00C6;
},
{
color = 8;
glyphname = B;
lastChange = "2018-04-01 20:21:10 +0000";
layers = (
{
components = (
{
name = _part.stem.cap;
piece = {
"BPR?" = 1;
};
transform = "{1, 0, 0, 1, -57, 0}";
}
);
layerId = "71FD7A9F-05F5-4D76-8D4F-547475A05E4C";
paths = (
{
closed = 1;
nodes = (
"181 628 LINE",
"431 690 OFFCURVE",
"471 438 OFFCURVE",
"310 376 CURVE",
"251 373 OFFCURVE",
"205 375 OFFCURVE",
"159 381 CURVE",
"152 320 LINE",
"215 325 LINE",
"457 344 OFFCURVE",
"471 119 OFFCURVE",
"330 50 CURVE",
"144 61 LINE",
"87 0 LINE",
"260 -3 LINE SMOOTH",
"422 -6 OFFCURVE",
"504 103 OFFCURVE",
"504 201 CURVE SMOOTH",
"504 278 OFFCURVE",
"453 348 OFFCURVE",
"350 352 CURVE",
"435 368 OFFCURVE",
"509 464 OFFCURVE",
"490 555 CURVE SMOOTH",
"465 676 OFFCURVE",
"347 689 OFFCURVE",
"182 685 CURVE SMOOTH",
"140 684 OFFCURVE",
"64 682 OFFCURVE",
"56 679 CURVE"
);
}
);
width = 509;
},
{
anchors = (
{
name = bottom;
position = "{217, 0}";
},
{
name = top;
position = "{361, 680}";
}
);
background = {
components = (
{
name = R;
transform = "{1, 0, 0, 1, -2, 0}";
}
);
};
components = (
{
name = _part.stem.cap;
piece = {
"BPR?" = 1;
};
transform = "{1, 0, 0.0002, 1, -168, 0}";
}
);
layerId = "977FCFA9-45AC-4A33-B2D7-4D17E6BBF8E0";
paths = (
{
closed = 1;
nodes = (
"234 596 LINE",
"410 640 OFFCURVE",
"429 455 OFFCURVE",
"343 394 CURVE",
"303 388 OFFCURVE",
"236 388 OFFCURVE",
"200 399 CURVE",
"169 304 LINE",
"255 311 LINE",
"450 315 OFFCURVE",
"445 119 OFFCURVE",
"334 77 CURVE",
"194 85 LINE",
"136 0 LINE",
"315 -3 LINE SMOOTH",
"442 -5 OFFCURVE",
"598 73 OFFCURVE",
"557 257 CURVE SMOOTH",
"543 319 OFFCURVE",
"485 355 OFFCURVE",
"425 363 CURVE",
"503 389 OFFCURVE",
"565 479 OFFCURVE",
"548 564 CURVE SMOOTH",
"524 685 OFFCURVE",
"392 688 OFFCURVE",
"227 685 CURVE SMOOTH",
"175 684 OFFCURVE",
"86 680 OFFCURVE",
"78 677 CURVE"
);
}
);
width = 632;
}
);
leftKerningGroup = I;
rightKerningGroup = B;
unicode = 0042;
},
{
color = 8;
glyphname = C;
lastChange = "2018-04-01 20:21:10 +0000";
layers = (
{
anchors = (
{
name = bottom;
position = "{289, 0}";
},
{
name = top;
position = "{337, 680}";
}
);
layerId = "71FD7A9F-05F5-4D76-8D4F-547475A05E4C";
paths = (
{
closed = 1;
nodes = (
"491 74 OFFCURVE",
"413 44 OFFCURVE",
"320 48 CURVE SMOOTH",
"230 52 OFFCURVE",
"133 87 OFFCURVE",
"102 273 CURVE SMOOTH",
"72 454 OFFCURVE",
"193 613 OFFCURVE",
"309 642 CURVE",
"399 642 OFFCURVE",
"481 622 OFFCURVE",
"503 599 CURVE",
"507 516 LINE",
"557 526 LINE",
"574 649 LINE",
"541 676 OFFCURVE",
"467 692 OFFCURVE",
"374 693 CURVE SMOOTH",
"115 695 OFFCURVE",
"-29 447 OFFCURVE",
"17 209 CURVE SMOOTH",
"48 49 OFFCURVE",
"165 -19 OFFCURVE",
"307 -13 CURVE SMOOTH",
"433 -8 OFFCURVE",
"519 40 OFFCURVE",
"541 58 CURVE",
"528 102 LINE"
);
},
{
closed = 1;
nodes = (
"541 58 LINE",
"552 181 LINE",
"504 177 LINE",
"471 63 LINE"
);
}
);
width = 560;
},
{
anchors = (
{
name = bottom;
position = "{289, 0}";
},
{
name = top;
position = "{397, 680}";
}
);
background = {
paths = (
{
closed = 1;
nodes = (
"182 724 OFFCURVE",
"29 495 OFFCURVE",
"63 235 CURVE SMOOTH",
"86 64 OFFCURVE",
"202 -5 OFFCURVE",
"316 -14 CURVE SMOOTH",
"445 -24 OFFCURVE",
"557 12 OFFCURVE",
"612 51 CURVE",
"612 129 OFFCURVE",
"618 227 OFFCURVE",
"625 249 CURVE SMOOTH",
"634 276 OFFCURVE",
"656 282 OFFCURVE",
"664 282 CURVE",
"668 343 LINE",
"583 340 OFFCURVE",
"539 341 OFFCURVE",
"459 344 CURVE",
"451 285 LINE",
"504 269 LINE",
"503 213 OFFCURVE",
"503 117 OFFCURVE",
"466 76 CURVE",
"329 62 OFFCURVE",
"248 113 OFFCURVE",
"221 270 CURVE SMOOTH",
"185 489 OFFCURVE",
"289 598 OFFCURVE",
"352 625 CURVE",
"449 619 OFFCURVE",
"511 584 OFFCURVE",
"538 547 CURVE",
"543 492 LINE",
"608 502 LINE",
"633 640 LINE",
"601 673 OFFCURVE",
"533 718 OFFCURVE",
"416 720 CURVE SMOOTH"
);
}
);
};
layerId = "977FCFA9-45AC-4A33-B2D7-4D17E6BBF8E0";
paths = (
{
closed = 1;
nodes = (
"522 106 OFFCURVE",
"433 79 OFFCURVE",
"371 86 CURVE SMOOTH",
"261 98 OFFCURVE",
"197 159 OFFCURVE",
"180 269 CURVE SMOOTH",
"151 452 OFFCURVE",
"267 578 OFFCURVE",
"342 604 CURVE",
"389 605 OFFCURVE",
"483 589 OFFCURVE",
"505 569 CURVE",
"518 484 LINE",
"591 494 LINE",
"612 656 LINE",
"577 680 OFFCURVE",
"499 699 OFFCURVE",
"382 696 CURVE SMOOTH",
"132 690 OFFCURVE",
"-21 431 OFFCURVE",
"25 202 CURVE SMOOTH",
"57 42 OFFCURVE",
"198 -20 OFFCURVE",
"340 -16 CURVE SMOOTH",
"468 -12 OFFCURVE",
"550 37 OFFCURVE",
"572 55 CURVE",
"559 126 LINE"
);
},
{
closed = 1;
nodes = (
"572 55 LINE",
"588 204 LINE",
"517 204 LINE",
"468 59 LINE"
);
}
);
width = 602;
}
);
leftKerningGroup = O;
rightKerningGroup = C;
unicode = 0043;
},
{
color = 8;
glyphname = D;
lastChange = "2018-04-01 20:21:10 +0000";
layers = (
{
anchors = (
{
name = bottom;
position = "{276, 0}";
},
{
name = center;
position = "{165, 340}";
},
{
name = top;
position = "{329, 680}";
}
);
components = (
{
name = _part.stem.cap;
transform = "{1, 0, 0, 1, -58, 0}";
}
);
layerId = "71FD7A9F-05F5-4D76-8D4F-547475A05E4C";
paths = (
{
closed = 1;
nodes = (
"-13 0 LINE",
"274 -4 LINE SMOOTH",
"498 -7 OFFCURVE",
"670 233 OFFCURVE",
"614 479 CURVE SMOOTH",
"577 646 OFFCURVE",
"442 685 OFFCURVE",
"276 689 CURVE SMOOTH",
"212 691 OFFCURVE",
"84 682 OFFCURVE",
"51 680 CURVE",
"202 638 LINE",
"372 644 OFFCURVE",
"492 594 OFFCURVE",
"526 447 CURVE SMOOTH",
"574 233 OFFCURVE",
"423 79 OFFCURVE",
"335 45 CURVE",
"150 55 LINE"
);
}
);
width = 612;
},
{
anchors = (
{
name = bottom;
position = "{314, 0}";
},
{
name = center;
position = "{205, 350}";
},
{
name = top;
position = "{357, 680}";
}
);
background = {
paths = (
{
closed = 1;
nodes = (
"531 683 OFFCURVE",
"444 727 OFFCURVE",
"310 709 CURVE",
"21 647 OFFCURVE",
"-38 244 OFFCURVE",
"96 81 CURVE SMOOTH",
"167 -7 OFFCURVE",
"276 -28 OFFCURVE",
"393 0 CURVE",
"648 77 OFFCURVE",
"719 439 OFFCURVE",
"582 616 CURVE SMOOTH"
);
},
{
closed = 1;
nodes = (
"307 74 OFFCURVE",
"254 99 OFFCURVE",
"219 176 CURVE SMOOTH",
"145 333 OFFCURVE",
"173 545 OFFCURVE",
"313 626 CURVE",
"372 626 OFFCURVE",
"422 608 OFFCURVE",
"462 519 CURVE SMOOTH",
"530 371 OFFCURVE",
"505 162 OFFCURVE",
"367 75 CURVE"
);
}
);
};
components = (
{
name = _part.stem.cap;
piece = {
"BPR?" = 1;
};
transform = "{1, 0, 0, 1, -167, 0}";
}
);
layerId = "977FCFA9-45AC-4A33-B2D7-4D17E6BBF8E0";
paths = (
{
closed = 1;
nodes = (
"26 0 LINE",
"324 -2 LINE SMOOTH",
"553 -4 OFFCURVE",
"714 225 OFFCURVE",
"667 480 CURVE SMOOTH",
"636 650 OFFCURVE",
"487 688 OFFCURVE",
"306 688 CURVE SMOOTH",
"224 688 OFFCURVE",
"111 682 OFFCURVE",
"77 680 CURVE",
"288 606 LINE",
"407 620 OFFCURVE",
"493 552 OFFCURVE",
"510 427 CURVE SMOOTH",
"535 245 OFFCURVE",
"450 112 OFFCURVE",
"363 75 CURVE",
"234 90 LINE"
);
}
);
width = 672;
}
);
leftKerningGroup = I;
rightKerningGroup = O;
unicode = 0044;
},
{
color = 8;
glyphname = E;
lastChange = "2018-04-01 20:21:10 +0000";
layers = (
{
anchors = (
{
name = bottom;
position = "{206, 0}";
},
{
name = ogonek;
position = "{427, 10}";
},
{
name = top;
position = "{277, 680}";
},
{
name = topleft;
position = "{21, 680}";
}
);
components = (
{
name = _part.stem.cap;
transform = "{1, 0, -0.0171, 1, -51, 0}";
}
);
layerId = "71FD7A9F-05F5-4D76-8D4F-547475A05E4C";
paths = (
{
closed = 1;
nodes = (
"133 1 LINE",
"233 1 OFFCURVE",
"343 0 OFFCURVE",
"447 -3 CURVE",
"483 152 LINE",
"442 159 LINE",
"400 70 LINE",
"355 56 OFFCURVE",
"216 51 OFFCURVE",
"139 55 CURVE"
);
},
{
closed = 1;
nodes = (
"285 623 OFFCURVE",
"378 619 OFFCURVE",
"427 609 CURVE",
"435 527 LINE",
"481 537 LINE",
"496 680 LINE",
"488 689 LINE",
"384 683 OFFCURVE",
"268 680 OFFCURVE",
"155 680 CURVE",
"165 624 LINE"
);
},
{
closed = 1;
nodes = (
"148 348 LINE",
"364 330 LINE",
"383 397 LINE",
"371 405 LINE",
"319 402 OFFCURVE",
"125 396 OFFCURVE",
"157 397 CURVE"
);
}
);
width = 492;
},
{
anchors = (
{
name = bottom;
position = "{258, 0}";
},
{
name = ogonek;
position = "{481, 10}";
},
{
name = top;
position = "{316, 680}";
},
{
name = topleft;
position = "{84, 700}";
}
);
background = {
paths = (
{
closed = 1;
nodes = (
"79 700 LINE",
"71 653 LINE",
"121 642 LINE",
"132 602 OFFCURVE",
"125 484 OFFCURVE",
"122 427 CURVE SMOOTH",
"113 249 OFFCURVE",
"88 101 OFFCURVE",
"91 88 CURVE SMOOTH",
"95 74 OFFCURVE",
"133 56 OFFCURVE",
"152 50 CURVE",
"32 51 LINE",
"29 0 LINE",
"527 -1 LINE",
"553 164 LINE",
"503 175 LINE",
"498 165 OFFCURVE",
"483 127 OFFCURVE",
"469 98 CURVE",
"430 85 OFFCURVE",
"331 80 OFFCURVE",
"257 81 CURVE",
"227 114 OFFCURVE",
"235 228 OFFCURVE",
"243 331 CURVE",
"365 325 LINE",
"376 279 LINE",
"416 282 LINE",
"421 325 OFFCURVE",
"428 410 OFFCURVE",
"413 410 CURVE SMOOTH",
"405 410 OFFCURVE",
"242 404 OFFCURVE",
"248 404 CURVE",
"249 455 OFFCURVE",
"265 570 OFFCURVE",
"276 614 CURVE",
"347 614 OFFCURVE",
"446 615 OFFCURVE",
"490 601 CURVE",
"497 585 OFFCURVE",
"509 561 OFFCURVE",
"524 524 CURVE",
"574 535 LINE",
"548 700 LINE"
);
}
);
};
components = (
{
name = _part.stem.cap;
transform = "{1, 0, 0, 1, -166, 0}";
}
);
guideLines = (
{
angle = 12;
position = "{495, 529}";
},
{
angle = -12;
position = "{476, 175}";
},
{
angle = 84;
position = "{490, 548}";
}
);
layerId = "977FCFA9-45AC-4A33-B2D7-4D17E6BBF8E0";
paths = (
{
closed = 1;
nodes = (
"172 0 LINE",
"398 0 OFFCURVE",
"337 1 OFFCURVE",
"517 -4 CURVE",
"556 189 LINE",
"491 197 LINE",
"453 115 LINE",
"409 101 OFFCURVE",
"307 96 OFFCURVE",
"228 99 CURVE"
);
},
{
closed = 1;
nodes = (
"328 585 OFFCURVE",
"417 582 OFFCURVE",
"466 574 CURVE",
"476 482 LINE",
"548 492 LINE",
"565 677 LINE",
"554 687 LINE",
"407 679 OFFCURVE",
"352 683 OFFCURVE",
"202 680 CURVE",
"208 586 LINE"
);
},
{
closed = 1;
nodes = (
"228 323 LINE",
"414 302 LINE",
"441 408 LINE",
"426 418 LINE",
"367 417 OFFCURVE",
"301 414 OFFCURVE",
"241 411 CURVE"
);
}
);
width = 571;
}
);
leftKerningGroup = I;
rightKerningGroup = E;
unicode = 0045;
},
{
color = 8;
glyphname = F;
lastChange = "2018-04-01 20:21:08 +0000";
layers = (
{
components = (
{
name = _part.stem.cap;
transform = "{1, 0, -0.0171, 1, -51, 0}";
}
);
layerId = "71FD7A9F-05F5-4D76-8D4F-547475A05E4C";
paths = (
{
closed = 1;
nodes = (
"283 623 OFFCURVE",
"377 618 OFFCURVE",
"426 610 CURVE",
"434 527 LINE",
"481 537 LINE",
"494 680 LINE",
"486 688 LINE",
"372 682 OFFCURVE",
"266 683 OFFCURVE",
"153 680 CURVE",
"163 624 LINE"
);
},
{
closed = 1;
nodes = (
"128 0 LINE",
"256 0 LINE",
"270 48 LINE",
"148 58 LINE",
"127 36 LINE"
);
},
{
closed = 1;
nodes = (
"143 338 LINE",
"360 320 LINE",
"379 387 LINE",
"368 395 LINE",
"316 392 OFFCURVE",
"120 386 OFFCURVE",
"151 387 CURVE"
);
}
);
width = 450;
},
{
background = {
components = (
{
name = E;
transform = "{1, 0, 0, 1, -9, 0}";
}
);
};
components = (
{
name = _part.stem.cap;
transform = "{1, 0, 0, 1, -166, 0}";
}
);
guideLines = (
{
position = "{492, 541}";
}
);
layerId = "977FCFA9-45AC-4A33-B2D7-4D17E6BBF8E0";
paths = (
{
closed = 1;
nodes = (
"330 595 OFFCURVE",
"417 592 OFFCURVE",
"466 584 CURVE",
"480 492 LINE",
"550 502 LINE",
"559 678 LINE",
"546 687 LINE",
"433 681 OFFCURVE",
"314 682 OFFCURVE",
"202 680 CURVE",
"210 596 LINE"
);
},
{
closed = 1;
nodes = (
"178 0 LINE",
"360 0 LINE",
"371 66 LINE",
"251 78 LINE",
"169 61 LINE"
);
},
{
closed = 1;
nodes = (
"235 313 LINE",
"421 292 LINE",
"448 398 LINE",
"433 408 LINE",
"374 407 OFFCURVE",
"308 404 OFFCURVE",
"248 401 CURVE"
);
}
);
width = 532;
}
);
leftKerningGroup = I;
rightKerningGroup = F;
unicode = 0046;
},
{
color = 8;
glyphname = G;
lastChange = "2018-04-01 20:21:10 +0000";
layers = (
{
layerId = "71FD7A9F-05F5-4D76-8D4F-547475A05E4C";
paths = (
{
closed = 1;
nodes = (
"136 686 OFFCURVE",
"-17 482 OFFCURVE",
"12 235 CURVE SMOOTH",
"32 71 OFFCURVE",
"139 -4 OFFCURVE",
"256 -12 CURVE SMOOTH",
"401 -22 OFFCURVE",
"477 12 OFFCURVE",
"535 51 CURVE",
"537 129 OFFCURVE",
"550 249 OFFCURVE",
"553 271 CURVE",
"587 288 LINE",
"593 331 LINE",
"506 330 OFFCURVE",
"468 330 OFFCURVE",
"383 331 CURVE",
"375 288 LINE",
"479 267 LINE",
"477 211 OFFCURVE",
"473 101 OFFCURVE",
"444 60 CURVE",
"282 18 OFFCURVE",
"131 47 OFFCURVE",
"101 271 CURVE SMOOTH",
"76 462 OFFCURVE",
"189 604 OFFCURVE",
"306 642 CURVE",
"401 644 OFFCURVE",
"490 613 OFFCURVE",
"519 586 CURVE",
"521 503 LINE",
"572 513 LINE",
"591 638 LINE",
"553 666 OFFCURVE",
"471 699 OFFCURVE",
"364 695 CURVE SMOOTH"
);
}
);
width = 583;
},
{
anchors = (
{
name = bottom;
position = "{286, 0}";
},
{
name = top;
position = "{366, 680}";
}
);
background = {
components = (
{
name = C;
transform = "{1, 0, 0, 1, -1, 0}";
}
);
};
layerId = "977FCFA9-45AC-4A33-B2D7-4D17E6BBF8E0";
paths = (
{
closed = 1;
nodes = (
"150 692 OFFCURVE",
"-12 463 OFFCURVE",
"21 223 CURVE SMOOTH",
"44 59 OFFCURVE",
"171 -5 OFFCURVE",
"288 -14 CURVE SMOOTH",
"421 -24 OFFCURVE",
"523 12 OFFCURVE",
"580 51 CURVE",
"585 129 OFFCURVE",
"594 236 OFFCURVE",
"597 258 CURVE",
"633 274 LINE",
"645 344 LINE",
"558 343 OFFCURVE",
"474 343 OFFCURVE",
"391 345 CURVE",
"380 277 LINE",
"463 257 LINE",
"461 201 OFFCURVE",
"453 123 OFFCURVE",
"434 82 CURVE",
"345 64 OFFCURVE",
"207 103 OFFCURVE",
"180 267 CURVE SMOOTH",
"150 450 OFFCURVE",
"271 577 OFFCURVE",
"336 604 CURVE",
"400 607 OFFCURVE",
"487 591 OFFCURVE",
"525 555 CURVE",
"536 474 LINE",
"611 483 LINE",
"636 656 LINE",
"593 677 OFFCURVE",
"507 701 OFFCURVE",
"393 698 CURVE SMOOTH"
);
}
);
width = 644;
}
);
leftKerningGroup = O;
rightKerningGroup = I;
unicode = 0047;
},
{
color = 8;
glyphname = H;
lastChange = "2018-04-01 20:21:10 +0000";
layers = (
{
anchors = (
{
name = bottom;
position = "{287, 0}";
},
{
name = center;
position = "{323, 340}";
},
{
name = top;
position = "{358, 680}";
},
{
name = topleft;
position = "{21, 680}";
}
);
components = (
{
name = _part.stem.cap;
transform = "{1, 0, -0.0171, 1, -51, 0}";
},
{
name = _part.stem.cap;
transform = "{1, 0, -0.0171, 1, 351, 0}";
}
);
layerId = "71FD7A9F-05F5-4D76-8D4F-547475A05E4C";
paths = (
{
closed = 1;
nodes = (
"127 322 LINE",
"514 324 LINE",
"509 372 LINE",
"136 372 LINE"
);
}
);
width = 651;
},
{
anchors = (
{
name = bottom;
position = "{326, 0}";
},
{
name = center;
position = "{369, 350}";
},
{
name = top;
position = "{408, 680}";
},
{
name = topleft;
position = "{72, 700}";
}
);
background = {
paths = (
{
closed = 1;
nodes = (
"549 671 OFFCURVE",
"478 732 OFFCURVE",
"312 696 CURVE SMOOTH",
"60 641 OFFCURVE",
"6 234 OFFCURVE",
"130 89 CURVE SMOOTH",
"201 6 OFFCURVE",
"283 -23 OFFCURVE",
"423 8 CURVE SMOOTH",
"656 60 OFFCURVE",
"724 458 OFFCURVE",
"595 615 CURVE SMOOTH"
);
},
{
closed = 1;
nodes = (
"327 77 OFFCURVE",
"278 104 OFFCURVE",
"244 179 CURVE SMOOTH",
"175 333 OFFCURVE",
"195 544 OFFCURVE",
"330 627 CURVE",
"387 627 OFFCURVE",
"446 609 OFFCURVE",
"484 522 CURVE SMOOTH",
"548 377 OFFCURVE",
"532 162 OFFCURVE",
"395 77 CURVE"
);
}
);
};
components = (
{
name = _part.stem.cap;
transform = "{1, 0, 0, 1, -166, 0}";
},
{
name = _part.stem.cap;
transform = "{1, 0, 0, 1, 235, 0}";
}
);
guideLines = (
{
position = "{1802, 733}";
}
);
layerId = "977FCFA9-45AC-4A33-B2D7-4D17E6BBF8E0";
paths = (
{
closed = 1;
nodes = (
"213 305 LINE",
"539 308 LINE",
"537 391 LINE",
"225 391 LINE"
);
}
);
width = 757;
}
);
leftKerningGroup = I;
rightKerningGroup = I;
unicode = 0048;
},
{
color = 8;
glyphname = Hbar;
lastChange = "2017-09-10 18:57:27 +0000";
layers = (
{
components = (
{
name = H;
transform = "{1, 0, 0, 1, 37, 0}";
}
);
layerId = "71FD7A9F-05F5-4D76-8D4F-547475A05E4C";
paths = (
{
closed = 1;
nodes = (
"772 513 LINE",
"763 523 LINE",
"554 523 OFFCURVE",
"325 519 OFFCURVE",
"81 520 CURVE",
"70 474 LINE",
"81 467 LINE",
"307 469 OFFCURVE",
"531 469 OFFCURVE",
"760 468 CURVE"
);
}
);
width = 761;
},
{
components = (
{
name = H;
transform = "{1, 0, 0, 1, 45, 0}";
}
);
layerId = "977FCFA9-45AC-4A33-B2D7-4D17E6BBF8E0";
paths = (
{
closed = 1;
nodes = (
"838 529 LINE",
"822 537 LINE",
"589 537 OFFCURVE",
"340 533 OFFCURVE",
"69 535 CURVE",
"50 462 LINE",
"71 456 LINE",
"322 458 OFFCURVE",
"567 458 OFFCURVE",
"822 457 CURVE"
);
}
);
width = 818;
}
);
leftMetricsKey = H;
rightMetricsKey = H;
unicode = 0126;
},
{
color = 8;
glyphname = I;
lastChange = "2018-04-01 20:21:10 +0000";
layers = (
{
anchors = (
{
name = bottom;
position = "{82, 0}";
},
{
name = ogonek;
position = "{204, 10}";
},
{
name = top;
position = "{150, 680}";
},
{
name = topleft;
position = "{21, 680}";
}
);
components = (
{
name = _part.stem.cap;
transform = "{1, 0, -0.0171, 1, -51, 0}";
}
);
guideLines = (
{
position = "{386, 746}";
},
{
position = "{373, 865}";
}
);
layerId = "71FD7A9F-05F5-4D76-8D4F-547475A05E4C";
width = 249;
},
{
anchors = (
{
name = bottom;
position = "{210, 0}";
},
{
name = ogonek;
position = "{302, 10}";
},
{
name = top;
position = "{207, 680}";
},
{
name = topleft;
position = "{146, 700}";
}
);
background = {
paths = (
{
closed = 1;
nodes = (
"525 175 LINE",
"522 172 OFFCURVE",
"512 96 OFFCURVE",
"453 74 CURVE SMOOTH",
"410 58 OFFCURVE",
"353 58 OFFCURVE",
"302 61 CURVE",
"284 150 OFFCURVE",
"295 278 OFFCURVE",
"312 433 CURVE SMOOTH",
"320 505 OFFCURVE",
"330 614 OFFCURVE",
"359 637 CURVE SMOOTH",
"376 650 OFFCURVE",
"393 649 OFFCURVE",
"400 650 CURVE",
"405 700 LINE",
"300 697 OFFCURVE",
"243 697 OFFCURVE",
"145 700 CURVE",
"141 650 LINE",
"152 650 OFFCURVE",
"170 646 OFFCURVE",
"181 634 CURVE SMOOTH",
"205 608 OFFCURVE",
"193 510 OFFCURVE",
"183 418 CURVE SMOOTH",
"170 299 OFFCURVE",
"139 102 OFFCURVE",
"141 88 CURVE SMOOTH",
"145 77 OFFCURVE",
"161 67 OFFCURVE",
"197 51 CURVE",
"78 53 LINE",
"72 0 LINE",
"234 4 OFFCURVE",
"294 4 OFFCURVE",
"549 0 CURVE",
"559 89 OFFCURVE",
"573 159 OFFCURVE",
"574 165 CURVE"
);
}
);
};
components = (
{
name = _part.stem.cap;
transform = "{1, 0, 0, 1, -166, 0}";
}
);
layerId = "977FCFA9-45AC-4A33-B2D7-4D17E6BBF8E0";
width = 356;
}
);
leftKerningGroup = I;
rightKerningGroup = I;
unicode = 0049;
},
{
color = 8;
glyphname = J;
lastChange = "2018-04-01 20:21:10 +0000";
layers = (
{
layerId = "71FD7A9F-05F5-4D76-8D4F-547475A05E4C";
paths = (
{
closed = 1;
nodes = (
"50 681 LINE",
"42 636 LINE",
"112 626 LINE",
"123 601 OFFCURVE",
"99 338 OFFCURVE",
"84 186 CURVE SMOOTH",
"60 -57 OFFCURVE",
"10 -106 OFFCURVE",
"-33 -151 CURVE",
"-9 -187 LINE",
"88 -120 OFFCURVE",
"143 0 OFFCURVE",
"168 275 CURVE SMOOTH",
"182 441 OFFCURVE",
"192 600 OFFCURVE",
"201 623 CURVE",
"270 635 LINE",
"278 680 LINE"
);
}
);
width = 232;
},
{
anchors = (
{
name = bottom;
position = "{71, 0}";
},
{
name = top;
position = "{209, 680}";
}
);
background = {
paths = (
{
closed = 1;
nodes = (
"85 681 LINE",
"75 624 LINE",
"129 615 LINE",
"140 590 OFFCURVE",
"131 489 OFFCURVE",
"126 429 CURVE",
"94 30 OFFCURVE",
"74 -37 OFFCURVE",
"39 -97 CURVE",
"-12 -78 LINE",
"-37 -134 LINE",
"33 -174 LINE",
"148 -146 OFFCURVE",
"212 -56 OFFCURVE",
"223 67 CURVE SMOOTH",
"253 384 OFFCURVE",
"269 569 OFFCURVE",
"283 591 CURVE SMOOTH",
"295 611 OFFCURVE",
"318 619 OFFCURVE",
"341 621 CURVE",
"347 680 LINE"
);
}
);
};
guideLines = (
{
position = "{1345, 737}";
}
);
layerId = "977FCFA9-45AC-4A33-B2D7-4D17E6BBF8E0";
paths = (
{
closed = 1;
nodes = (
"60 681 LINE",
"49 613 LINE",
"102 603 LINE",
"113 578 OFFCURVE",
"82 269 OFFCURVE",
"77 209 CURVE SMOOTH",
"56 -39 OFFCURVE",
"23 -115 OFFCURVE",
"-21 -163 CURVE",
"12 -206 LINE",
"133 -145 OFFCURVE",
"201 -31 OFFCURVE",
"229 275 CURVE SMOOTH",
"244 441 OFFCURVE",
"254 561 OFFCURVE",
"266 603 CURVE",
"324 613 LINE",
"335 680 LINE"
);
}
);
width = 299;
}
);
leftKerningGroup = I;
rightKerningGroup = I;
unicode = 004A;
},
{
color = 8;
glyphname = K;
lastChange = "2018-04-01 20:21:10 +0000";
layers = (
{
background = {
components = (
{
name = _part.stem.cap;
transform = "{1, 0, 0, 1, -58, 0}";
}
);
paths = (
{
closed = 1;
nodes = (
"187 327 LINE",
"262 209 OFFCURVE",
"296 147 OFFCURVE",
"402 -5 CURVE",
"440 -3 OFFCURVE",
"478 5 OFFCURVE",
"524 18 CURVE",
"534 62 LINE",
"473 62 LINE",
"416 129 OFFCURVE",
"364 203 OFFCURVE",
"246 383 CURVE"
);
},
{
closed = 1;
nodes = (
"390 563 OFFCURVE",
"339 508 OFFCURVE",
"190 352 CURVE",
"187 327 LINE",
"242 350 LINE",
"560 680 LINE",
"371 680 LINE",
"363 635 LINE",
"430 624 LINE"
);
},
{
closed = 1;
nodes = (
"481 618 LINE",
"574 635 LINE",
"582 680 LINE",
"504 680 LINE"
);
}
);
};
components = (
{
name = _part.stem.cap;
transform = "{1, 0, 0, 1, -58, 0}";
}
);
layerId = "71FD7A9F-05F5-4D76-8D4F-547475A05E4C";
paths = (
{
closed = 1;
nodes = (
"582 680 LINE",
"370 680 LINE",
"362 635 LINE",
"429 624 LINE",
"389 563 OFFCURVE",
"338 508 OFFCURVE",
"189 352 CURVE",
"186 327 LINE",
"261 209 OFFCURVE",
"295 147 OFFCURVE",
"401 -5 CURVE",
"439 -3 OFFCURVE",
"477 5 OFFCURVE",
"523 18 CURVE",
"533 62 LINE",
"472 62 LINE",
"417 127 OFFCURVE",
"366 198 OFFCURVE",
"256 366 CURVE",
"338 451 OFFCURVE",
"421 537 OFFCURVE",
"503 622 CURVE",
"574 635 LINE"
);
}
);
width = 552;
},
{
anchors = (
{
name = bottom;
position = "{323, 0}";
},
{
name = top;
position = "{401, 680}";
}
);
background = {
components = (
{
name = _part.stem.cap;
transform = "{1, 0, 0, 1, -166, 0}";
}
);
paths = (
{
closed = 1;
nodes = (
"448 545 OFFCURVE",
"362 460 OFFCURVE",
"279 372 CURVE",
"274 321 LINE",
"369 351 LINE",
"452 444 OFFCURVE",
"571 572 OFFCURVE",
"600 601 CURVE",
"680 615 LINE",
"692 680 LINE",
"435 680 LINE",
"423 615 LINE",
"485 603 LINE"
);
},
{
closed = 1;
nodes = (
"274 321 LINE",
"319 220 OFFCURVE",
"400 69 OFFCURVE",
"441 0 CURVE",
"500 -9 OFFCURVE",
"582 -1 OFFCURVE",
"639 18 CURVE",
"651 78 LINE",
"591 82 LINE",
"525 150 OFFCURVE",
"435 281 OFFCURVE",
"370 381 CURVE"
);
}
);
};
components = (
{
name = _part.stem.cap;
transform = "{1, 0, 0, 1, -166, 0}";
}
);
layerId = "977FCFA9-45AC-4A33-B2D7-4D17E6BBF8E0";
paths = (
{
closed = 1;
nodes = (
"692 680 LINE",
"435 680 LINE",
"423 615 LINE",
"485 603 LINE",
"448 545 OFFCURVE",
"362 460 OFFCURVE",
"279 372 CURVE",
"274 321 LINE",
"319 220 OFFCURVE",
"400 69 OFFCURVE",
"441 0 CURVE",
"500 -9 OFFCURVE",
"582 -1 OFFCURVE",
"639 18 CURVE",
"651 78 LINE",
"591 82 LINE",
"529 146 OFFCURVE",
"445 267 OFFCURVE",
"381 364 CURVE",
"463 456 OFFCURVE",
"572 573 OFFCURVE",
"600 601 CURVE",
"680 615 LINE"
);
}
);
width = 701;
}
);
leftKerningGroup = I;
rightKerningGroup = X;
unicode = 004B;
},
{
color = 8;
glyphname = L;
lastChange = "2018-04-01 20:21:10 +0000";
layers = (
{
anchors = (
{
name = bottom;
position = "{199, 0}";
},
{
name = center;
position = "{127, 340}";
},
{
name = top;
position = "{156, 680}";
},
{
name = topright;
position = "{518, 680}";
}
);
components = (
{
name = _part.stem.cap;
transform = "{1, 0, -0.0171, 1, -51, 0}";
}
);
guideLines = (
{
position = "{386, 746}";
},
{
position = "{373, 865}";
}
);
layerId = "71FD7A9F-05F5-4D76-8D4F-547475A05E4C";
paths = (
{
closed = 1;
nodes = (
"77 0 LINE",
"442 0 LINE",
"453 64 OFFCURVE",
"471 153 OFFCURVE",
"472 159 CURVE",
"435 166 LINE",
"389 72 LINE",
"346 57 OFFCURVE",
"202 49 OFFCURVE",
"165 54 CURVE",
"110 54 LINE"
);
}
);
width = 481;
},
{
anchors = (
{
name = bottom;
position = "{235, 0}";
},
{
name = center;
position = "{187, 354}";
},
{
name = top;
position = "{210, 680}";
},
{
name = topright;
position = "{562, 700}";
}
);
background = {
paths = (
{
closed = 1;
nodes = (
"60 700 LINE",
"52 653 LINE",
"102 642 LINE",
"113 602 OFFCURVE",
"106 484 OFFCURVE",
"103 427 CURVE SMOOTH",
"94 249 OFFCURVE",
"69 101 OFFCURVE",
"72 88 CURVE SMOOTH",
"76 74 OFFCURVE",
"114 56 OFFCURVE",
"133 50 CURVE",
"13 51 LINE",
"10 0 LINE",
"508 -1 LINE",
"535 163 LINE",
"490 173 LINE",
"486 166 OFFCURVE",
"481 115 OFFCURVE",
"418 94 CURVE SMOOTH",
"379 81 OFFCURVE",
"312 80 OFFCURVE",
"238 81 CURVE",
"208 114 OFFCURVE",
"216 228 OFFCURVE",
"224 331 CURVE",
"346 325 LINE",
"357 279 LINE",
"397 282 LINE",
"402 325 OFFCURVE",
"409 410 OFFCURVE",
"394 410 CURVE SMOOTH",
"386 410 OFFCURVE",
"223 404 OFFCURVE",
"229 404 CURVE",
"230 455 OFFCURVE",
"246 569 OFFCURVE",
"257 613 CURVE",
"372 613 LINE",
"466 610 OFFCURVE",
"495 580 OFFCURVE",
"503 527 CURVE",
"550 537 LINE",
"532 699 LINE"
);
}
);
};
components = (
{
name = _part.stem.cap;
transform = "{1, 0, 0, 1, -166, 0}";
}
);
guideLines = (
{
angle = -12;
position = "{455, 184}";
}
);
layerId = "977FCFA9-45AC-4A33-B2D7-4D17E6BBF8E0";
paths = (
{
closed = 1;
nodes = (
"130 0 LINE",
"517 0 LINE",
"535 99 OFFCURVE",
"545 138 OFFCURVE",
"554 180 CURVE",
"487 188 LINE",
"446 106 LINE",
"404 91 OFFCURVE",
"285 85 OFFCURVE",
"249 91 CURVE",
"151 54 LINE"
);
}
);
width = 570;
}
);
leftKerningGroup = I;
rightKerningGroup = L;
unicode = 004C;
},
{
color = 8;
glyphname = M;
lastChange = "2018-04-01 20:21:10 +0000";
layers = (
{
layerId = "71FD7A9F-05F5-4D76-8D4F-547475A05E4C";
paths = (
{
closed = 1;
nodes = (
"238 468 LINE",
"277 317 OFFCURVE",
"355 -1 OFFCURVE",
"358 -7 CURVE",
"410 92 LINE",
"404 111 OFFCURVE",
"309 500 OFFCURVE",
"271 680 CURVE",
"266 675 LINE",
"269 680 LINE",
"207 613 LINE"
);
},
{
closed = 1;
nodes = (
"480 154 OFFCURVE",
"608 456 OFFCURVE",
"642 538 CURVE",
"641 455 OFFCURVE",
"649 144 OFFCURVE",
"651 104 CURVE SMOOTH",
"651 88 OFFCURVE",
"665 66 OFFCURVE",
"693 56 CURVE",
"588 46 LINE",
"580 0 LINE",
"793 0 LINE",
"801 46 LINE",
"741 56 LINE",
"721 141 OFFCURVE",
"725 232 OFFCURVE",
"714 622 CURVE",
"789 635 LINE",
"796 680 LINE",
"638 680 LINE",
"543 434 OFFCURVE",
"474 279 OFFCURVE",
"414 146 CURVE",
"391 87 OFFCURVE",
"384 52 OFFCURVE",
"358 -7 CURVE",
"412 2 LINE"
);
},
{
closed = 1;
nodes = (
"126 89 OFFCURVE",
"190 384 OFFCURVE",
"219 543 CURVE",
"235 598 OFFCURVE",
"246 660 OFFCURVE",
"271 680 CURVE",
"113 680 LINE",
"106 635 LINE",
"174 624 LINE",
"128 369 OFFCURVE",
"71 107 OFFCURVE",
"60 64 CURVE",
"-17 45 LINE",
"-25 0 LINE",
"192 0 LINE",
"200 46 LINE",
"137 55 LINE"
);
}
);
width = 821;
},
{
layerId = "977FCFA9-45AC-4A33-B2D7-4D17E6BBF8E0";
paths = (
{
closed = 1;
nodes = (
"234 467 LINE",
"273 316 OFFCURVE",
"366 -1 OFFCURVE",
"369 -7 CURVE",
"467 161 LINE",
"461 180 OFFCURVE",
"368 500 OFFCURVE",
"327 680 CURVE",
"304 680 LINE",
"315 680 LINE",
"197 588 LINE"
);
},
{
closed = 1;
nodes = (
"509 146 OFFCURVE",
"598 347 OFFCURVE",
"637 441 CURVE",
"633 179 OFFCURVE",
"636 156 OFFCURVE",
"638 141 CURVE SMOOTH",
"642 102 OFFCURVE",
"655 85 OFFCURVE",
"683 76 CURVE",
"576 66 LINE",
"566 0 LINE",
"849 0 LINE",
"858 66 LINE",
"798 76 LINE",
"776 161 OFFCURVE",
"778 472 OFFCURVE",
"776 603 CURVE",
"855 615 LINE",
"866 680 LINE",
"645 680 LINE",
"555 434 OFFCURVE",
"465 280 OFFCURVE",
"410 146 CURVE",
"387 87 OFFCURVE",
"395 52 OFFCURVE",
"369 -7 CURVE",
"452 3 LINE"
);
},
{
closed = 1;
nodes = (
"175 109 OFFCURVE",
"227 362 OFFCURVE",
"255 521 CURVE",
"270 565 OFFCURVE",
"292 660 OFFCURVE",
"317 680 CURVE",
"109 680 LINE",
"98 615 LINE",
"176 604 LINE",
"127 349 OFFCURVE",
"79 120 OFFCURVE",
"67 77 CURVE",
"-6 65 LINE",
"-15 0 LINE",
"254 0 LINE",
"264 66 LINE",
"187 75 LINE"
);
}
);
width = 886;
}
);
leftKerningGroup = A;
rightKerningGroup = A;
unicode = 004D;
},
{
color = 1;
glyphname = N;
lastChange = "2018-04-01 20:23:06 +0000";
layers = (
{
anchors = (
{
name = bottom;
position = "{339, 0}";
},
{
name = top;
position = "{410, 680}";
}
);
layerId = "71FD7A9F-05F5-4D76-8D4F-547475A05E4C";
paths = (
{
closed = 1;
nodes = (
"177 550 LINE",
"191 537 OFFCURVE",
"212 510 OFFCURVE",
"232 483 CURVE SMOOTH",
"253 454 OFFCURVE",
"278 415 OFFCURVE",
"299 383 CURVE SMOOTH",
"481 107 OFFCURVE",
"536 -5 OFFCURVE",
"539 -9 CURVE",
"566 76 LINE",
"549 100 OFFCURVE",
"590 109 OFFCURVE",
"559 147 CURVE SMOOTH",
"530 182 OFFCURVE",
"483 244 OFFCURVE",
"447 298 CURVE SMOOTH",
"296 522 OFFCURVE",
"281 562 OFFCURVE",
"229 680 CURVE",
"225 675 LINE",
"227 680 LINE",
"157 579 LINE"
);
},
{
closed = 1;
nodes = (
"173 82 OFFCURVE",
"173 160 OFFCURVE",
"180 236 CURVE SMOOTH",
"191 363 OFFCURVE",
"201 521 OFFCURVE",
"229 680 CURVE",
"88 680 LINE",
"80 635 LINE",
"135 626 LINE",
"154 600 OFFCURVE",
"144 479 OFFCURVE",
"130 317 CURVE SMOOTH",
"115 145 OFFCURVE",
"107 103 OFFCURVE",
"99 60 CURVE",
"24 45 LINE",
"16 0 LINE",
"231 0 LINE",
"239 46 LINE",
"182 57 LINE"
);
},
{
closed = 1;
nodes = (
"583 600 OFFCURVE",
"576 534 OFFCURVE",
"567 424 CURVE SMOOTH",
"536 73 OFFCURVE",
"542 99 OFFCURVE",
"539 -9 CURVE",
"588 0 LINE",
"609 286 OFFCURVE",
"640 560 OFFCURVE",
"653 622 CURVE",
"727 635 LINE",
"735 680 LINE",
"517 680 LINE",
"509 635 LINE",
"571 626 LINE"
);
}
);
width = 719;
},
{
anchors = (
{
name = bottom;
position = "{285, 0}";
},
{
name = top;
position = "{389, 680}";
}
);
layerId = "977FCFA9-45AC-4A33-B2D7-4D17E6BBF8E0";
paths = (
{
closed = 1;
nodes = (
"143 544 LINE",
"157 530 OFFCURVE",
"166 468 OFFCURVE",
"190 445 CURVE SMOOTH",
"224 414 OFFCURVE",
"251 363 OFFCURVE",
"277 330 CURVE SMOOTH",
"396 181 OFFCURVE",
"512 -7 OFFCURVE",
"515 -11 CURVE",
"610 115 LINE",
"593 139 OFFCURVE",
"578 191 OFFCURVE",
"543 223 CURVE SMOOTH",
"512 252 OFFCURVE",
"484 304 OFFCURVE",
"464 333 CURVE SMOOTH",
"385 444 OFFCURVE",
"298 562 OFFCURVE",
"246 680 CURVE",
"238 675 LINE",
"243 680 LINE",
"133 572 LINE"
);
},
{
closed = 1;
nodes = (
"186 102 OFFCURVE",
"186 171 OFFCURVE",
"192 236 CURVE SMOOTH",
"203 363 OFFCURVE",
"216 521 OFFCURVE",
"244 680 CURVE",
"60 680 LINE",
"49 615 LINE",
"106 605 LINE",
"125 579 OFFCURVE",
"119 502 OFFCURVE",
"105 340 CURVE SMOOTH",
"99 268 OFFCURVE",
"82 122 OFFCURVE",
"72 79 CURVE",
"-3 65 LINE",
"-13 0 LINE",
"256 0 LINE",
"266 66 LINE",
"196 77 LINE"
);
},
{
closed = 1;
nodes = (
"552 580 OFFCURVE",
"548 474 OFFCURVE",
"544 424 CURVE SMOOTH",
"513 73 OFFCURVE",
"518 97 OFFCURVE",
"515 -11 CURVE",
"606 3 LINE",
"627 289 OFFCURVE",
"652 541 OFFCURVE",
"664 603 CURVE",
"743 615 LINE",
"754 680 LINE",
"477 680 LINE",
"466 615 LINE",
"541 606 LINE"
);
}
);
width = 718;
}
);
leftKerningGroup = I;
rightKerningGroup = I;
unicode = 004E;
},
{
color = 8;
glyphname = Eng;
lastChange = "2017-09-10 18:25:38 +0000";
layers = (
{
anchors = (
{
name = bottom;
position = "{282, 0}";
},
{
name = top;
position = "{336, 661}";
}
);
background = {
paths = (
{
closed = 1;
nodes = (
"355 -271 OFFCURVE",
"441 -240 CURVE SMOOTH",
"558 -199 OFFCURVE",
"545 -45 OFFCURVE",
"472 23 CURVE",
"425 21 LINE",
"458 -16 OFFCURVE",
"457 -97 OFFCURVE",
"411 -140 CURVE SMOOTH",
"385 -165 OFFCURVE",
"359 -165 OFFCURVE",
"331 -153 CURVE SMOOTH",
"293 -136 OFFCURVE",
"267 -101 OFFCURVE",
"262 -87 CURVE",
"236 -119 LINE",
"261 -203 OFFCURVE"
);
}
);
};
layerId = "71FD7A9F-05F5-4D76-8D4F-547475A05E4C";
paths = (
{
closed = 1;
nodes = (
"510 49 LINE",
"574 -84 OFFCURVE",
"454 -190 OFFCURVE",
"309 -98 CURVE",
"295 -102 LINE",
"282 -128 LINE",
"313 -167 OFFCURVE",
"426 -234 OFFCURVE",
"516 -188 CURVE SMOOTH",
"588 -151 OFFCURVE",
"588 -64 OFFCURVE",
"593 15 CURVE"
);
},
{
closed = 1;
nodes = (
"179 550 LINE",
"194 537 OFFCURVE",
"215 510 OFFCURVE",
"234 483 CURVE SMOOTH",
"256 454 OFFCURVE",
"280 415 OFFCURVE",
"302 383 CURVE SMOOTH",
"484 107 OFFCURVE",
"539 -5 OFFCURVE",
"541 -9 CURVE",
"569 76 LINE",
"552 100 OFFCURVE",
"593 109 OFFCURVE",
"562 147 CURVE SMOOTH",
"533 182 OFFCURVE",
"486 244 OFFCURVE",
"449 298 CURVE SMOOTH",
"299 522 OFFCURVE",
"283 562 OFFCURVE",
"232 680 CURVE",
"227 675 LINE",
"230 680 LINE",
"160 579 LINE"
);
},
{
closed = 1;
nodes = (
"175 82 OFFCURVE",
"176 160 OFFCURVE",
"183 236 CURVE SMOOTH",
"194 363 OFFCURVE",
"204 521 OFFCURVE",
"232 680 CURVE",
"91 680 LINE",
"83 635 LINE",
"138 626 LINE",
"157 600 OFFCURVE",
"147 479 OFFCURVE",
"133 317 CURVE SMOOTH",
"118 145 OFFCURVE",
"110 103 OFFCURVE",
"101 60 CURVE",
"27 45 LINE",
"19 0 LINE",
"234 0 LINE",
"242 46 LINE",
"185 57 LINE"
);
},
{
closed = 1;
nodes = (
"586 600 OFFCURVE",
"579 534 OFFCURVE",
"569 424 CURVE SMOOTH",
"539 73 OFFCURVE",
"545 99 OFFCURVE",
"541 -9 CURVE",
"591 0 LINE",
"612 286 OFFCURVE",
"643 560 OFFCURVE",
"655 622 CURVE",
"730 635 LINE",
"738 680 LINE",
"520 680 LINE",
"512 635 LINE",
"574 626 LINE"
);
}
);
width = 664;
},
{
anchors = (
{
name = bottom;
position = "{314, 0}";
},
{
name = top;
position = "{368, 661}";
}
);
background = {
paths = (
{
closed = 1;
nodes = (
"387 -271 OFFCURVE",
"473 -240 CURVE SMOOTH",
"590 -199 OFFCURVE",
"577 -45 OFFCURVE",
"504 23 CURVE",
"457 21 LINE",
"490 -16 OFFCURVE",
"489 -97 OFFCURVE",
"443 -140 CURVE SMOOTH",
"417 -165 OFFCURVE",
"391 -165 OFFCURVE",
"363 -153 CURVE SMOOTH",
"325 -136 OFFCURVE",
"299 -101 OFFCURVE",
"294 -87 CURVE",
"268 -119 LINE",
"293 -203 OFFCURVE"
);
}
);
};
layerId = "977FCFA9-45AC-4A33-B2D7-4D17E6BBF8E0";
paths = (
{
closed = 1;
nodes = (
"207 91 OFFCURVE",
"207 160 OFFCURVE",
"214 236 CURVE SMOOTH",
"227 383 OFFCURVE",
"237 541 OFFCURVE",
"265 700 CURVE",
"84 700 LINE",
"74 643 LINE",
"131 633 LINE",
"149 607 OFFCURVE",
"141 499 OFFCURVE",
"127 337 CURVE SMOOTH",
"118 238 OFFCURVE",
"108 172 OFFCURVE",
"98 129 CURVE SMOOTH",
"85 70 OFFCURVE",
"44 55 OFFCURVE",
"18 55 CURVE",
"11 0 LINE",
"265 0 LINE",
"275 55 LINE",
"217 66 LINE"
);
},
{
closed = 1;
nodes = (
"472 645 LINE",
"534 636 LINE",
"546 610 OFFCURVE",
"540 494 OFFCURVE",
"535 444 CURVE SMOOTH",
"527 364 OFFCURVE",
"522 303 OFFCURVE",
"518 255 CURVE",
"492 285 OFFCURVE",
"469 325 OFFCURVE",
"454 351 CURVE SMOOTH",
"377 480 OFFCURVE",
"316 582 OFFCURVE",
"265 700 CURVE",
"260 695 LINE",
"263 700 LINE",
"156 592 LINE",
"167 564 LINE",
"180 550 OFFCURVE",
"191 500 OFFCURVE",
"215 477 CURVE SMOOTH",
"248 446 OFFCURVE",
"281 384 OFFCURVE",
"300 351 CURVE SMOOTH",
"374 223 OFFCURVE",
"471 59 OFFCURVE",
"496 13 CURVE SMOOTH",
"535 -60 OFFCURVE",
"502 -119 OFFCURVE",
"464 -148 CURVE",
"421 -175 OFFCURVE",
"361 -176 OFFCURVE",
"308 -138 CURVE",
"290 -185 LINE",
"321 -224 OFFCURVE",
"421 -283 OFFCURVE",
"505 -233 CURVE SMOOTH",
"594 -180 OFFCURVE",
"591 -78 OFFCURVE",
"596 0 CURVE SMOOTH",
"618 286 OFFCURVE",
"638 504 OFFCURVE",
"653 566 CURVE SMOOTH",
"666 619 OFFCURVE",
"699 645 OFFCURVE",
"737 645 CURVE",
"744 700 LINE",
"483 700 LINE"
);
}
);
width = 718;
}
);
leftKerningGroup = I;
rightKerningGroup = I;
unicode = 014A;
},
{
color = 1;
glyphname = O;
lastChange = "2018-04-01 20:23:07 +0000";
layers = (
{
anchors = (
{
name = bottom;
position = "{336, 0}";
},
{
name = center;
position = "{372, 340}";
},
{
name = ogonek;
position = "{616, 10}";
},
{
name = top;
position = "{396, 680}";
},
{
name = topleft;
position = "{76, 680}";
},
{
name = topright;
position = "{737, 680}";
}
);
guideLines = (
{
position = "{441, 746}";
},
{
position = "{428, 865}";
}
);
layerId = "71FD7A9F-05F5-4D76-8D4F-547475A05E4C";
paths = (
{
closed = 1;
nodes = (
"577 672 OFFCURVE",
"493 715 OFFCURVE",
"349 688 CURVE SMOOTH",
"34 629 OFFCURVE",
"-7 222 OFFCURVE",
"119 76 CURVE SMOOTH",
"196 -13 OFFCURVE",
"302 -34 OFFCURVE",
"430 0 CURVE SMOOTH",
"709 74 OFFCURVE",
"762 443 OFFCURVE",
"631 605 CURVE SMOOTH"
);
},
{
closed = 1;
nodes = (
"244 15 OFFCURVE",
"167 111 OFFCURVE",
"145 267 CURVE SMOOTH",
"122 430 OFFCURVE",
"204 605 OFFCURVE",
"378 656 CURVE",
"376 666 LINE",
"305 653 LINE",
"305 642 LINE",
"513 664 OFFCURVE",
"593 557 OFFCURVE",
"610 406 CURVE SMOOTH",
"629 241 OFFCURVE",
"538 78 OFFCURVE",
"386 31 CURVE",
"390 16 LINE",
"457 24 LINE",
"454 40 LINE"
);
}
);
width = 731;
},
{
anchors = (
{
name = bottom;
position = "{265, 0}";
},
{
name = center;
position = "{338, 350}";
},
{
name = ogonek;
position = "{535, 10}";
},
{
name = top;
position = "{388, 680}";
},
{
name = topleft;
position = "{94, 700}";
},
{
name = topright;
position = "{728, 700}";
}
);
background = {
paths = (
{
closed = 1;
nodes = (
"570 685 OFFCURVE",
"476 730 OFFCURVE",
"332 711 CURVE",
"22 649 OFFCURVE",
"-33 244 OFFCURVE",
"116 81 CURVE SMOOTH",
"194 -8 OFFCURVE",
"311 -29 OFFCURVE",
"437 -1 CURVE",
"710 77 OFFCURVE",
"778 440 OFFCURVE",
"626 618 CURVE SMOOTH"
);
},
{
closed = 1;
nodes = (
"343 77 OFFCURVE",
"267 99 OFFCURVE",
"227 176 CURVE SMOOTH",
"143 334 OFFCURVE",
"187 547 OFFCURVE",
"337 628 CURVE",
"400 628 OFFCURVE",
"474 610 OFFCURVE",
"518 521 CURVE SMOOTH",
"595 372 OFFCURVE",
"553 165 OFFCURVE",
"407 78 CURVE"
);
}
);
};
layerId = "977FCFA9-45AC-4A33-B2D7-4D17E6BBF8E0";
paths = (
{
closed = 1;
nodes = (
"590 662 OFFCURVE",
"488 719 OFFCURVE",
"333 692 CURVE SMOOTH",
"28 639 OFFCURVE",
"-55 249 OFFCURVE",
"77 85 CURVE SMOOTH",
"149 -4 OFFCURVE",
"286 -37 OFFCURVE",
"410 -5 CURVE SMOOTH",
"680 65 OFFCURVE",
"773 414 OFFCURVE",
"640 595 CURVE SMOOTH"
);
},
{
closed = 1;
nodes = (
"348 69 OFFCURVE",
"252 97 OFFCURVE",
"207 187 CURVE SMOOTH",
"131 338 OFFCURVE",
"201 554 OFFCURVE",
"360 615 CURVE",
"356 634 LINE",
"307 620 LINE",
"311 601 LINE",
"376 613 OFFCURVE",
"472 584 OFFCURVE",
"515 488 CURVE SMOOTH",
"583 336 OFFCURVE",
"514 137 OFFCURVE",
"356 63 CURVE",
"358 38 LINE",
"411 54 LINE",
"406 80 LINE"
);
}
);
width = 696;
}
);
leftKerningGroup = O;
rightKerningGroup = O;
unicode = 004F;
},
{
color = 8;
glyphname = OE;
lastChange = "2017-09-10 18:25:38 +0000";
layers = (
{
anchors = (
{
name = bottom;
position = "{363, 0}";
},
{
name = top;
position = "{497, 700}";
}
);
layerId = "71FD7A9F-05F5-4D76-8D4F-547475A05E4C";
paths = (
{
closed = 1;
nodes = (
"114 4 OFFCURVE",
"230 -3 OFFCURVE",
"360 0 CURVE",
"370 50 LINE",
"197 45 OFFCURVE",
"86 139 OFFCURVE",
"67 276 CURVE SMOOTH",
"46 427 OFFCURVE",
"114 565 OFFCURVE",
"265 626 CURVE",
"345 626 OFFCURVE",
"404 616 OFFCURVE",
"448 601 CURVE",
"464 680 LINE",
"410 680 OFFCURVE",
"336 685 OFFCURVE",
"247 671 CURVE",
"-50 599 OFFCURVE",
"-89 238 OFFCURVE",
"34 96 CURVE SMOOTH"
);
},
{
closed = 1;
nodes = (
"796 159 LINE",
"754 70 LINE",
"714 57 OFFCURVE",
"604 52 OFFCURVE",
"526 54 CURVE",
"515 55 LINE",
"491 111 OFFCURVE",
"511 288 OFFCURVE",
"515 334 CURVE SMOOTH",
"515 340 LINE",
"717 323 LINE",
"736 390 LINE",
"724 398 LINE",
"684 396 OFFCURVE",
"561 392 OFFCURVE",
"520 390 CURVE",
"530 514 OFFCURVE",
"539 591 OFFCURVE",
"543 623 CURVE",
"547 624 LINE",
"653 622 OFFCURVE",
"736 618 OFFCURVE",
"781 609 CURVE",
"789 527 LINE",
"835 537 LINE",
"851 689 LINE",
"745 683 OFFCURVE",
"625 680 OFFCURVE",
"509 680 CURVE SMOOTH",
"394 680 LINE",
"386 636 LINE",
"445 626 LINE",
"455 601 OFFCURVE",
"449 515 OFFCURVE",
"437 388 CURVE SMOOTH",
"419 178 OFFCURVE",
"411 145 OFFCURVE",
"407 93 CURVE SMOOTH",
"406 80 OFFCURVE",
"422 61 OFFCURVE",
"447 55 CURVE",
"335 46 LINE",
"327 0 LINE",
"575 0 LINE",
"575 1 LINE",
"650 0 OFFCURVE",
"726 -1 OFFCURVE",
"801 -3 CURVE",
"837 152 LINE"
);
}
);
width = 936;
},
{
anchors = (
{
name = bottom;
position = "{389, 0}";
},
{
name = top;
position = "{523, 700}";
}
);
layerId = "977FCFA9-45AC-4A33-B2D7-4D17E6BBF8E0";
paths = (
{
closed = 1;
nodes = (
"543 12 LINE",
"540 115 LINE",
"514 97 OFFCURVE",
"385 86 OFFCURVE",
"334 80 CURVE",
"335 55 LINE",
"389 71 LINE",
"382 82 LINE",
"324 71 OFFCURVE",
"230 111 OFFCURVE",
"195 207 CURVE SMOOTH",
"139 357 OFFCURVE",
"196 541 OFFCURVE",
"344 604 CURVE",
"339 623 LINE",
"290 609 LINE",
"294 590 LINE",
"355 595 OFFCURVE",
"502 582 OFFCURVE",
"558 522 CURVE",
"571 648 LINE",
"481 680 LINE",
"446 681 OFFCURVE",
"376 682 OFFCURVE",
"316 679 CURVE",
"21 617 OFFCURVE",
"-46 269 OFFCURVE",
"60 100 CURVE SMOOTH",
"123 1 OFFCURVE",
"260 -11 OFFCURVE",
"393 0 CURVE SMOOTH"
);
},
{
closed = 1;
nodes = (
"892 197 LINE",
"854 115 LINE",
"814 102 OFFCURVE",
"728 97 OFFCURVE",
"654 98 CURVE",
"637 156 OFFCURVE",
"646 250 OFFCURVE",
"653 310 CURVE",
"816 292 LINE",
"841 398 LINE",
"826 408 LINE",
"773 407 OFFCURVE",
"715 405 OFFCURVE",
"661 402 CURVE",
"669 484 OFFCURVE",
"675 547 OFFCURVE",
"683 585 CURVE",
"766 583 OFFCURVE",
"828 580 OFFCURVE",
"867 574 CURVE",
"877 482 LINE",
"949 492 LINE",
"966 676 LINE",
"952 688 LINE",
"802 678 OFFCURVE",
"752 683 OFFCURVE",
"602 680 CURVE SMOOTH",
"462 680 LINE",
"450 615 LINE",
"517 605 LINE",
"528 580 OFFCURVE",
"525 515 OFFCURVE",
"510 388 CURVE SMOOTH",
"485 166 OFFCURVE",
"487 190 OFFCURVE",
"483 159 CURVE SMOOTH",
"479 123 OFFCURVE",
"496 110 OFFCURVE",
"523 104 CURVE",
"404 66 LINE",
"393 0 LINE",
"717 0 LINE SMOOTH",
"784 0 OFFCURVE",
"793 -1 OFFCURVE",
"917 -4 CURVE",
"956 189 LINE"
);
}
);
width = 993;
}
);
unicode = 0152;
},
{
color = 8;
glyphname = P;
lastChange = "2018-04-01 20:21:10 +0000";
layers = (
{
components = (
{
name = _part.stem.cap;
transform = "{1, 0, 0, 1, -58, 0}";
}
);
layerId = "71FD7A9F-05F5-4D76-8D4F-547475A05E4C";
paths = (
{
closed = 1;
nodes = (
"129 299 LINE",
"159 287 OFFCURVE",
"252 288 OFFCURVE",
"287 293 CURVE",
"509 328 OFFCURVE",
"572 595 OFFCURVE",
"393 661 CURVE SMOOTH",
"298 696 OFFCURVE",
"234 687 OFFCURVE",
"52 680 CURVE",
"183 631 LINE",
"430 686 OFFCURVE",
"497 425 OFFCURVE",
"308 342 CURVE",
"259 341 OFFCURVE",
"189 342 OFFCURVE",
"142 357 CURVE"
);
},
{
closed = 1;
nodes = (
"67 0 LINE",
"239 0 LINE",
"248 46 LINE",
"127 60 LINE"
);
}
);
width = 469;
},
{
background = {
components = (
{
name = R;
transform = "{1, 0, 0, 1, -15, 0}";
}
);
};
components = (
{
name = _part.stem.cap;
piece = {
"BPR?" = 1;
};
transform = "{1, 0, 0, 1, -167, 0}";
}
);
guideLines = (
{
angle = 84;
position = "{607, 311}";
}
);
layerId = "977FCFA9-45AC-4A33-B2D7-4D17E6BBF8E0";
paths = (
{
closed = 1;
nodes = (
"226 274 LINE",
"256 262 OFFCURVE",
"326 261 OFFCURVE",
"361 266 CURVE",
"606 314 OFFCURVE",
"663 575 OFFCURVE",
"495 655 CURVE SMOOTH",
"401 700 OFFCURVE",
"250 689 OFFCURVE",
"86 678 CURVE",
"256 600 LINE",
"461 632 OFFCURVE",
"459 415 OFFCURVE",
"371 361 CURVE",
"346 353 OFFCURVE",
"261 356 OFFCURVE",
"226 373 CURVE"
);
},
{
closed = 1;
nodes = (
"122 0 LINE",
"344 0 LINE",
"356 66 LINE",
"209 83 LINE"
);
}
);
width = 574;
}
);
leftKerningGroup = I;
unicode = 0050;
},
{
color = 8;
glyphname = Thorn;
lastChange = "2017-09-10 18:25:38 +0000";
layers = (
{
layerId = "71FD7A9F-05F5-4D76-8D4F-547475A05E4C";
paths = (
{
closed = 1;
nodes = (
"128 163 LINE",
"158 151 OFFCURVE",
"251 152 OFFCURVE",
"286 157 CURVE",
"508 192 OFFCURVE",
"571 460 OFFCURVE",
"392 525 CURVE SMOOTH",
"321 551 OFFCURVE",
"259 553 OFFCURVE",
"155 549 CURVE",
"183 492 LINE",
"429 550 OFFCURVE",
"496 289 OFFCURVE",
"308 206 CURVE",
"258 205 OFFCURVE",
"189 206 OFFCURVE",
"141 221 CURVE"
);
},
{
closed = 1;
nodes = (
"71 0 LINE",
"243 0 LINE",
"252 46 LINE",
"130 60 LINE"
);
},
{
closed = 1;
nodes = (
"289 634 LINE",
"298 680 LINE",
"122 680 LINE",
"171 620 LINE"
);
},
{
closed = 1;
nodes = (
"50 680 LINE",
"42 636 LINE",
"100 626 LINE",
"110 601 OFFCURVE",
"104 515 OFFCURVE",
"92 388 CURVE SMOOTH",
"74 178 OFFCURVE",
"66 145 OFFCURVE",
"62 93 CURVE SMOOTH",
"61 80 OFFCURVE",
"77 61 OFFCURVE",
"102 55 CURVE",
"-10 46 LINE",
"-18 0 LINE",
"231 0 LINE",
"239 46 LINE",
"170 55 LINE",
"146 111 OFFCURVE",
"166 288 OFFCURVE",
"170 334 CURVE SMOOTH",
"183 491 OFFCURVE",
"188 532 OFFCURVE",
"192 569 CURVE SMOOTH",
"198 618 OFFCURVE",
"193 667 OFFCURVE",
"255 669 CURVE",
"282 680 LINE"
);
}
);
width = 512;
},
{
layerId = "977FCFA9-45AC-4A33-B2D7-4D17E6BBF8E0";
paths = (
{
closed = 1;
nodes = (
"210 142 LINE",
"240 130 OFFCURVE",
"310 129 OFFCURVE",
"345 134 CURVE",
"590 182 OFFCURVE",
"647 443 OFFCURVE",
"479 523 CURVE SMOOTH",
"408 557 OFFCURVE",
"303 559 OFFCURVE",
"186 553 CURVE",
"240 468 LINE",
"445 500 OFFCURVE",
"443 283 OFFCURVE",
"356 229 CURVE",
"330 221 OFFCURVE",
"245 224 OFFCURVE",
"210 241 CURVE"
);
},
{
closed = 1;
nodes = (
"118 0 LINE",
"335 0 LINE",
"346 66 LINE",
"205 83 LINE"
);
},
{
closed = 1;
nodes = (
"381 613 LINE",
"393 680 LINE",
"174 680 LINE",
"247 596 LINE"
);
},
{
closed = 1;
nodes = (
"56 680 LINE",
"45 616 LINE",
"113 605 LINE",
"124 580 OFFCURVE",
"120 515 OFFCURVE",
"104 388 CURVE SMOOTH",
"82 201 OFFCURVE",
"79 166 OFFCURVE",
"75 136 CURVE SMOOTH",
"71 100 OFFCURVE",
"89 84 OFFCURVE",
"115 78 CURVE",
"-2 66 LINE",
"-12 0 LINE",
"313 0 LINE",
"324 66 LINE",
"257 78 LINE",
"227 137 OFFCURVE",
"241 229 OFFCURVE",
"250 334 CURVE SMOOTH",
"263 491 OFFCURVE",
"272 587 OFFCURVE",
"286 609 CURVE SMOOTH",
"299 630 OFFCURVE",
"316 645 OFFCURVE",
"360 646 CURVE",
"368 680 LINE"
);
}
);
width = 566;
}
);
leftKerningGroup = I;
rightKerningGroup = B;
unicode = 00DE;
},
{
color = 8;
glyphname = Q;
lastChange = "2018-04-01 20:21:10 +0000";
layers = (
{
components = (
{
name = O;
}
);
layerId = "71FD7A9F-05F5-4D76-8D4F-547475A05E4C";
paths = (
{
closed = 1;
nodes = (
"397 -90 OFFCURVE",
"575 -192 OFFCURVE",
"668 -208 CURVE",
"760 -157 LINE",
"748 -118 LINE",
"696 -129 LINE",
"560 -103 OFFCURVE",
"416 -24 OFFCURVE",
"348 32 CURVE",
"297 42 LINE"
);
}
);
width = 802;
},
{
background = {
paths = (
{
closed = 1;
nodes = (
"360 -45 OFFCURVE",
"563 -202 OFFCURVE",
"671 -191 CURVE",
"724 -169 OFFCURVE",
"772 -133 OFFCURVE",
"794 -106 CURVE",
"767 -56 LINE",
"751 -71 OFFCURVE",
"732 -83 OFFCURVE",
"717 -88 CURVE",
"653 -73 OFFCURVE",
"307 61 OFFCURVE",
"271 138 CURVE",
"220 109 LINE"
);
},
{
closed = 1;
nodes = (
"564 683 OFFCURVE",
"477 727 OFFCURVE",
"343 709 CURVE",
"54 647 OFFCURVE",
"-5 244 OFFCURVE",
"129 81 CURVE SMOOTH",
"200 -7 OFFCURVE",
"309 -28 OFFCURVE",
"426 0 CURVE",
"681 77 OFFCURVE",
"752 439 OFFCURVE",
"615 616 CURVE SMOOTH"
);
},
{
closed = 1;
nodes = (
"340 58 OFFCURVE",
"287 99 OFFCURVE",
"252 176 CURVE SMOOTH",
"178 333 OFFCURVE",
"206 545 OFFCURVE",
"346 626 CURVE",
"405 626 OFFCURVE",
"455 608 OFFCURVE",
"495 519 CURVE SMOOTH",
"563 371 OFFCURVE",
"538 146 OFFCURVE",
"400 59 CURVE"
);
}
);
};
components = (
{
name = O;
}
);
layerId = "977FCFA9-45AC-4A33-B2D7-4D17E6BBF8E0";
paths = (
{
closed = 1;
nodes = (
"353 -72 OFFCURVE",
"547 -237 OFFCURVE",
"656 -226 CURVE",
"790 -158 LINE",
"770 -96 LINE",
"708 -109 LINE",
"645 -94 OFFCURVE",
"354 -4 OFFCURVE",
"297 73 CURVE",
"216 82 LINE"
);
}
);
width = 695;
}
);
leftKerningGroup = O;
rightKerningGroup = O;
unicode = 0051;
},
{
color = 8;
glyphname = R;
lastChange = "2018-04-01 20:21:10 +0000";
layers = (
{
anchors = (
{
name = bottom;
position = "{247, 0}";
},
{
name = top;
position = "{290, 680}";
}
);
components = (
{
name = _part.stem.cap;
transform = "{1, 0, 0, 1, -58, 0}";
}
);
layerId = "71FD7A9F-05F5-4D76-8D4F-547475A05E4C";
paths = (
{
closed = 1;
nodes = (
"145 309 LINE",
"151 306 OFFCURVE",
"264 303 OFFCURVE",
"291 304 CURVE",
"350 319 LINE",
"433 338 OFFCURVE",
"517 434 OFFCURVE",
"498 549 CURVE SMOOTH",
"466 727 OFFCURVE",
"228 685 OFFCURVE",
"49 679 CURVE",
"192 630 LINE",
"447 690 OFFCURVE",
"491 426 OFFCURVE",
"318 352 CURVE",
"274 351 OFFCURVE",
"203 351 OFFCURVE",
"160 365 CURVE"
);
},
{
closed = 1;
nodes = (
"250 327 LINE",
"308 204 OFFCURVE",
"330 139 OFFCURVE",
"421 -5 CURVE",
"459 -3 OFFCURVE",
"497 5 OFFCURVE",
"543 18 CURVE",
"553 62 LINE",
"492 62 LINE",
"432 126 OFFCURVE",
"416 147 OFFCURVE",
"302 327 CURVE"
);
}
);
width = 572;
},
{
anchors = (
{
name = bottom;
position = "{284, -2}";
},
{
name = top;
position = "{337, 680}";
}
);
background = {
components = (
{
name = k;
transform = "{1, 0, 0, 1, 152, 0}";
}
);
};
components = (
{
name = _part.stem.cap;
transform = "{1, 0, 0, 1, -166, 0}";
}
);
guideLines = (
{
position = "{502, 480}";
}
);
layerId = "977FCFA9-45AC-4A33-B2D7-4D17E6BBF8E0";
paths = (
{
closed = 1;
nodes = (
"239 283 LINE",
"244 280 OFFCURVE",
"317 281 OFFCURVE",
"344 282 CURVE",
"428 291 LINE",
"536 343 OFFCURVE",
"607 425 OFFCURVE",
"589 540 CURVE SMOOTH",
"557 743 OFFCURVE",
"275 684 OFFCURVE",
"76 678 CURVE",
"258 600 LINE",
"458 633 OFFCURVE",
"477 408 OFFCURVE",
"357 363 CURVE",
"334 363 OFFCURVE",
"285 357 OFFCURVE",
"227 382 CURVE"
);
},
{
closed = 1;
nodes = (
"293 322 LINE",
"334 221 OFFCURVE",
"396 69 OFFCURVE",
"437 0 CURVE",
"496 -9 OFFCURVE",
"578 -1 OFFCURVE",
"635 18 CURVE",
"647 78 LINE",
"587 82 LINE",
"521 150 OFFCURVE",
"455 253 OFFCURVE",
"390 353 CURVE"
);
}
);
width = 664;
}
);
leftKerningGroup = I;
rightKerningGroup = B;
unicode = 0052;
},
{
color = 8;
glyphname = S;
lastChange = "2018-04-01 20:21:10 +0000";
layers = (
{
anchors = (
{
name = bottom;
position = "{180, 0}";
},
{
name = top;
position = "{251, 680}";
}
);
background = {
paths = (
{
closed = 1;
nodes = (
"428 43 OFFCURVE",
"440 179 CURVE SMOOTH",
"449 283 OFFCURVE",
"341 336 OFFCURVE",
"275 369 CURVE SMOOTH",
"174 420 OFFCURVE",
"109 451 OFFCURVE",
"116 529 CURVE SMOOTH",
"126 647 OFFCURVE",
"305 669 OFFCURVE",
"380 600 CURVE",
"385 513 LINE",
"400 513 OFFCURVE",
"417 517 OFFCURVE",
"432 523 CURVE",
"456 646 LINE",
"414 679 OFFCURVE",
"357 690 OFFCURVE",
"280 690 CURVE SMOOTH",
"151 690 OFFCURVE",
"42 630 OFFCURVE",
"31 512 CURVE SMOOTH",
"23 412 OFFCURVE",
"115 357 OFFCURVE",
"185 320 CURVE SMOOTH",
"297 261 OFFCURVE",
"363 240 OFFCURVE",
"356 151 CURVE SMOOTH",
"345 29 OFFCURVE",
"106 11 OFFCURVE",
"56 84 CURVE",
"53 173 LINE",
"37 173 OFFCURVE",
"20 171 OFFCURVE",
"4 165 CURVE",
"-21 38 LINE",
"15 1 OFFCURVE",
"87 -15 OFFCURVE",
"164 -15 CURVE SMOOTH",
"303 -15 OFFCURVE"
);
}
);
};
layerId = "71FD7A9F-05F5-4D76-8D4F-547475A05E4C";
paths = (
{
closed = 1;
nodes = (
"428 43 OFFCURVE",
"440 179 CURVE SMOOTH",
"449 283 OFFCURVE",
"341 336 OFFCURVE",
"275 369 CURVE SMOOTH",
"174 420 OFFCURVE",
"109 451 OFFCURVE",
"116 529 CURVE SMOOTH",
"126 647 OFFCURVE",
"305 669 OFFCURVE",
"380 600 CURVE",
"385 513 LINE",
"400 513 OFFCURVE",
"417 517 OFFCURVE",
"432 523 CURVE",
"456 646 LINE",
"414 679 OFFCURVE",
"357 690 OFFCURVE",
"280 690 CURVE SMOOTH",
"151 690 OFFCURVE",
"42 630 OFFCURVE",
"31 512 CURVE SMOOTH",
"23 412 OFFCURVE",
"115 357 OFFCURVE",
"185 320 CURVE SMOOTH",
"297 261 OFFCURVE",
"363 240 OFFCURVE",
"356 151 CURVE SMOOTH",
"345 29 OFFCURVE",
"106 11 OFFCURVE",
"56 84 CURVE",
"53 173 LINE",
"37 173 OFFCURVE",
"20 171 OFFCURVE",
"4 165 CURVE",
"-21 38 LINE",
"15 1 OFFCURVE",
"87 -15 OFFCURVE",
"164 -15 CURVE SMOOTH",
"303 -15 OFFCURVE"
);
}
);
width = 446;
},
{
anchors = (
{
name = bottom;
position = "{161, 0}";
},
{
name = top;
position = "{293, 680}";
}
);
background = {
paths = (
{
closed = 1;
nodes = (
"536 47 LINE",
"526 53 OFFCURVE",
"510 65 OFFCURVE",
"497 76 CURVE SMOOTH",
"468 100 OFFCURVE",
"409 211 OFFCURVE",
"327 349 CURVE SMOOTH",
"245 487 OFFCURVE",
"223 525 OFFCURVE",
"186 589 CURVE",
"253 589 OFFCURVE",
"371 585 OFFCURVE",
"439 579 CURVE",
"473 511 LINE",
"520 519 LINE",
"486 700 LINE",
"342 700 OFFCURVE",
"165 693 OFFCURVE",
"10 700 CURVE",
"-3 650 LINE",
"8 645 OFFCURVE",
"21 635 OFFCURVE",
"38 620 CURVE SMOOTH",
"75 588 OFFCURVE",
"126 525 OFFCURVE",
"233 347 CURVE",
"307 213 OFFCURVE",
"329 172 OFFCURVE",
"355 114 CURVE",
"311 116 OFFCURVE",
"274 118 OFFCURVE",
"231 121 CURVE SMOOTH",
"133 128 OFFCURVE",
"94 143 OFFCURVE",
"80 188 CURVE",
"35 178 LINE",
"70 0 LINE",
"237 0 OFFCURVE",
"365 5 OFFCURVE",
"520 0 CURVE"
);
}
);
};
guideLines = (
{
position = "{-96, 57}";
}
);
layerId = "977FCFA9-45AC-4A33-B2D7-4D17E6BBF8E0";
paths = (
{
closed = 1;
nodes = (
"443 57 OFFCURVE",
"478 114 OFFCURVE",
"487 208 CURVE SMOOTH",
"497 322 OFFCURVE",
"391 374 OFFCURVE",
"301 418 CURVE SMOOTH",
"250 443 OFFCURVE",
"178 477 OFFCURVE",
"171 521 CURVE SMOOTH",
"165 556 OFFCURVE",
"193 586 OFFCURVE",
"240 599 CURVE",
"297 600 OFFCURVE",
"352 596 OFFCURVE",
"388 546 CURVE",
"398 461 LINE",
"467 474 LINE",
"472 503 OFFCURVE",
"490 610 OFFCURVE",
"495 638 CURVE",
"446 683 OFFCURVE",
"356 706 OFFCURVE",
"257 695 CURVE SMOOTH",
"139 682 OFFCURVE",
"47 613 OFFCURVE",
"37 500 CURVE SMOOTH",
"27 381 OFFCURVE",
"132 317 OFFCURVE",
"205 281 CURVE SMOOTH",
"282 243 OFFCURVE",
"337 209 OFFCURVE",
"346 170 CURVE SMOOTH",
"354 136 OFFCURVE",
"312 97 OFFCURVE",
"257 84 CURVE",
"205 81 OFFCURVE",
"145 80 OFFCURVE",
"99 132 CURVE",
"93 219 LINE",
"18 205 LINE",
"13 171 OFFCURVE",
"4 112 OFFCURVE",
"-7 43 CURVE",
"59 -20 OFFCURVE",
"229 -40 OFFCURVE",
"353 16 CURVE SMOOTH"
);
}
);
width = 500;
}
);
unicode = 0053;
},
{
color = 8;
glyphname = Germandbls;
lastChange = "2017-09-10 18:25:38 +0000";
layers = (
{
background = {
paths = (
{
closed = 1;
nodes = (
"148 716 OFFCURVE",
"-7 489 OFFCURVE",
"33 235 CURVE SMOOTH",
"59 71 OFFCURVE",
"177 -5 OFFCURVE",
"295 -14 CURVE SMOOTH",
"428 -24 OFFCURVE",
"530 12 OFFCURVE",
"587 51 CURVE",
"587 129 OFFCURVE",
"593 227 OFFCURVE",
"600 249 CURVE SMOOTH",
"609 276 OFFCURVE",
"632 282 OFFCURVE",
"640 282 CURVE",
"644 343 LINE",
"556 340 OFFCURVE",
"511 341 OFFCURVE",
"428 344 CURVE",
"420 285 LINE",
"475 269 LINE",
"474 213 OFFCURVE",
"474 117 OFFCURVE",
"436 76 CURVE",
"317 57 OFFCURVE",
"210 114 OFFCURVE",
"185 271 CURVE SMOOTH",
"153 469 OFFCURVE",
"267 601 OFFCURVE",
"331 628 CURVE",
"413 622 OFFCURVE",
"498 573 OFFCURVE",
"525 536 CURVE",
"530 481 LINE",
"593 492 LINE",
"622 651 LINE",
"588 684 OFFCURVE",
"517 716 OFFCURVE",
"390 716 CURVE SMOOTH"
);
}
);
};
layerId = "71FD7A9F-05F5-4D76-8D4F-547475A05E4C";
paths = (
{
closed = 1;
nodes = (
"394 -82 OFFCURVE",
"561 53 OFFCURVE",
"571 184 CURVE SMOOTH",
"581 331 OFFCURVE",
"503 410 OFFCURVE",
"283 383 CURVE",
"264 346 LINE",
"519 374 OFFCURVE",
"555 116 OFFCURVE",
"399 36 CURVE",
"295 36 LINE",
"282 117 LINE",
"236 106 LINE",
"224 21 LINE"
);
},
{
closed = 1;
nodes = (
"506 652 OFFCURVE",
"412 730 OFFCURVE",
"252 677 CURVE SMOOTH",
"137 639 OFFCURVE",
"74 534 OFFCURVE",
"60 377 CURVE SMOOTH",
"51 267 OFFCURVE",
"42 179 OFFCURVE",
"36 104 CURVE",
"34 80 OFFCURVE",
"47 57 OFFCURVE",
"71 55 CURVE",
"-38 45 LINE",
"-44 0 LINE",
"178 0 LINE",
"187 44 LINE",
"128 55 LINE",
"107 131 OFFCURVE",
"116 158 OFFCURVE",
"134 361 CURVE SMOOTH",
"151 552 OFFCURVE",
"194 598 OFFCURVE",
"250 633 CURVE",
"361 647 OFFCURVE",
"430 594 OFFCURVE",
"442 535 CURVE",
"333 448 OFFCURVE",
"301 429 OFFCURVE",
"243 383 CURVE",
"264 346 LINE",
"301 374 LINE",
"512 532 LINE",
"523 575 LINE"
);
}
);
width = 599;
},
{
background = {
components = (
{
name = N;
transform = "{1, 0, 0, 1, -50, 0}";
}
);
};
layerId = "977FCFA9-45AC-4A33-B2D7-4D17E6BBF8E0";
paths = (
{
closed = 1;
nodes = (
"365 -78 OFFCURVE",
"607 -1 OFFCURVE",
"634 184 CURVE SMOOTH",
"657 354 OFFCURVE",
"492 417 OFFCURVE",
"317 372 CURVE",
"288 320 LINE",
"469 320 OFFCURVE",
"508 162 OFFCURVE",
"441 76 CURVE",
"327 77 LINE",
"314 156 LINE",
"249 146 LINE",
"236 39 LINE"
);
},
{
closed = 1;
nodes = (
"549 714 OFFCURVE",
"310 743 OFFCURVE",
"175 645 CURVE SMOOTH",
"112 599 OFFCURVE",
"62 534 OFFCURVE",
"50 375 CURVE SMOOTH",
"42 265 OFFCURVE",
"34 193 OFFCURVE",
"30 118 CURVE SMOOTH",
"29 94 OFFCURVE",
"50 78 OFFCURVE",
"69 75 CURVE",
"-36 64 LINE",
"-45 0 LINE",
"197 0 LINE",
"209 65 LINE",
"168 74 LINE",
"183 275 OFFCURVE",
"189 345 OFFCURVE",
"193 389 CURVE SMOOTH",
"205 534 OFFCURVE",
"237 577 OFFCURVE",
"268 596 CURVE",
"354 596 OFFCURVE",
"411 562 OFFCURVE",
"431 528 CURVE",
"354 472 OFFCURVE",
"275 414 OFFCURVE",
"250 391 CURVE",
"287 319 LINE",
"345 372 LINE",
"559 522 LINE",
"571 579 LINE"
);
}
);
width = 633;
}
);
rightKerningGroup = B;
unicode = 1E9E;
},
{
color = 8;
glyphname = T;
lastChange = "2018-04-01 20:21:10 +0000";
layers = (
{
anchors = (
{
name = bottom;
position = "{252, 0}";
},
{
name = center;
position = "{288, 340}";
},
{
name = top;
position = "{323, 680}";
}
);
components = (
{
name = _part.stem.cap;
transform = "{1, 0, -0.0171, 1, 112, 0}";
}
);
guideLines = (
{
position = "{421, 746}";
},
{
position = "{408, 865}";
}
);
layerId = "71FD7A9F-05F5-4D76-8D4F-547475A05E4C";
paths = (
{
closed = 1;
nodes = (
"400 625 OFFCURVE",
"471 619 OFFCURVE",
"529 611 CURVE",
"537 533 LINE",
"584 539 LINE",
"599 687 LINE",
"407 676 OFFCURVE",
"227 677 OFFCURVE",
"47 687 CURVE",
"33 538 LINE",
"81 532 LINE",
"92 575 OFFCURVE",
"95 586 OFFCURVE",
"103 612 CURVE",
"125 620 OFFCURVE",
"180 621 OFFCURVE",
"245 624 CURVE",
"365 624 LINE"
);
}
);
width = 553;
},
{
anchors = (
{
name = bottom;
position = "{312, 0}";
},
{
name = center;
position = "{326, 350}";
},
{
name = top;
position = "{355, 680}";
}
);
background = {
components = (
{
name = H;
transform = "{1, 0, 0, 1, -64, 0}";
}
);
};
components = (
{
name = _part.stem.cap;
transform = "{1, 0, 0, 1, -33, 0}";
}
);
guideLines = (
{
position = "{412, 637}";
},
{
position = "{582, 535}";
}
);
layerId = "977FCFA9-45AC-4A33-B2D7-4D17E6BBF8E0";
paths = (
{
closed = 1;
nodes = (
"449 595 OFFCURVE",
"502 592 OFFCURVE",
"541 585 CURVE",
"554 499 LINE",
"622 509 LINE",
"640 689 LINE",
"469 679 OFFCURVE",
"241 678 OFFCURVE",
"57 688 CURVE",
"42 509 LINE",
"110 499 LINE",
"121 535 OFFCURVE",
"126 559 OFFCURVE",
"137 589 CURVE",
"172 594 OFFCURVE",
"224 596 OFFCURVE",
"281 595 CURVE",
"414 594 LINE"
);
}
);
width = 604;
}
);
leftKerningGroup = T;
rightKerningGroup = T;
unicode = 0054;
},
{
color = 8;
glyphname = U;
lastChange = "2018-04-01 20:21:10 +0000";
layers = (
{
anchors = (
{
name = bottom;
position = "{300, 0}";
},
{
name = ogonek;
position = "{390, 10}";
},
{
name = top;
position = "{371, 680}";
},
{
name = topright;
position = "{690, 680}";
}
);
layerId = "71FD7A9F-05F5-4D76-8D4F-547475A05E4C";
paths = (
{
closed = 1;
nodes = (
"470 636 LINE",
"547 626 LINE",
"559 598 OFFCURVE",
"545 486 OFFCURVE",
"529 304 CURVE SMOOTH",
"516 154 OFFCURVE",
"466 78 OFFCURVE",
"383 49 CURVE",
"222 40 OFFCURVE",
"158 114 OFFCURVE",
"171 253 CURVE SMOOTH",
"176 318 OFFCURVE",
"197 537 OFFCURVE",
"202 591 CURVE SMOOTH",
"204 613 OFFCURVE",
"172 625 OFFCURVE",
"162 627 CURVE",
"201 629 OFFCURVE",
"248 635 OFFCURVE",
"270 636 CURVE",
"278 679 LINE",
"50 680 LINE",
"42 636 LINE",
"106 625 LINE",
"115 590 OFFCURVE",
"91 374 OFFCURVE",
"82 265 CURVE SMOOTH",
"75 184 OFFCURVE",
"84 109 OFFCURVE",
"114 64 CURVE SMOOTH",
"171 -23 OFFCURVE",
"312 -38 OFFCURVE",
"418 2 CURVE SMOOTH",
"515 39 OFFCURVE",
"577 138 OFFCURVE",
"590 281 CURVE SMOOTH",
"602 418 OFFCURVE",
"614 555 OFFCURVE",
"621 622 CURVE",
"688 636 LINE",
"695 680 LINE",
"478 680 LINE"
);
}
);
width = 649;
},
{
anchors = (
{
name = bottom;
position = "{291, 0}";
},
{
name = ogonek;
position = "{398, 12}";
},
{
name = top;
position = "{424, 680}";
},
{
name = topright;
position = "{753, 700}";
}
);
background = {
paths = (
{
closed = 1;
nodes = (
"49 87 LINE",
"49 169 OFFCURVE",
"49 610 OFFCURVE",
"49 617 CURVE SMOOTH",
"49 628 OFFCURVE",
"49 642 OFFCURVE",
"49 650 CURVE",
"49 650 LINE",
"49 700 LINE",
"49 700 LINE",
"49 653 LINE",
"49 645 LINE",
"49 613 OFFCURVE",
"49 448 OFFCURVE",
"49 327 CURVE SMOOTH",
"49 220 OFFCURVE",
"49 44 OFFCURVE",
"49 0 CURVE"
);
}
);
};
layerId = "977FCFA9-45AC-4A33-B2D7-4D17E6BBF8E0";
paths = (
{
closed = 1;
nodes = (
"494 616 LINE",
"577 605 LINE",
"589 577 OFFCURVE",
"580 480 OFFCURVE",
"563 304 CURVE SMOOTH",
"550 169 OFFCURVE",
"493 117 OFFCURVE",
"453 91 CURVE",
"311 73 OFFCURVE",
"258 155 OFFCURVE",
"271 301 CURVE SMOOTH",
"277 368 OFFCURVE",
"288 459 OFFCURVE",
"298 574 CURVE SMOOTH",
"299 591 OFFCURVE",
"274 604 OFFCURVE",
"261 606 CURVE",
"299 610 OFFCURVE",
"337 613 OFFCURVE",
"362 615 CURVE",
"373 679 LINE",
"78 679 LINE",
"67 616 LINE",
"131 608 LINE",
"140 573 OFFCURVE",
"116 374 OFFCURVE",
"107 265 CURVE SMOOTH",
"100 184 OFFCURVE",
"118 114 OFFCURVE",
"149 69 CURVE SMOOTH",
"206 -17 OFFCURVE",
"379 -45 OFFCURVE",
"485 2 CURVE SMOOTH",
"571 40 OFFCURVE",
"649 125 OFFCURVE",
"662 272 CURVE SMOOTH",
"674 409 OFFCURVE",
"687 537 OFFCURVE",
"697 604 CURVE",
"764 615 LINE",
"775 680 LINE",
"504 680 LINE"
);
}
);
width = 739;
}
);
rightKerningGroup = U;
unicode = 0055;
},
{
color = 1;
glyphname = V;
lastChange = "2018-04-01 20:23:06 +0000";
layers = (
{
layerId = "71FD7A9F-05F5-4D76-8D4F-547475A05E4C";
paths = (
{
closed = 1;
nodes = (
"301 71 LINE",
"247 281 OFFCURVE",
"164 581 OFFCURVE",
"162 591 CURVE SMOOTH",
"157 613 OFFCURVE",
"137 624 OFFCURVE",
"115 626 CURVE",
"213 635 LINE",
"221 680 LINE",
"10 680 LINE",
"2 635 LINE",
"56 625 LINE",
"69 593 OFFCURVE",
"113 442 OFFCURVE",
"146 321 CURVE SMOOTH",
"176 209 OFFCURVE",
"220 63 OFFCURVE",
"242 -7 CURVE"
);
},
{
closed = 1;
nodes = (
"520 594 OFFCURVE",
"460 462 OFFCURVE",
"440 412 CURVE SMOOTH",
"351 199 OFFCURVE",
"269 37 OFFCURVE",
"242 -7 CURVE",
"313 4 LINE",
"434 268 OFFCURVE",
"547 518 OFFCURVE",
"594 622 CURVE",
"658 635 LINE",
"666 680 LINE",
"447 680 LINE",
"438 635 LINE",
"514 626 LINE"
);
}
);
width = 581;
},
{
background = {
paths = (
{
closed = 1;
nodes = (
"789 193 LINE",
"759 344 OFFCURVE",
"704 594 OFFCURVE",
"702 605 CURVE SMOOTH",
"698 634 OFFCURVE",
"711 650 OFFCURVE",
"744 650 CURVE",
"749 700 LINE",
"506 700 LINE",
"497 653 LINE",
"544 643 LINE",
"585 519 OFFCURVE",
"643 278 OFFCURVE",
"709 0 CURVE",
"711 0 LINE",
"810 58 LINE"
);
},
{
closed = 1;
nodes = (
"553 424 OFFCURVE",
"510 304 OFFCURVE",
"467 193 CURVE",
"443 349 OFFCURVE",
"387 613 OFFCURVE",
"384 618 CURVE SMOOTH",
"378 629 OFFCURVE",
"368 641 OFFCURVE",
"346 651 CURVE",
"427 651 LINE",
"432 700 LINE",
"189 700 LINE",
"180 653 LINE",
"231 647 LINE",
"264 569 OFFCURVE",
"364 110 OFFCURVE",
"383 0 CURVE",
"488 0 LINE",
"658 511 LINE",
"591 538 LINE"
);
},
{
closed = 1;
nodes = (
"920 614 OFFCURVE",
"890 518 OFFCURVE",
"874 468 CURVE SMOOTH",
"756 87 OFFCURVE",
"755 75 OFFCURVE",
"709 0 CURVE",
"813 0 LINE",
"903 276 OFFCURVE",
"990 534 OFFCURVE",
"1009 580 CURVE SMOOTH",
"1034 640 OFFCURVE",
"1073 650 OFFCURVE",
"1099 650 CURVE",
"1104 700 LINE",
"858 700 LINE",
"849 653 LINE",
"912 644 LINE"
);
}
);
};
layerId = "977FCFA9-45AC-4A33-B2D7-4D17E6BBF8E0";
paths = (
{
closed = 1;
nodes = (
"413 117 LINE",
"399 189 OFFCURVE",
"299 561 OFFCURVE",
"296 571 CURVE SMOOTH",
"291 593 OFFCURVE",
"268 604 OFFCURVE",
"247 606 CURVE",
"344 615 LINE",
"355 680 LINE",
"60 680 LINE",
"49 615 LINE",
"114 605 LINE",
"128 573 OFFCURVE",
"172 442 OFFCURVE",
"204 321 CURVE SMOOTH",
"233 209 OFFCURVE",
"279 65 OFFCURVE",
"295 -8 CURVE"
);
},
{
closed = 1;
nodes = (
"590 574 OFFCURVE",
"539 463 OFFCURVE",
"519 412 CURVE SMOOTH",
"380 66 OFFCURVE",
"322 36 OFFCURVE",
"295 -8 CURVE",
"438 4 LINE",
"557 274 OFFCURVE",
"654 496 OFFCURVE",
"709 598 CURVE",
"778 615 LINE",
"789 680 LINE",
"519 680 LINE",
"508 615 LINE",
"584 606 LINE"
);
}
);
width = 753;
}
);
leftKerningGroup = V;
rightKerningGroup = V;
unicode = 0056;
},
{
color = 8;
glyphname = W;
lastChange = "2018-04-01 20:21:08 +0000";
layers = (
{
layerId = "71FD7A9F-05F5-4D76-8D4F-547475A05E4C";
paths = (
{
closed = 1;
nodes = (
"751 635 LINE",
"834 626 LINE",
"840 594 OFFCURVE",
"796 464 OFFCURVE",
"777 412 CURVE SMOOTH",
"722 270 OFFCURVE",
"688 181 OFFCURVE",
"665 123 CURVE",
"642 222 OFFCURVE",
"553 581 OFFCURVE",
"545 622 CURVE",
"636 635 LINE",
"644 680 LINE",
"397 680 LINE",
"389 635 LINE",
"459 625 LINE",
"463 614 OFFCURVE",
"470 587 OFFCURVE",
"478 552 CURVE",
"461 497 OFFCURVE",
"429 419 OFFCURVE",
"414 382 CURVE SMOOTH",
"365 261 OFFCURVE",
"330 179 OFFCURVE",
"305 123 CURVE",
"288 204 OFFCURVE",
"205 582 OFFCURVE",
"202 592 CURVE SMOOTH",
"198 606 OFFCURVE",
"187 618 OFFCURVE",
"160 626 CURVE",
"272 636 LINE",
"280 680 LINE",
"50 680 LINE",
"42 636 LINE",
"98 626 LINE",
"112 594 OFFCURVE",
"147 442 OFFCURVE",
"178 321 CURVE SMOOTH",
"206 209 OFFCURVE",
"238 37 OFFCURVE",
"249 -7 CURVE",
"312 7 LINE",
"402 226 OFFCURVE",
"467 383 OFFCURVE",
"498 465 CURVE",
"509 418 OFFCURVE",
"522 367 OFFCURVE",
"534 321 CURVE SMOOTH",
"545 279 OFFCURVE",
"600 58 OFFCURVE",
"615 -5 CURVE",
"678 9 LINE",
"820 384 OFFCURVE",
"894 577 OFFCURVE",
"919 624 CURVE",
"981 635 LINE",
"989 680 LINE",
"759 680 LINE"
);
}
);
width = 943;
},
{
anchors = (
{
name = bottom;
position = "{434, 0}";
},
{
name = top;
position = "{593, 680}";
}
);
guideLines = (
{
position = "{690, 177}";
}
);
layerId = "977FCFA9-45AC-4A33-B2D7-4D17E6BBF8E0";
paths = (
{
closed = 1;
nodes = (
"762 615 LINE",
"837 606 LINE",
"843 577 OFFCURVE",
"802 465 OFFCURVE",
"783 412 CURVE SMOOTH",
"756 339 OFFCURVE",
"728 267 OFFCURVE",
"701 194 CURVE",
"672 344 OFFCURVE",
"620 591 OFFCURVE",
"619 599 CURVE",
"709 615 LINE",
"720 680 LINE",
"396 680 LINE",
"385 615 LINE",
"461 605 LINE",
"465 594 OFFCURVE",
"471 570 OFFCURVE",
"479 540 CURVE",
"464 493 OFFCURVE",
"445 440 OFFCURVE",
"433 412 CURVE SMOOTH",
"399 331 OFFCURVE",
"372 268 OFFCURVE",
"351 217 CURVE",
"325 343 OFFCURVE",
"284 539 OFFCURVE",
"282 547 CURVE SMOOTH",
"277 568 OFFCURVE",
"265 598 OFFCURVE",
"239 606 CURVE",
"334 615 LINE",
"344 680 LINE",
"60 680 LINE",
"49 615 LINE",
"100 605 LINE",
"115 572 OFFCURVE",
"149 441 OFFCURVE",
"177 321 CURVE SMOOTH",
"202 209 OFFCURVE",
"239 35 OFFCURVE",
"249 -9 CURVE",
"361 6 LINE",
"422 164 OFFCURVE",
"474 307 OFFCURVE",
"511 407 CURVE",
"518 379 OFFCURVE",
"525 350 OFFCURVE",
"533 321 CURVE SMOOTH",
"562 210 OFFCURVE",
"593 37 OFFCURVE",
"604 -7 CURVE",
"720 7 LINE",
"868 407 OFFCURVE",
"947 553 OFFCURVE",
"969 601 CURVE",
"1025 615 LINE",
"1036 680 LINE",
"773 680 LINE"
);
}
);
width = 1000;
}
);
leftKerningGroup = V;
rightKerningGroup = V;
unicode = 0057;
},
{
color = 8;
glyphname = X;
lastChange = "2018-04-01 20:21:08 +0000";
layers = (
{
layerId = "71FD7A9F-05F5-4D76-8D4F-547475A05E4C";
paths = (
{
closed = 1;
nodes = (
"313 328 LINE",
"372 214 OFFCURVE",
"404 163 OFFCURVE",
"427 119 CURVE SMOOTH",
"447 80 OFFCURVE",
"470 59 OFFCURVE",
"489 56 CURVE",
"378 45 LINE",
"370 0 LINE",
"628 0 LINE",
"636 45 LINE",
"570 56 LINE",
"509 154 OFFCURVE",
"459 232 OFFCURVE",
"388 353 CURVE"
);
},
{
closed = 1;
nodes = (
"478 551 OFFCURVE",
"394 428 OFFCURVE",
"334 352 CURVE",
"381 327 LINE",
"450 420 OFFCURVE",
"573 593 OFFCURVE",
"601 624 CURVE",
"673 635 LINE",
"681 680 LINE",
"446 680 LINE",
"437 635 LINE",
"523 625 LINE"
);
},
{
closed = 1;
nodes = (
"182 113 OFFCURVE",
"298 280 OFFCURVE",
"332 326 CURVE",
"292 363 LINE",
"232 275 OFFCURVE",
"101 94 OFFCURVE",
"60 58 CURVE",
"-17 45 LINE",
"-25 0 LINE",
"216 0 LINE",
"224 46 LINE",
"148 55 LINE"
);
},
{
closed = 1;
nodes = (
"376 341 LINE",
"329 418 OFFCURVE",
"244 570 OFFCURVE",
"216 624 CURVE",
"304 635 LINE",
"312 680 LINE",
"54 680 LINE",
"45 635 LINE",
"109 625 LINE",
"161 546 OFFCURVE",
"259 375 OFFCURVE",
"298 318 CURVE"
);
}
);
width = 656;
},
{
background = {
paths = (
{
closed = 1;
nodes = (
"374 352 LINE",
"382 272 OFFCURVE",
"462 52 OFFCURVE",
"489 32 CURVE SMOOTH",
"498 25 OFFCURVE",
"570 -1 OFFCURVE",
"623 -1 CURVE",
"658 7 OFFCURVE",
"685 25 OFFCURVE",
"690 28 CURVE",
"685 74 LINE",
"665 66 OFFCURVE",
"651 65 OFFCURVE",
"640 63 CURVE",
"587 119 OFFCURVE",
"484 326 OFFCURVE",
"460 425 CURVE"
);
},
{
closed = 1;
nodes = (
"142 700 LINE",
"134 653 LINE",
"180 644 LINE",
"191 619 OFFCURVE",
"183 487 OFFCURVE",
"178 427 CURVE SMOOTH",
"166 292 OFFCURVE",
"139 104 OFFCURVE",
"142 88 CURVE SMOOTH",
"143 79 OFFCURVE",
"151 62 OFFCURVE",
"189 50 CURVE",
"82 50 LINE",
"78 0 LINE",
"359 0 LINE",
"366 47 LINE",
"310 55 LINE",
"275 114 OFFCURVE",
"294 286 OFFCURVE",
"305 408 CURVE SMOOTH",
"315 521 OFFCURVE",
"324 598 OFFCURVE",
"336 620 CURVE SMOOTH",
"348 640 OFFCURVE",
"365 648 OFFCURVE",
"388 650 CURVE",
"392 699 LINE"
);
},
{
closed = 1;
nodes = (
"511 584 OFFCURVE",
"365 400 OFFCURVE",
"286 312 CURVE",
"284 203 LINE",
"432 372 LINE",
"511 465 OFFCURVE",
"613 586 OFFCURVE",
"641 615 CURVE SMOOTH",
"665 639 OFFCURVE",
"689 650 OFFCURVE",
"716 650 CURVE",
"720 700 LINE",
"498 700 LINE",
"490 651 LINE",
"540 642 LINE"
);
}
);
};
layerId = "977FCFA9-45AC-4A33-B2D7-4D17E6BBF8E0";
paths = (
{
closed = 1;
nodes = (
"318 328 LINE",
"377 214 OFFCURVE",
"393 181 OFFCURVE",
"416 137 CURVE SMOOTH",
"437 98 OFFCURVE",
"459 77 OFFCURVE",
"479 74 CURVE",
"362 64 LINE",
"353 0 LINE",
"690 0 LINE",
"699 66 LINE",
"629 77 LINE",
"568 175 OFFCURVE",
"523 246 OFFCURVE",
"453 367 CURVE"
);
},
{
closed = 1;
nodes = (
"467 531 OFFCURVE",
"395 428 OFFCURVE",
"335 352 CURVE",
"432 327 LINE",
"501 420 OFFCURVE",
"622 573 OFFCURVE",
"649 604 CURVE",
"720 617 LINE",
"731 680 LINE",
"443 680 LINE",
"432 615 LINE",
"512 605 LINE"
);
},
{
closed = 1;
nodes = (
"259 132 OFFCURVE",
"359 280 OFFCURVE",
"393 326 CURVE",
"303 363 LINE",
"243 275 OFFCURVE",
"110 111 OFFCURVE",
"70 75 CURVE",
"-4 65 LINE",
"-13 0 LINE",
"277 0 LINE",
"287 65 LINE",
"225 74 LINE"
);
},
{
closed = 1;
nodes = (
"437 341 LINE",
"390 418 OFFCURVE",
"315 551 OFFCURVE",
"286 605 CURVE",
"365 615 LINE",
"375 680 LINE",
"60 680 LINE",
"49 615 LINE",
"112 605 LINE",
"165 526 OFFCURVE",
"250 375 OFFCURVE",
"289 318 CURVE"
);
}
);
width = 727;
}
);
leftKerningGroup = X;
rightKerningGroup = X;
unicode = 0058;
},
{
color = 8;
glyphname = Y;
lastChange = "2018-04-01 20:21:08 +0000";
layers = (
{
anchors = (
{
name = bottom;
position = "{274, 0}";
},
{
name = top;
position = "{345, 680}";
},
{
name = topleft;
position = "{51, 680}";
}
);
layerId = "71FD7A9F-05F5-4D76-8D4F-547475A05E4C";
paths = (
{
closed = 1;
nodes = (
"486 568 OFFCURVE",
"386 398 OFFCURVE",
"322 296 CURVE",
"349 238 LINE",
"397 331 OFFCURVE",
"565 591 OFFCURVE",
"590 624 CURVE",
"651 635 LINE",
"659 680 LINE",
"436 680 LINE",
"428 635 LINE",
"513 626 LINE"
);
},
{
closed = 1;
nodes = (
"337 301 LINE",
"302 394 OFFCURVE",
"202 606 OFFCURVE",
"195 626 CURVE",
"282 635 LINE",
"289 680 LINE",
"50 680 LINE",
"42 635 LINE",
"98 626 LINE",
"148 519 OFFCURVE",
"195 427 OFFCURVE",
"279 244 CURVE"
);
},
{
closed = 1;
nodes = (
"341 102 OFFCURVE",
"357 235 OFFCURVE",
"365 313 CURVE",
"276 297 LINE",
"268 188 OFFCURVE",
"263 147 OFFCURVE",
"259 96 CURVE SMOOTH",
"257 73 OFFCURVE",
"269 64 OFFCURVE",
"297 55 CURVE",
"174 45 LINE",
"167 0 LINE",
"431 0 LINE",
"441 45 LINE",
"359 55 LINE"
);
}
);
width = 613;
},
{
anchors = (
{
name = bottom;
position = "{283, 0}";
},
{
name = top;
position = "{392, 680}";
},
{
name = topleft;
position = "{135, 700}";
}
);
background = {
paths = (
{
closed = 1;
nodes = (
"327 341 LINE",
"364 247 OFFCURVE",
"410 130 OFFCURVE",
"432 82 CURVE SMOOTH",
"437 71 OFFCURVE",
"449 59 OFFCURVE",
"472 49 CURVE",
"392 49 LINE",
"387 0 LINE",
"653 0 LINE",
"658 47 LINE",
"611 55 LINE",
"543 158 OFFCURVE",
"468 318 OFFCURVE",
"426 403 CURVE"
);
},
{
closed = 1;
nodes = (
"505 562 OFFCURVE",
"422 446 OFFCURVE",
"380 396 CURVE",
"415 320 LINE",
"483 413 OFFCURVE",
"609 586 OFFCURVE",
"638 615 CURVE SMOOTH",
"662 639 OFFCURVE",
"686 650 OFFCURVE",
"713 650 CURVE",
"718 700 LINE",
"484 700 LINE",
"479 653 LINE",
"533 645 LINE"
);
},
{
closed = 1;
nodes = (
"262 113 OFFCURVE",
"351 257 OFFCURVE",
"382 307 CURVE",
"333 361 LINE",
"275 268 OFFCURVE",
"162 112 OFFCURVE",
"131 85 CURVE SMOOTH",
"103 61 OFFCURVE",
"79 50 OFFCURVE",
"52 50 CURVE",
"47 0 LINE",
"270 0 LINE",
"275 47 LINE",
"228 55 LINE"
);
},
{
closed = 1;
nodes = (
"419 394 LINE",
"378 478 OFFCURVE",
"356 521 OFFCURVE",
"337 574 CURVE SMOOTH",
"324 610 OFFCURVE",
"310 651 OFFCURVE",
"369 651 CURVE",
"374 700 LINE",
"117 700 LINE",
"112 653 LINE",
"159 643 LINE",
"232 505 OFFCURVE",
"287 388 OFFCURVE",
"318 321 CURVE"
);
}
);
};
layerId = "977FCFA9-45AC-4A33-B2D7-4D17E6BBF8E0";
paths = (
{
closed = 1;
nodes = (
"480 548 OFFCURVE",
"398 375 OFFCURVE",
"310 258 CURVE",
"378 202 LINE",
"426 295 OFFCURVE",
"591 570 OFFCURVE",
"616 603 CURVE",
"691 615 LINE",
"701 680 LINE",
"434 680 LINE",
"423 615 LINE",
"508 606 LINE"
);
},
{
closed = 1;
nodes = (
"394 328 LINE",
"354 418 OFFCURVE",
"279 586 OFFCURVE",
"273 606 CURVE",
"343 617 LINE",
"354 680 LINE",
"62 680 LINE",
"50 616 LINE",
"108 605 LINE",
"209 404 OFFCURVE",
"251 327 OFFCURVE",
"297 214 CURVE"
);
},
{
closed = 1;
nodes = (
"403 117 OFFCURVE",
"412 232 OFFCURVE",
"420 310 CURVE",
"268 294 LINE",
"254 185 OFFCURVE",
"254 203 OFFCURVE",
"247 123 CURVE SMOOTH",
"246 103 OFFCURVE",
"258 85 OFFCURVE",
"286 76 CURVE",
"167 66 LINE",
"158 0 LINE",
"490 0 LINE",
"501 66 LINE",
"429 76 LINE"
);
}
);
width = 665;
}
);
leftKerningGroup = V;
rightKerningGroup = V;
unicode = 0059;
},
{
color = 8;
glyphname = Z;
lastChange = "2018-04-01 20:21:10 +0000";
layers = (
{
anchors = (
{
name = bottom;
position = "{231, 0}";
},
{
name = top;
position = "{302, 680}";
}
);
layerId = "71FD7A9F-05F5-4D76-8D4F-547475A05E4C";
paths = (
{
closed = 1;
nodes = (
"363 678 OFFCURVE",
"189 678 OFFCURVE",
"58 685 CURVE",
"44 539 LINE",
"86 533 LINE",
"123 621 LINE",
"166 627 OFFCURVE",
"361 629 OFFCURVE",
"415 628 CURVE",
"380 570 OFFCURVE",
"276 423 OFFCURVE",
"192 308 CURVE SMOOTH",
"95 175 OFFCURVE",
"7 53 OFFCURVE",
"-21 42 CURVE",
"-11 0 LINE",
"145 5 OFFCURVE",
"327 0 OFFCURVE",
"471 0 CURVE",
"503 150 LINE",
"458 154 LINE",
"415 68 LINE",
"346 55 OFFCURVE",
"215 53 OFFCURVE",
"103 53 CURVE",
"143 117 OFFCURVE",
"221 228 OFFCURVE",
"315 360 CURVE SMOOTH",
"397 476 OFFCURVE",
"495 620 OFFCURVE",
"533 640 CURVE",
"523 683 LINE"
);
}
);
width = 512;
},
{
anchors = (
{
name = bottom;
position = "{203, 0}";
},
{
name = top;
position = "{310, 680}";
}
);
background = {
components = (
{
name = T;
transform = "{1, 0, 0, 1, 6, 0}";
}
);
};
guideLines = (
{
position = "{431, 746}";
},
{
position = "{418, 865}";
}
);
layerId = "977FCFA9-45AC-4A33-B2D7-4D17E6BBF8E0";
paths = (
{
closed = 1;
nodes = (
"420 681 OFFCURVE",
"243 681 OFFCURVE",
"77 688 CURVE",
"61 494 LINE",
"121 486 LINE",
"155 574 LINE",
"209 585 OFFCURVE",
"305 591 OFFCURVE",
"382 589 CURVE",
"351 531 OFFCURVE",
"276 422 OFFCURVE",
"197 308 CURVE SMOOTH",
"104 173 OFFCURVE",
"20 76 OFFCURVE",
"-8 65 CURVE",
"11 0 LINE",
"166 5 OFFCURVE",
"384 2 OFFCURVE",
"526 -1 CURVE",
"566 194 LINE",
"498 201 LINE",
"452 109 LINE",
"383 96 OFFCURVE",
"321 90 OFFCURVE",
"213 92 CURVE",
"251 156 OFFCURVE",
"301 226 OFFCURVE",
"386 359 CURVE SMOOTH",
"462 479 OFFCURVE",
"557 600 OFFCURVE",
"591 617 CURVE",
"577 686 LINE"
);
}
);
width = 581;
}
);
leftKerningGroup = X;
rightKerningGroup = X;
unicode = 005A;
},
{
color = 8;
glyphname = Z.ss01;
lastChange = "2017-09-10 18:25:38 +0000";
layers = (
{
layerId = "71FD7A9F-05F5-4D76-8D4F-547475A05E4C";
paths = (
{
closed = 1;
nodes = (
"389 678 OFFCURVE",
"252 679 OFFCURVE",
"85 685 CURVE",
"67 520 LINE",
"110 514 LINE",
"125 556 OFFCURVE",
"133 571 OFFCURVE",
"143 598 CURVE",
"187 604 OFFCURVE",
"385 606 OFFCURVE",
"440 605 CURVE",
"404 547 OFFCURVE",
"315 423 OFFCURVE",
"233 317 CURVE SMOOTH",
"131 185 OFFCURVE",
"22 53 OFFCURVE",
"-6 42 CURVE",
"4 0 LINE",
"159 5 OFFCURVE",
"342 0 OFFCURVE",
"486 0 CURVE",
"519 168 LINE",
"475 172 LINE",
"433 91 LINE",
"364 78 OFFCURVE",
"238 76 OFFCURVE",
"126 76 CURVE",
"166 140 OFFCURVE",
"224 224 OFFCURVE",
"328 357 CURVE SMOOTH",
"416 470 OFFCURVE",
"520 620 OFFCURVE",
"559 640 CURVE",
"549 683 LINE"
);
},
{
closed = 1;
nodes = (
"127 316 LINE",
"224 319 OFFCURVE",
"323 319 OFFCURVE",
"422 316 CURVE",
"432 324 LINE",
"440 373 LINE",
"340 371 OFFCURVE",
"241 371 OFFCURVE",
"145 373 CURVE",
"135 365 LINE"
);
}
);
width = 542;
},
{
anchors = (
{
name = bottom;
position = "{202, 0}";
},
{
name = top;
position = "{317, 656}";
}
);
background = {
components = (
{
name = T;
transform = "{1, 0, 0, 1, 17, 0}";
}
);
};
layerId = "977FCFA9-45AC-4A33-B2D7-4D17E6BBF8E0";
paths = (
{
closed = 1;
nodes = (
"428 681 OFFCURVE",
"251 681 OFFCURVE",
"85 688 CURVE",
"58 445 LINE",
"118 437 LINE",
"154 525 LINE",
"208 536 OFFCURVE",
"322 542 OFFCURVE",
"399 540 CURVE",
"367 482 OFFCURVE",
"318 415 OFFCURVE",
"236 312 CURVE SMOOTH",
"95 133 OFFCURVE",
"21 76 OFFCURVE",
"-8 65 CURVE",
"7 0 LINE",
"162 5 OFFCURVE",
"380 2 OFFCURVE",
"522 -1 CURVE",
"573 230 LINE",
"504 237 LINE",
"457 145 LINE",
"387 132 OFFCURVE",
"319 129 OFFCURVE",
"210 131 CURVE",
"263 203 OFFCURVE",
"294 244 OFFCURVE",
"393 377 CURVE SMOOTH",
"482 496 OFFCURVE",
"564 600 OFFCURVE",
"598 617 CURVE",
"585 686 LINE"
);
},
{
closed = 1;
nodes = (
"143 301 LINE",
"243 307 OFFCURVE",
"361 307 OFFCURVE",
"461 304 CURVE",
"476 316 LINE",
"488 387 LINE",
"389 384 OFFCURVE",
"271 387 OFFCURVE",
"171 387 CURVE",
"157 375 LINE"
);
}
);
width = 584;
}
);
leftKerningGroup = X;
leftMetricsKey = Z;
rightKerningGroup = X;
rightMetricsKey = Z;
},
{
color = 1;
glyphname = a;
lastChange = "2018-04-01 20:39:10 +0000";
layers = (
{
anchors = (
{
name = bottom;
position = "{215, 0}";
},
{
name = ogonek;
position = "{351, 2}";
},
{
name = top;
position = "{282, 508}";
}
);
background = {
components = (
{
name = n;
transform = "{-1, 0, 0, -1, 511, 483}";
}
);
};
components = (
{
name = _part.bowl;
transform = "{-1, 0, -0.0524, -1, 479, 476}";
}
);
guideLines = (
{
angle = 84;
position = "{217, 57}";
},
{
position = "{427, 715}";
},
{
position = "{-112, 250}";
}
);
layerId = "71FD7A9F-05F5-4D76-8D4F-547475A05E4C";
paths = (
{
closed = 1;
nodes = (
"362 274 LINE",
"307 58 OFFCURVE",
"301 16 OFFCURVE",
"323 -5 CURVE",
"369 1 OFFCURVE",
"443 21 OFFCURVE",
"477 39 CURVE",
"470 80 LINE",
"398 71 LINE",
"388 115 OFFCURVE",
"413 295 OFFCURVE",
"448 481 CURVE",
"439 489 OFFCURVE",
"417 494 OFFCURVE",
"401 492 CURVE",
"368 403 LINE",
"338 281 LINE"
);
}
);
width = 510;
},
{
anchors = (
{
name = bottom;
position = "{275, 0}";
},
{
name = ogonek;
position = "{482, 10}";
},
{
name = top;
position = "{317, 480}";
}
);
background = {
components = (
{
name = n;
transform = "{-1, 0, 0, -1, 560, 483}";
}
);
};
components = (
{
name = _part.bowl;
piece = {
"b/q?" = 1;
};
transform = "{-1, 0, 0, -1, 462, 477}";
}
);
guideLines = (
{
angle = -20;
position = "{484, 503}";
},
{
position = "{252, 262}";
}
);
layerId = "977FCFA9-45AC-4A33-B2D7-4D17E6BBF8E0";
paths = (
{
closed = 1;
nodes = (
"483 122 LINE",
"480 177 OFFCURVE",
"510 390 OFFCURVE",
"530 500 CURVE",
"503 511 OFFCURVE",
"474 513 OFFCURVE",
"446 512 CURVE",
"272 195 LINE",
"341 191 LINE",
"320 95 OFFCURVE",
"305 30 OFFCURVE",
"333 -7 CURVE",
"394 -1 OFFCURVE",
"481 10 OFFCURVE",
"542 30 CURVE",
"543 56 OFFCURVE",
"543 101 OFFCURVE",
"538 126 CURVE"
);
}
);
width = 569;
}
);
leftKerningGroup = o;
rightKerningGroup = i;
unicode = 0061;
},
{
glyphname = aogonek;
lastChange = "2018-04-01 20:16:59 +0000";
layers = (
{
color = 1;
components = (
{
alignment = -1;
name = a;
},
{
alignment = -1;
name = ogonekcomb;
transform = "{1, 0, 0, 1, -78, -8}";
}
);
layerId = "71FD7A9F-05F5-4D76-8D4F-547475A05E4C";
width = 481;
},
{
anchors = (
{
name = _ogonek;
position = "{434, 10}";
}
);
components = (
{
name = a;
}
);
layerId = "977FCFA9-45AC-4A33-B2D7-4D17E6BBF8E0";
paths = (
{
closed = 1;
nodes = (
"279 -267 OFFCURVE",
"408 -257 OFFCURVE",
"483 -202 CURVE",
"478 -146 LINE",
"428 -181 OFFCURVE",
"353 -169 OFFCURVE",
"356 -110 CURVE SMOOTH",
"359 -59 OFFCURVE",
"401 -5 OFFCURVE",
"453 18 CURVE",
"434 44 LINE",
"330 23 OFFCURVE",
"186 -102 OFFCURVE",
"240 -198 CURVE SMOOTH"
);
}
);
width = 515;
}
);
leftKerningGroup = o;
rightKerningGroup = i;
unicode = 0105;
},
{
glyphname = ae;
lastChange = "2017-09-10 18:57:27 +0000";
layers = (
{
anchors = (
{
name = bottom;
position = "{182, 0}";
},
{
name = ogonek;
position = "{347, 10}";
},
{
name = top;
position = "{232, 480}";
}
);
components = (
{
alignment = -1;
name = e;
transform = "{1, 0, 0, 1, 281, 0}";
},
{
name = _part.bowl;
transform = "{-1, 0, 0, -1, 461, 476}";
}
);
layerId = "71FD7A9F-05F5-4D76-8D4F-547475A05E4C";
width = 655;
},
{
anchors = (
{
name = bottom;
position = "{446, 0}";
},
{
name = ogonek;
position = "{611, 10}";
},
{
name = top;
position = "{496, 480}";
}
);
background = {
paths = (
{
closed = 1;
nodes = (
"345 369 OFFCURVE",
"240 386 OFFCURVE",
"179 382 CURVE",
"197 439 LINE",
"235 410 LINE",
"175 377 OFFCURVE",
"158 306 OFFCURVE",
"155 237 CURVE SMOOTH",
"152 170 OFFCURVE",
"170 109 OFFCURVE",
"228 106 CURVE",
"204 78 LINE",
"164 99 LINE",
"194 99 OFFCURVE",
"320 213 OFFCURVE",
"378 346 CURVE"
);
},
{
closed = 1;
nodes = (
"434 359 LINE",
"348 156 OFFCURVE",
"250 36 OFFCURVE",
"193 -5 CURVE",
"59 -9 OFFCURVE",
"4 112 OFFCURVE",
"13 231 CURVE SMOOTH",
"21 342 OFFCURVE",
"115 476 OFFCURVE",
"244 484 CURVE",
"301 479 OFFCURVE",
"439 451 OFFCURVE",
"475 414 CURVE"
);
}
);
};
components = (
{
name = e;
},
{
name = _part.bowl;
piece = {
"b/q?" = 1;
};
transform = "{-1, 0, 0, -1, 462, 480}";
}
);
layerId = "977FCFA9-45AC-4A33-B2D7-4D17E6BBF8E0";
width = 503;
}
);
leftKerningGroup = o;
leftMetricsKey = a;
rightKerningGroup = o;
rightMetricsKey = e;
unicode = 00E6;
},
{
color = 1;
glyphname = b;
lastChange = "2018-04-01 20:39:09 +0000";
layers = (
{
anchors = (
{
name = bottom;
position = "{208, 0}";
},
{
name = top;
position = "{258, 480}";
}
);
background = {
components = (
{
name = p;
transform = "{1, 0, 0, 1, -17, 6}";
}
);
};
components = (
{
name = _part.bowl;
piece = {
"b/q?" = 1;
};
transform = "{1, 0, 0, 1, 37, 5}";
}
);
guideLines = (
{
angle = -10.1326;
position = "{179, 724}";
},
{
angle = -20;
position = "{17, -2}";
},
{
position = "{1129, 137}";
},
{
position = "{1841, 225}";
}
);
layerId = "71FD7A9F-05F5-4D76-8D4F-547475A05E4C";
paths = (
{
closed = 1;
nodes = (
"120 89 LINE",
"137 184 LINE",
"123 188 LINE",
"153 375 OFFCURVE",
"201 667 OFFCURVE",
"211 738 CURVE",
"189 745 OFFCURVE",
"151 737 OFFCURVE",
"125 730 CURVE",
"122 666 OFFCURVE",
"117 607 OFFCURVE",
"106 491 CURVE SMOOTH",
"87 292 OFFCURVE",
"66 148 OFFCURVE",
"50 35 CURVE"
);
}
);
width = 486;
},
{
anchors = (
{
name = bottom;
position = "{221, 0}";
},
{
name = top;
position = "{297, 740}";
}
);
background = {
components = (
{
name = h;
transform = "{1, 0, 0, 1, -54, 0}";
}
);
};
components = (
{
name = _part.bowl;
piece = {
"b/q?" = 1;
};
transform = "{1, 0, 0, 1, 39, 5}";
}
);
guideLines = (
{
angle = -12;
position = "{191, 724}";
},
{
angle = -20;
position = "{29, -2}";
},
{
position = "{-364, 189}";
},
{
position = "{713, 276}";
}
);
layerId = "977FCFA9-45AC-4A33-B2D7-4D17E6BBF8E0";
paths = (
{
closed = 1;
nodes = (
"139 119 LINE",
"176 286 LINE",
"158 287 LINE",
"211 492 OFFCURVE",
"238 602 OFFCURVE",
"272 740 CURVE",
"200 751 OFFCURVE",
"30 746 OFFCURVE",
"17 739 CURVE",
"9 706 OFFCURVE",
"4 672 OFFCURVE",
"4 635 CURVE",
"57 625 LINE",
"59 606 OFFCURVE",
"57 547 OFFCURVE",
"43 426 CURVE SMOOTH",
"20 225 OFFCURVE",
"12 169 OFFCURVE",
"-9 43 CURVE"
);
}
);
width = 500;
}
);
leftKerningGroup = l;
rightKerningGroup = o;
unicode = 0062;
},
{
color = 1;
glyphname = c;
lastChange = "2018-04-01 20:39:09 +0000";
layers = (
{
anchors = (
{
name = bottom;
position = "{263, 0}";
},
{
name = top;
position = "{240, 508}";
}
);
background = {
anchors = (
{
name = bottom;
position = "{204, 0}";
},
{
name = ogonek;
position = "{351, 10}";
},
{
name = top;
position = "{254, 480}";
}
);
components = (
{
name = e;
transform = "{1, 0, 0, 1, 4, 0}";
}
);
};
guideLines = (
{
position = "{-30, -6}";
},
{
angle = 180;
position = "{-223, 489}";
},
{
position = "{-154, 169}";
}
);
layerId = "71FD7A9F-05F5-4D76-8D4F-547475A05E4C";
paths = (
{
closed = 1;
nodes = (
"250 431 OFFCURVE",
"284 425 OFFCURVE",
"323 399 CURVE",
"342 405 LINE",
"364 468 LINE",
"347 480 OFFCURVE",
"288 502 OFFCURVE",
"211 478 CURVE SMOOTH",
"160 462 OFFCURVE",
"121 427 OFFCURVE",
"93 383 CURVE SMOOTH",
"61 332 OFFCURVE",
"44 268 OFFCURVE",
"42 208 CURVE SMOOTH",
"40 137 OFFCURVE",
"50 70 OFFCURVE",
"90 32 CURVE SMOOTH",
"115 8 OFFCURVE",
"146 -6 OFFCURVE",
"189 -6 CURVE",
"225 -3 OFFCURVE",
"267 6 OFFCURVE",
"330 31 CURVE",
"329 46 OFFCURVE",
"326 61 OFFCURVE",
"321 74 CURVE",
"271 60 OFFCURVE",
"246 56 OFFCURVE",
"215 52 CURVE",
"166 57 OFFCURVE",
"140 91 OFFCURVE",
"127 140 CURVE SMOOTH",
"100 242 OFFCURVE",
"131 394 OFFCURVE",
"219 434 CURVE"
);
}
);
width = 358;
},
{
anchors = (
{
name = bottom;
position = "{213, 0}";
},
{
name = top;
position = "{245, 480}";
}
);
background = {
anchors = (
{
name = bottom;
position = "{215, 0}";
},
{
name = ogonek;
position = "{362, 10}";
},
{
name = top;
position = "{265, 480}";
}
);
paths = (
{
closed = 1;
nodes = (
"374 372 LINE",
"411 482 LINE",
"387 495 OFFCURVE",
"360 501 OFFCURVE",
"313 501 CURVE SMOOTH",
"125 501 OFFCURVE",
"38 368 OFFCURVE",
"24 237 CURVE SMOOTH",
"10 104 OFFCURVE",
"77 -18 OFFCURVE",
"235 -12 CURVE",
"279 -7 OFFCURVE",
"347 17 OFFCURVE",
"387 33 CURVE",
"390 59 OFFCURVE",
"390 91 OFFCURVE",
"383 118 CURVE",
"329 110 OFFCURVE",
"308 107 OFFCURVE",
"272 104 CURVE",
"223 108 OFFCURVE",
"205 169 OFFCURVE",
"206 220 CURVE SMOOTH",
"207 295 OFFCURVE",
"223 351 OFFCURVE",
"264 387 CURVE",
"291 387 OFFCURVE",
"314 377 OFFCURVE",
"338 359 CURVE"
);
}
);
};
guideLines = (
{
position = "{-12, 93}";
},
{
position = "{-1, 36}";
}
);
layerId = "977FCFA9-45AC-4A33-B2D7-4D17E6BBF8E0";
paths = (
{
closed = 1;
nodes = (
"396 359 LINE",
"421 482 LINE",
"397 495 OFFCURVE",
"360 501 OFFCURVE",
"313 501 CURVE SMOOTH",
"125 501 OFFCURVE",
"39 368 OFFCURVE",
"25 237 CURVE SMOOTH",
"11 104 OFFCURVE",
"77 -18 OFFCURVE",
"235 -12 CURVE",
"279 -7 OFFCURVE",
"337 17 OFFCURVE",
"377 33 CURVE",
"380 59 OFFCURVE",
"380 101 OFFCURVE",
"373 128 CURVE",
"263 114 LINE",
"218 127 OFFCURVE",
"205 188 OFFCURVE",
"206 239 CURVE SMOOTH",
"207 314 OFFCURVE",
"230 348 OFFCURVE",
"268 374 CURVE",
"295 369 OFFCURVE",
"331 359 OFFCURVE",
"360 346 CURVE"
);
}
);
width = 405;
}
);
leftKerningGroup = o;
rightKerningGroup = z;
unicode = 0063;
},
{
color = 1;
glyphname = d;
lastChange = "2018-04-01 20:39:09 +0000";
layers = (
{
anchors = (
{
name = bottom;
position = "{248, 0}";
},
{
name = center;
position = "{125, 260}";
},
{
name = top;
position = "{298, 480}";
},
{
name = topright;
position = "{529, 480}";
}
);
background = {
components = (
{
name = p;
transform = "{-1, 0, 0, -1, 506, 478}";
}
);
};
components = (
{
name = _part.bowl;
transform = "{-1, 0, 0, -1, 467, 478}";
}
);
guideLines = (
{
position = "{332, 410}";
},
{
angle = -18;
position = "{531, 111}";
},
{
position = "{1199, 374}";
}
);
layerId = "71FD7A9F-05F5-4D76-8D4F-547475A05E4C";
paths = (
{
closed = 1;
nodes = (
"382 1 OFFCURVE",
"445 17 OFFCURVE",
"490 38 CURVE",
"482 78 LINE",
"404 69 LINE",
"397 108 OFFCURVE",
"413 265 OFFCURVE",
"436 432 CURVE SMOOTH",
"448 521 OFFCURVE",
"468 629 OFFCURVE",
"485 735 CURVE",
"452 742 OFFCURVE",
"414 733 OFFCURVE",
"391 729 CURVE",
"390 620 OFFCURVE",
"383 513 OFFCURVE",
"356 302 CURVE",
"368 299 LINE",
"358 243 OFFCURVE",
"337 139 OFFCURVE",
"330 98 CURVE SMOOTH",
"324 63 OFFCURVE",
"314 16 OFFCURVE",
"334 -6 CURVE"
);
}
);
width = 516;
},
{
anchors = (
{
name = bottom;
position = "{217, 0}";
},
{
name = center;
position = "{387, 562}";
},
{
name = top;
position = "{293, 740}";
},
{
name = topright;
position = "{497, 480}";
}
);
background = {
anchors = (
{
name = bottom;
position = "{249, 0}";
},
{
name = center;
position = "{223, 240}";
},
{
name = ogonek;
position = "{462, 10}";
},
{
name = top;
position = "{276, 480}";
},
{
name = topright;
position = "{500, 480}";
}
);
components = (
{
name = p;
transform = "{-1, 0, 0, -1, 504, 483}";
}
);
};
components = (
{
name = _part.bowl;
transform = "{-1, 0, 0, -1, 460, 482}";
}
);
guideLines = (
{
angle = -18;
position = "{499, 111}";
},
{
position = "{1167, 374}";
},
{
position = "{855, 284}";
}
);
layerId = "977FCFA9-45AC-4A33-B2D7-4D17E6BBF8E0";
paths = (
{
closed = 1;
nodes = (
"335 191 LINE",
"314 95 OFFCURVE",
"299 30 OFFCURVE",
"327 -7 CURVE",
"388 -1 OFFCURVE",
"478 10 OFFCURVE",
"539 30 CURVE",
"540 56 OFFCURVE",
"540 101 OFFCURVE",
"535 126 CURVE",
"480 122 LINE",
"478 155 OFFCURVE",
"488 260 OFFCURVE",
"507 371 CURVE SMOOTH",
"537 549 OFFCURVE",
"576 703 OFFCURVE",
"582 740 CURVE",
"550 749 OFFCURVE",
"386 749 OFFCURVE",
"337 740 CURVE",
"327 707 OFFCURVE",
"324 672 OFFCURVE",
"325 635 CURVE",
"381 625 LINE",
"384 577 OFFCURVE",
"383 495 OFFCURVE",
"373 420 CURVE",
"316 195 LINE"
);
}
);
width = 563;
}
);
leftKerningGroup = o;
rightKerningGroup = i;
unicode = 0064;
},
{
glyphname = eth;
lastChange = "2017-05-20 11:10:27 +0000";
layers = (
{
components = (
{
name = d;
}
);
layerId = "71FD7A9F-05F5-4D76-8D4F-547475A05E4C";
paths = (
{
closed = 1;
nodes = (
"267 538 LINE",
"361 540 OFFCURVE",
"458 538 OFFCURVE",
"550 538 CURVE",
"554 598 LINE",
"459 596 OFFCURVE",
"368 596 OFFCURVE",
"273 598 CURVE"
);
}
);
width = 519;
},
{
components = (
{
name = d;
}
);
layerId = "977FCFA9-45AC-4A33-B2D7-4D17E6BBF8E0";
paths = (
{
closed = 1;
nodes = (
"267 538 LINE",
"361 540 OFFCURVE",
"456 540 OFFCURVE",
"550 538 CURVE",
"554 598 LINE",
"459 596 OFFCURVE",
"368 596 OFFCURVE",
"273 598 CURVE"
);
}
);
width = 524;
}
);
leftKerningGroup = o;
rightKerningGroup = i;
unicode = 00F0;
},
{
color = 1;
glyphname = e;
lastChange = "2018-04-01 20:39:09 +0000";
layers = (
{
anchors = (
{
name = bottom;
position = "{192, 0}";
},
{
name = ogonek;
position = "{339, 10}";
},
{
name = top;
position = "{242, 508}";
}
);
background = {
components = (
{
name = o;
transform = "{1, 0, 0, 1, -1, 0}";
}
);
};
guideLines = (
{
position = "{431, 715}";
}
);
layerId = "71FD7A9F-05F5-4D76-8D4F-547475A05E4C";
paths = (
{
closed = 1;
nodes = (
"117 323 OFFCURVE",
"152 399 OFFCURVE",
"221 435 CURVE",
"254 435 OFFCURVE",
"307 408 OFFCURVE",
"311 361 CURVE",
"296 319 OFFCURVE",
"240 283 OFFCURVE",
"94 245 CURVE",
"99 204 LINE",
"234 238 OFFCURVE",
"367 288 OFFCURVE",
"376 378 CURVE SMOOTH",
"383 443 OFFCURVE",
"342 487 OFFCURVE",
"269 487 CURVE SMOOTH",
"151 487 OFFCURVE",
"57 375 OFFCURVE",
"43 242 CURVE SMOOTH",
"29 112 OFFCURVE",
"61 -8 OFFCURVE",
"189 -6 CURVE",
"233 -1 OFFCURVE",
"309 20 OFFCURVE",
"349 36 CURVE",
"349 51 OFFCURVE",
"347 65 OFFCURVE",
"341 78 CURVE",
"289 65 OFFCURVE",
"253 57 OFFCURVE",
"213 52 CURVE",
"143 56 OFFCURVE",
"115 130 OFFCURVE",
"116 221 CURVE SMOOTH"
);
}
);
width = 400;
},
{
anchors = (
{
name = bottom;
position = "{232, 0}";
},
{
name = ogonek;
position = "{379, 10}";
},
{
name = top;
position = "{282, 480}";
}
);
background = {
components = (
{
name = c;
transform = "{1, 0, 0, 1, 49, 0}";
}
);
};
layerId = "977FCFA9-45AC-4A33-B2D7-4D17E6BBF8E0";
paths = (
{
closed = 1;
nodes = (
"169 164 LINE",
"294 197 OFFCURVE",
"447 252 OFFCURVE",
"457 348 CURVE SMOOTH",
"468 459 OFFCURVE",
"387 501 OFFCURVE",
"314 501 CURVE SMOOTH",
"126 501 OFFCURVE",
"39 368 OFFCURVE",
"25 237 CURVE SMOOTH",
"11 104 OFFCURVE",
"78 -18 OFFCURVE",
"236 -12 CURVE",
"280 -7 OFFCURVE",
"367 20 OFFCURVE",
"407 36 CURVE",
"410 62 OFFCURVE",
"409 100 OFFCURVE",
"402 127 CURVE",
"348 121 OFFCURVE",
"298 114 OFFCURVE",
"262 111 CURVE",
"213 124 OFFCURVE",
"206 169 OFFCURVE",
"207 220 CURVE SMOOTH",
"208 295 OFFCURVE",
"224 351 OFFCURVE",
"265 387 CURVE",
"292 387 OFFCURVE",
"314 355 OFFCURVE",
"319 321 CURVE",
"304 292 OFFCURVE",
"264 273 OFFCURVE",
"174 246 CURVE"
);
}
);
width = 461;
}
);
leftKerningGroup = o;
note = " p ";
rightKerningGroup = o;
unicode = 0065;
},
{
color = 1;
glyphname = f;
lastChange = "2018-04-01 20:39:09 +0000";
layers = (
{
anchors = (
{
name = bottom;
position = "{108, 0}";
},
{
name = top;
position = "{158, 480}";
}
);
background = {
components = (
{
name = n;
transform = "{1, 0, 0, 1, -14, 0}";
}
);
};
layerId = "71FD7A9F-05F5-4D76-8D4F-547475A05E4C";
paths = (
{
closed = 1;
nodes = (
"36 437 LINE",
"104 427 LINE",
"82 116 LINE",
"69 -48 OFFCURVE",
"64 -110 OFFCURVE",
"16 -162 CURVE",
"-30 -159 OFFCURVE",
"-65 -154 OFFCURVE",
"-93 -150 CURVE",
"-113 -156 LINE",
"-121 -215 LINE",
"-101 -241 OFFCURVE",
"-39 -241 OFFCURVE",
"5 -217 CURVE SMOOTH",
"100 -165 OFFCURVE",
"137 -76 OFFCURVE",
"151 84 CURVE SMOOTH",
"182 432 LINE",
"313 422 LINE",
"324 422 OFFCURVE",
"329 438 OFFCURVE",
"331 483 CURVE",
"187 480 LINE",
"202 610 OFFCURVE",
"215 646 OFFCURVE",
"275 676 CURVE",
"317 676 OFFCURVE",
"364 667 OFFCURVE",
"401 639 CURVE",
"419 645 LINE",
"422 670 OFFCURVE",
"425 694 OFFCURVE",
"428 719 CURVE",
"367 760 OFFCURVE",
"262 751 OFFCURVE",
"193 680 CURVE SMOOTH",
"151 636 OFFCURVE",
"125 572 OFFCURVE",
"114 480 CURVE",
"40 476 LINE"
);
}
);
width = 283;
},
{
anchors = (
{
name = bottom;
position = "{179, 260}";
},
{
name = top;
position = "{228, 740}";
}
);
background = {
components = (
{
name = t;
transform = "{1, 0, 0, 1, 1, 0}";
}
);
};
layerId = "977FCFA9-45AC-4A33-B2D7-4D17E6BBF8E0";
paths = (
{
closed = 1;
nodes = (
"21 445 OFFCURVE",
"18 412 OFFCURVE",
"21 378 CURVE",
"81 368 LINE",
"59 102 LINE SMOOTH",
"47 -39 OFFCURVE",
"37 -73 OFFCURVE",
"10 -100 CURVE",
"-36 -96 OFFCURVE",
"-61 -95 OFFCURVE",
"-95 -91 CURVE",
"-123 -104 LINE",
"-133 -217 LINE",
"-105 -267 OFFCURVE",
"33 -231 OFFCURVE",
"96 -172 CURVE SMOOTH",
"165 -108 OFFCURVE",
"208 -22 OFFCURVE",
"227 133 CURVE SMOOTH",
"256 365 LINE",
"330 359 LINE SMOOTH",
"337 358 OFFCURVE",
"351 362 OFFCURVE",
"359 483 CURVE",
"264 480 LINE",
"269 551 OFFCURVE",
"272 590 OFFCURVE",
"289 614 CURVE",
"325 619 OFFCURVE",
"361 610 OFFCURVE",
"400 578 CURVE",
"437 597 LINE",
"444 613 OFFCURVE",
"452 681 OFFCURVE",
"455 718 CURVE",
"423 767 OFFCURVE",
"299 767 OFFCURVE",
"201 698 CURVE SMOOTH",
"139 654 OFFCURVE",
"103 582 OFFCURVE",
"90 481 CURVE",
"31 479 LINE"
);
}
);
width = 345;
}
);
leftKerningGroup = f;
rightKerningGroup = f;
unicode = 0066;
},
{
color = 5;
glyphname = f.001;
lastChange = "2017-09-10 18:57:27 +0000";
layers = (
{
anchors = (
{
name = bottom;
position = "{110, 0}";
},
{
name = top;
position = "{160, 480}";
}
);
background = {
anchors = (
{
name = bottom;
position = "{96, 0}";
},
{
name = top;
position = "{146, 480}";
}
);
paths = (
{
closed = 1;
nodes = (
"24 437 LINE",
"92 427 LINE",
"68 116 LINE",
"55 -48 OFFCURVE",
"52 -110 OFFCURVE",
"4 -162 CURVE",
"-42 -159 OFFCURVE",
"-77 -154 OFFCURVE",
"-105 -150 CURVE",
"-125 -156 LINE",
"-133 -215 LINE",
"-113 -241 OFFCURVE",
"-51 -241 OFFCURVE",
"-7 -217 CURVE SMOOTH",
"88 -165 OFFCURVE",
"125 -76 OFFCURVE",
"139 84 CURVE SMOOTH",
"170 432 LINE",
"301 422 LINE",
"312 422 OFFCURVE",
"317 438 OFFCURVE",
"319 483 CURVE",
"175 480 LINE",
"190 610 OFFCURVE",
"195 628 OFFCURVE",
"227 672 CURVE",
"264 669 OFFCURVE",
"288 666 OFFCURVE",
"328 660 CURVE",
"348 669 LINE",
"351 694 OFFCURVE",
"353 704 OFFCURVE",
"356 729 CURVE",
"308 754 OFFCURVE",
"241 751 OFFCURVE",
"172 680 CURVE SMOOTH",
"130 636 OFFCURVE",
"111 572 OFFCURVE",
"100 480 CURVE",
"28 476 LINE"
);
}
);
};
guideLines = (
{
position = "{215, -230}";
}
);
layerId = "71FD7A9F-05F5-4D76-8D4F-547475A05E4C";
paths = (
{
closed = 1;
nodes = (
"24 437 LINE",
"92 427 LINE",
"68 116 LINE",
"55 -48 OFFCURVE",
"52 -110 OFFCURVE",
"4 -162 CURVE",
"-42 -159 OFFCURVE",
"-77 -154 OFFCURVE",
"-105 -150 CURVE",
"-125 -156 LINE",
"-133 -215 LINE",
"-113 -241 OFFCURVE",
"-51 -241 OFFCURVE",
"-7 -217 CURVE SMOOTH",
"88 -165 OFFCURVE",
"125 -76 OFFCURVE",
"139 84 CURVE SMOOTH",
"170 432 LINE",
"301 422 LINE",
"312 422 OFFCURVE",
"317 438 OFFCURVE",
"319 483 CURVE",
"175 480 LINE",
"190 610 OFFCURVE",
"195 628 OFFCURVE",
"227 672 CURVE",
"263 669 OFFCURVE",
"288 666 OFFCURVE",
"328 660 CURVE",
"348 669 LINE",
"351 694 OFFCURVE",
"353 704 OFFCURVE",
"356 729 CURVE",
"308 754 OFFCURVE",
"241 751 OFFCURVE",
"172 680 CURVE SMOOTH",
"130 636 OFFCURVE",
"111 572 OFFCURVE",
"100 480 CURVE",
"28 476 LINE"
);
}
);
width = 229;
},
{
anchors = (
{
name = bottom;
position = "{100, 0}";
},
{
name = top;
position = "{150, 480}";
}
);
background = {
paths = (
{
closed = 1;
nodes = (
"1 425 LINE",
"72 414 LINE",
"51 102 LINE SMOOTH",
"39 -73 OFFCURVE",
"36 -111 OFFCURVE",
"9 -138 CURVE",
"-37 -134 OFFCURVE",
"-64 -131 OFFCURVE",
"-98 -126 CURVE",
"-126 -139 LINE",
"-135 -217 LINE",
"-107 -267 OFFCURVE",
"-9 -251 OFFCURVE",
"54 -192 CURVE SMOOTH",
"123 -128 OFFCURVE",
"156 -61 OFFCURVE",
"171 94 CURVE SMOOTH",
"202 414 LINE",
"326 408 LINE SMOOTH",
"333 408 OFFCURVE",
"347 411 OFFCURVE",
"350 483 CURVE",
"208 480 LINE",
"220 589 OFFCURVE",
"222 616 OFFCURVE",
"250 647 CURVE",
"286 645 OFFCURVE",
"312 642 OFFCURVE",
"355 638 CURVE",
"387 655 LINE",
"391 684 OFFCURVE",
"394 703 OFFCURVE",
"398 740 CURVE",
"366 762 OFFCURVE",
"284 770 OFFCURVE",
"189 698 CURVE SMOOTH",
"127 651 OFFCURVE",
"94 582 OFFCURVE",
"81 481 CURVE",
"7 479 LINE"
);
}
);
};
layerId = "977FCFA9-45AC-4A33-B2D7-4D17E6BBF8E0";
paths = (
{
closed = 1;
nodes = (
"1 425 LINE",
"72 414 LINE",
"51 102 LINE SMOOTH",
"39 -73 OFFCURVE",
"36 -111 OFFCURVE",
"9 -138 CURVE",
"-37 -134 OFFCURVE",
"-64 -131 OFFCURVE",
"-98 -126 CURVE",
"-126 -139 LINE",
"-135 -217 LINE",
"-107 -267 OFFCURVE",
"-9 -251 OFFCURVE",
"54 -192 CURVE SMOOTH",
"123 -128 OFFCURVE",
"156 -61 OFFCURVE",
"171 94 CURVE SMOOTH",
"202 414 LINE",
"326 408 LINE SMOOTH",
"333 408 OFFCURVE",
"347 411 OFFCURVE",
"350 483 CURVE",
"208 480 LINE",
"220 589 OFFCURVE",
"222 616 OFFCURVE",
"250 647 CURVE",
"286 645 OFFCURVE",
"312 642 OFFCURVE",
"355 638 CURVE",
"387 655 LINE",
"391 684 OFFCURVE",
"394 703 OFFCURVE",
"398 740 CURVE",
"366 762 OFFCURVE",
"284 770 OFFCURVE",
"189 698 CURVE SMOOTH",
"127 651 OFFCURVE",
"94 582 OFFCURVE",
"81 481 CURVE",
"7 479 LINE"
);
}
);
width = 303;
}
);
leftKerningGroup = f;
leftMetricsKey = f;
rightKerningGroup = f;
},
{
color = 5;
glyphname = f.f;
lastChange = "2017-09-10 18:57:27 +0000";
layers = (
{
anchors = (
{
name = bottom;
position = "{142, 0}";
},
{
name = top;
position = "{192, 480}";
}
);
background = {
anchors = (
{
name = bottom;
position = "{96, 0}";
},
{
name = top;
position = "{146, 480}";
}
);
paths = (
{
closed = 1;
nodes = (
"269 739 OFFCURVE",
"185 672 CURVE SMOOTH",
"137 634 OFFCURVE",
"111 572 OFFCURVE",
"100 480 CURVE",
"28 476 LINE",
"24 437 LINE",
"92 427 LINE",
"85 349 OFFCURVE",
"77 231 OFFCURVE",
"68 116 CURVE SMOOTH",
"55 -48 OFFCURVE",
"52 -110 OFFCURVE",
"4 -162 CURVE",
"-42 -159 OFFCURVE",
"-77 -154 OFFCURVE",
"-105 -150 CURVE",
"-125 -156 LINE",
"-133 -215 LINE",
"-113 -241 OFFCURVE",
"-51 -241 OFFCURVE",
"-7 -217 CURVE SMOOTH",
"88 -165 OFFCURVE",
"125 -76 OFFCURVE",
"139 84 CURVE SMOOTH",
"170 432 LINE",
"214 430 OFFCURVE",
"357 426 OFFCURVE",
"375 426 CURVE SMOOTH",
"386 426 OFFCURVE",
"391 438 OFFCURVE",
"393 483 CURVE",
"175 480 LINE",
"190 610 OFFCURVE",
"213 644 OFFCURVE",
"250 665 CURVE",
"295 667 OFFCURVE",
"369 657 OFFCURVE",
"404 628 CURVE",
"447 681 LINE",
"398 730 OFFCURVE"
);
}
);
};
layerId = "71FD7A9F-05F5-4D76-8D4F-547475A05E4C";
paths = (
{
closed = 1;
nodes = (
"24 437 LINE",
"92 427 LINE",
"68 116 LINE",
"55 -48 OFFCURVE",
"52 -110 OFFCURVE",
"4 -162 CURVE",
"-42 -159 OFFCURVE",
"-77 -154 OFFCURVE",
"-105 -150 CURVE",
"-125 -156 LINE",
"-133 -215 LINE",
"-113 -241 OFFCURVE",
"-51 -241 OFFCURVE",
"-7 -217 CURVE SMOOTH",
"88 -165 OFFCURVE",
"125 -76 OFFCURVE",
"139 84 CURVE SMOOTH",
"170 432 LINE",
"375 426 LINE",
"386 426 OFFCURVE",
"391 438 OFFCURVE",
"393 483 CURVE",
"175 480 LINE",
"190 610 OFFCURVE",
"213 644 OFFCURVE",
"250 665 CURVE",
"295 667 OFFCURVE",
"369 657 OFFCURVE",
"404 628 CURVE",
"447 681 LINE",
"398 730 OFFCURVE",
"269 739 OFFCURVE",
"185 672 CURVE SMOOTH",
"137 634 OFFCURVE",
"111 572 OFFCURVE",
"100 480 CURVE",
"28 476 LINE"
);
}
);
width = 241;
},
{
anchors = (
{
name = bottom;
position = "{145, 0}";
}
);
background = {
anchors = (
{
name = bottom;
position = "{111, 0}";
},
{
name = top;
position = "{161, 480}";
}
);
paths = (
{
closed = 1;
nodes = (
"133 656 OFFCURVE",
"94 582 OFFCURVE",
"81 481 CURVE",
"-5 479 LINE",
"-11 425 LINE",
"72 414 LINE",
"51 102 LINE SMOOTH",
"39 -73 OFFCURVE",
"36 -111 OFFCURVE",
"9 -138 CURVE",
"-37 -134 OFFCURVE",
"-64 -131 OFFCURVE",
"-98 -126 CURVE",
"-126 -139 LINE",
"-135 -217 LINE",
"-107 -267 OFFCURVE",
"-9 -251 OFFCURVE",
"54 -192 CURVE SMOOTH",
"123 -128 OFFCURVE",
"156 -61 OFFCURVE",
"171 94 CURVE SMOOTH",
"202 414 LINE",
"326 408 LINE SMOOTH",
"333 408 OFFCURVE",
"347 411 OFFCURVE",
"350 483 CURVE",
"208 480 LINE",
"220 589 OFFCURVE",
"238 633 OFFCURVE",
"275 659 CURVE",
"328 667 OFFCURVE",
"416 636 OFFCURVE",
"449 592 CURVE",
"512 684 LINE",
"479 735 OFFCURVE",
"334 788 OFFCURVE",
"197 698 CURVE SMOOTH"
);
}
);
};
layerId = "977FCFA9-45AC-4A33-B2D7-4D17E6BBF8E0";
paths = (
{
closed = 1;
nodes = (
"-11 425 LINE",
"72 414 LINE",
"51 102 LINE SMOOTH",
"39 -73 OFFCURVE",
"36 -111 OFFCURVE",
"9 -138 CURVE",
"-37 -134 OFFCURVE",
"-64 -131 OFFCURVE",
"-98 -126 CURVE",
"-126 -139 LINE",
"-135 -217 LINE",
"-107 -267 OFFCURVE",
"-9 -251 OFFCURVE",
"54 -192 CURVE SMOOTH",
"123 -128 OFFCURVE",
"156 -61 OFFCURVE",
"171 94 CURVE SMOOTH",
"202 414 LINE",
"326 408 LINE SMOOTH",
"333 408 OFFCURVE",
"347 411 OFFCURVE",
"350 483 CURVE",
"208 480 LINE",
"220 589 OFFCURVE",
"238 633 OFFCURVE",
"275 659 CURVE",
"328 667 OFFCURVE",
"416 636 OFFCURVE",
"449 592 CURVE",
"512 684 LINE",
"479 735 OFFCURVE",
"334 788 OFFCURVE",
"197 698 CURVE SMOOTH",
"133 656 OFFCURVE",
"94 582 OFFCURVE",
"81 481 CURVE",
"-5 479 LINE"
);
}
);
width = 265;
}
);
leftMetricsKey = f;
},
{
color = 5;
glyphname = f.l;
lastChange = "2017-09-10 18:57:27 +0000";
layers = (
{
anchors = (
{
name = bottom;
position = "{99, 0}";
},
{
name = top;
position = "{149, 480}";
}
);
background = {
paths = (
{
closed = 1;
nodes = (
"262 746 OFFCURVE",
"193 691 CURVE SMOOTH",
"144 652 OFFCURVE",
"111 572 OFFCURVE",
"100 480 CURVE",
"28 476 LINE",
"24 437 LINE",
"92 427 LINE",
"85 349 OFFCURVE",
"77 231 OFFCURVE",
"68 116 CURVE SMOOTH",
"55 -48 OFFCURVE",
"52 -110 OFFCURVE",
"4 -162 CURVE",
"-42 -159 OFFCURVE",
"-77 -154 OFFCURVE",
"-105 -150 CURVE",
"-125 -156 LINE",
"-133 -215 LINE",
"-113 -241 OFFCURVE",
"-51 -241 OFFCURVE",
"-7 -217 CURVE SMOOTH",
"88 -165 OFFCURVE",
"125 -76 OFFCURVE",
"139 84 CURVE SMOOTH",
"170 432 LINE",
"214 430 OFFCURVE",
"283 423 OFFCURVE",
"301 423 CURVE SMOOTH",
"312 423 OFFCURVE",
"317 438 OFFCURVE",
"319 483 CURVE",
"175 480 LINE",
"190 644 OFFCURVE",
"225 659 OFFCURVE",
"262 680 CURVE",
"302 685 OFFCURVE",
"357 686 OFFCURVE",
"396 670 CURVE",
"468 741 LINE",
"344 763 OFFCURVE"
);
}
);
};
layerId = "71FD7A9F-05F5-4D76-8D4F-547475A05E4C";
paths = (
{
closed = 1;
nodes = (
"24 437 LINE",
"92 427 LINE",
"68 116 LINE",
"55 -48 OFFCURVE",
"52 -110 OFFCURVE",
"4 -162 CURVE",
"-42 -159 OFFCURVE",
"-77 -154 OFFCURVE",
"-105 -150 CURVE",
"-125 -156 LINE",
"-133 -215 LINE",
"-113 -241 OFFCURVE",
"-51 -241 OFFCURVE",
"-7 -217 CURVE SMOOTH",
"88 -165 OFFCURVE",
"125 -76 OFFCURVE",
"139 84 CURVE SMOOTH",
"170 432 LINE",
"301 423 LINE",
"312 423 OFFCURVE",
"317 438 OFFCURVE",
"319 483 CURVE",
"175 480 LINE",
"190 644 OFFCURVE",
"225 659 OFFCURVE",
"262 680 CURVE",
"302 685 OFFCURVE",
"357 686 OFFCURVE",
"396 670 CURVE",
"468 741 LINE",
"344 763 OFFCURVE",
"262 746 OFFCURVE",
"193 691 CURVE SMOOTH",
"144 652 OFFCURVE",
"111 572 OFFCURVE",
"100 480 CURVE",
"28 476 LINE"
);
}
);
width = 256;
},
{
anchors = (
{
name = bottom;
position = "{155, 0}";
},
{
name = top;
position = "{205, 480}";
}
);
background = {
paths = (
{
closed = 1;
nodes = (
"133 651 OFFCURVE",
"94 582 OFFCURVE",
"81 481 CURVE",
"-5 479 LINE",
"-11 425 LINE",
"72 414 LINE",
"51 102 LINE SMOOTH",
"39 -73 OFFCURVE",
"36 -111 OFFCURVE",
"9 -138 CURVE",
"-37 -134 OFFCURVE",
"-64 -131 OFFCURVE",
"-98 -126 CURVE",
"-126 -139 LINE",
"-135 -217 LINE",
"-107 -267 OFFCURVE",
"-9 -251 OFFCURVE",
"54 -192 CURVE SMOOTH",
"123 -128 OFFCURVE",
"156 -61 OFFCURVE",
"171 94 CURVE SMOOTH",
"202 414 LINE",
"326 408 LINE SMOOTH",
"333 408 OFFCURVE",
"347 411 OFFCURVE",
"350 483 CURVE",
"208 480 LINE",
"220 589 OFFCURVE",
"248 643 OFFCURVE",
"285 669 CURVE",
"338 677 OFFCURVE",
"398 669 OFFCURVE",
"445 642 CURVE",
"546 740 LINE",
"473 766 OFFCURVE",
"325 791 OFFCURVE",
"197 698 CURVE SMOOTH"
);
}
);
};
layerId = "977FCFA9-45AC-4A33-B2D7-4D17E6BBF8E0";
paths = (
{
closed = 1;
nodes = (
"-11 425 LINE",
"72 414 LINE",
"51 102 LINE SMOOTH",
"39 -73 OFFCURVE",
"36 -111 OFFCURVE",
"9 -138 CURVE",
"-37 -134 OFFCURVE",
"-64 -131 OFFCURVE",
"-98 -126 CURVE",
"-126 -139 LINE",
"-135 -217 LINE",
"-107 -267 OFFCURVE",
"-9 -251 OFFCURVE",
"54 -192 CURVE SMOOTH",
"123 -128 OFFCURVE",
"156 -61 OFFCURVE",
"171 94 CURVE SMOOTH",
"202 414 LINE",
"326 408 LINE SMOOTH",
"333 408 OFFCURVE",
"347 411 OFFCURVE",
"350 483 CURVE",
"208 480 LINE",
"220 589 OFFCURVE",
"248 643 OFFCURVE",
"285 669 CURVE",
"338 677 OFFCURVE",
"398 669 OFFCURVE",
"445 642 CURVE",
"546 740 LINE",
"473 766 OFFCURVE",
"325 791 OFFCURVE",
"197 698 CURVE SMOOTH",
"133 651 OFFCURVE",
"94 582 OFFCURVE",
"81 481 CURVE",
"-5 479 LINE"
);
}
);
width = 294;
}
);
leftKerningGroup = f;
leftMetricsKey = f;
rightKerningGroup = g;
},
{
color = 5;
glyphname = f.t;
lastChange = "2017-09-10 18:57:27 +0000";
layers = (
{
anchors = (
{
name = bottom;
position = "{212, 3}";
},
{
name = center;
position = "{237, 240}";
},
{
name = top;
position = "{258, 480}";
},
{
name = topright;
position = "{389, 480}";
}
);
background = {
anchors = (
{
name = bottom;
position = "{96, 0}";
},
{
name = top;
position = "{146, 480}";
}
);
paths = (
{
closed = 1;
nodes = (
"250 751 OFFCURVE",
"181 680 CURVE SMOOTH",
"139 636 OFFCURVE",
"111 572 OFFCURVE",
"100 480 CURVE",
"28 476 LINE",
"24 437 LINE",
"92 427 LINE",
"85 349 OFFCURVE",
"77 231 OFFCURVE",
"68 116 CURVE SMOOTH",
"55 -48 OFFCURVE",
"52 -110 OFFCURVE",
"4 -162 CURVE",
"-42 -159 OFFCURVE",
"-77 -154 OFFCURVE",
"-105 -150 CURVE",
"-125 -156 LINE",
"-133 -215 LINE",
"-113 -241 OFFCURVE",
"-51 -241 OFFCURVE",
"-7 -217 CURVE SMOOTH",
"88 -165 OFFCURVE",
"125 -76 OFFCURVE",
"139 84 CURVE SMOOTH",
"170 432 LINE",
"214 430 OFFCURVE",
"372 426 OFFCURVE",
"390 426 CURVE SMOOTH",
"401 426 OFFCURVE",
"406 438 OFFCURVE",
"408 483 CURVE",
"175 480 LINE",
"190 610 OFFCURVE",
"203 646 OFFCURVE",
"263 676 CURVE",
"305 676 OFFCURVE",
"352 667 OFFCURVE",
"389 639 CURVE",
"407 645 LINE",
"412 667 OFFCURVE",
"415 690 OFFCURVE",
"416 719 CURVE",
"355 760 OFFCURVE"
);
}
);
};
layerId = "71FD7A9F-05F5-4D76-8D4F-547475A05E4C";
paths = (
{
closed = 1;
nodes = (
"24 437 LINE",
"92 427 LINE",
"68 116 LINE",
"55 -48 OFFCURVE",
"52 -110 OFFCURVE",
"4 -162 CURVE",
"-42 -159 OFFCURVE",
"-77 -154 OFFCURVE",
"-105 -150 CURVE",
"-125 -156 LINE",
"-133 -215 LINE",
"-113 -241 OFFCURVE",
"-51 -241 OFFCURVE",
"-7 -217 CURVE SMOOTH",
"88 -165 OFFCURVE",
"125 -76 OFFCURVE",
"139 84 CURVE SMOOTH",
"170 432 LINE",
"390 426 LINE",
"401 426 OFFCURVE",
"406 438 OFFCURVE",
"408 483 CURVE",
"175 480 LINE",
"190 610 OFFCURVE",
"203 646 OFFCURVE",
"263 676 CURVE",
"305 676 OFFCURVE",
"353 667 OFFCURVE",
"390 639 CURVE",
"408 645 LINE",
"417 719 LINE",
"356 760 OFFCURVE",
"250 751 OFFCURVE",
"181 680 CURVE SMOOTH",
"139 636 OFFCURVE",
"111 572 OFFCURVE",
"100 480 CURVE",
"28 476 LINE"
);
}
);
width = 231;
},
{
anchors = (
{
name = bottom;
position = "{300, 3}";
},
{
name = center;
position = "{325, 240}";
},
{
name = top;
position = "{269, 483}";
},
{
name = topright;
position = "{477, 480}";
}
);
layerId = "977FCFA9-45AC-4A33-B2D7-4D17E6BBF8E0";
paths = (
{
closed = 1;
nodes = (
"-11 425 LINE",
"72 414 LINE",
"51 102 LINE SMOOTH",
"39 -73 OFFCURVE",
"36 -111 OFFCURVE",
"9 -138 CURVE",
"-37 -134 OFFCURVE",
"-64 -131 OFFCURVE",
"-98 -126 CURVE",
"-126 -139 LINE",
"-135 -217 LINE",
"-107 -267 OFFCURVE",
"-9 -251 OFFCURVE",
"54 -192 CURVE SMOOTH",
"123 -128 OFFCURVE",
"156 -61 OFFCURVE",
"171 94 CURVE SMOOTH",
"202 414 LINE",
"414 412 LINE SMOOTH",
"421 412 OFFCURVE",
"435 411 OFFCURVE",
"438 483 CURVE",
"208 480 LINE",
"220 589 OFFCURVE",
"233 626 OFFCURVE",
"270 652 CURVE",
"316 653 OFFCURVE",
"378 630 OFFCURVE",
"409 598 CURVE",
"446 617 LINE",
"452 651 OFFCURVE",
"456 681 OFFCURVE",
"458 718 CURVE",
"426 767 OFFCURVE",
"295 767 OFFCURVE",
"197 698 CURVE SMOOTH",
"135 654 OFFCURVE",
"94 582 OFFCURVE",
"81 481 CURVE",
"-5 479 LINE"
);
}
);
width = 297;
}
);
leftKerningGroup = f;
leftMetricsKey = f;
rightKerningGroup = t;
},
{
color = 1;
glyphname = g;
lastChange = "2018-04-01 20:39:10 +0000";
layers = (
{
background = {
components = (
{
name = a;
transform = "{1, 0, 0, 1, 14, 0}";
}
);
};
components = (
{
name = _part.bowl;
piece = {
"b/q?" = 1;
};
transform = "{-1, 0, 0, -0.98, 457, 477}";
}
);
guideLines = (
{
position = "{1883, 258}";
}
);
layerId = "977FCFA9-45AC-4A33-B2D7-4D17E6BBF8E0";
paths = (
{
closed = 1;
nodes = (
"217 -309 OFFCURVE",
"355 -213 CURVE SMOOTH",
"512 -104 OFFCURVE",
"478 108 OFFCURVE",
"490 234 CURVE SMOOTH",
"499 332 OFFCURVE",
"506 410 OFFCURVE",
"523 500 CURVE",
"514 506 OFFCURVE",
"465 515 OFFCURVE",
"439 512 CURVE",
"267 196 LINE",
"334 189 LINE",
"328 55 OFFCURVE",
"306 -57 OFFCURVE",
"267 -116 CURVE",
"232 -127 OFFCURVE",
"186 -127 OFFCURVE",
"154 -106 CURVE",
"193 -93 OFFCURVE",
"241 -25 OFFCURVE",
"255 11 CURVE",
"204 29 LINE",
"168 -20 OFFCURVE",
"59 -55 OFFCURVE",
"-38 -47 CURVE",
"-59 -132 LINE",
"-33 -260 OFFCURVE"
);
}
);
width = 554;
},
{
anchors = (
{
name = bottom;
position = "{199, 0}";
},
{
name = top;
position = "{256, 508}";
}
);
background = {
anchors = (
{
name = bottom;
position = "{210, 0}";
},
{
name = ogonek;
position = "{448, 10}";
},
{
name = top;
position = "{262, 480}";
}
);
components = (
{
name = a;
transform = "{1, 0, 0, 1, 18, 0}";
}
);
};
components = (
{
name = _part.bowl;
transform = "{-1, 0, -0.0178, -0.9803, 470, 476}";
}
);
guideLines = (
{
position = "{1267, 251}";
}
);
layerId = "71FD7A9F-05F5-4D76-8D4F-547475A05E4C";
paths = (
{
closed = 1;
nodes = (
"391 -90 OFFCURVE",
"390 -33 OFFCURVE",
"412 254 CURVE SMOOTH",
"418 338 OFFCURVE",
"429 404 OFFCURVE",
"446 481 CURVE",
"437 489 OFFCURVE",
"415 494 OFFCURVE",
"399 492 CURVE",
"332 281 LINE",
"358 276 LINE",
"328 46 OFFCURVE",
"309 -71 OFFCURVE",
"238 -150 CURVE",
"149 -182 OFFCURVE",
"44 -155 OFFCURVE",
"14 -106 CURVE",
"97 -98 OFFCURVE",
"157 -64 OFFCURVE",
"210 5 CURVE",
"180 17 LINE",
"102 -36 OFFCURVE",
"51 -64 OFFCURVE",
"-65 -65 CURVE",
"-76 -107 LINE",
"-26 -242 OFFCURVE",
"170 -287 OFFCURVE",
"285 -185 CURVE SMOOTH"
);
}
);
width = 493;
}
);
leftKerningGroup = o;
note = "this one too";
rightKerningGroup = g;
unicode = 0067;
},
{
color = 1;
glyphname = i;
lastChange = "2018-04-01 20:39:10 +0000";
layers = (
{
anchors = (
{
name = bottom;
position = "{109, 0}";
}
);
background = {
paths = (
{
closed = 1;
nodes = (
"204 461 OFFCURVE",
"138 479 OFFCURVE",
"90 479 CURVE",
"69 471 OFFCURVE",
"83 317 OFFCURVE",
"85 309 CURVE",
"75 270 OFFCURVE",
"54 159 OFFCURVE",
"51 112 CURVE SMOOTH",
"45 27 OFFCURVE",
"89 0 OFFCURVE",
"161 0 CURVE",
"200 8 OFFCURVE",
"221 21 OFFCURVE",
"233 30 CURVE",
"229 83 LINE",
"215 76 OFFCURVE",
"189 68 OFFCURVE",
"173 68 CURVE",
"158 122 OFFCURVE",
"201 379 OFFCURVE",
"218 444 CURVE"
);
}
);
};
color = 1;
components = (
{
alignment = -1;
name = idotless;
transform = "{1, 0, 0, 1, 5, 0}";
},
{
alignment = -1;
name = dotaccentcomb;
transform = "{1, 0, 0, 1, -157, 28}";
}
);
guideLines = (
{
angle = -20;
position = "{86, 30}";
},
{
position = "{423, 715}";
}
);
layerId = "71FD7A9F-05F5-4D76-8D4F-547475A05E4C";
width = 267;
},
{
anchors = (
{
name = bottom;
position = "{104, 0}";
}
);
background = {
components = (
{
name = n;
transform = "{1, 0, 0, 1, -273, 0}";
}
);
};
components = (
{
name = idotless;
},
{
name = dotaccentcomb;
transform = "{1, 0, 0, 1, -143, 21}";
}
);
guideLines = (
{
angle = -20;
position = "{81, 30}";
}
);
layerId = "977FCFA9-45AC-4A33-B2D7-4D17E6BBF8E0";
width = 301;
}
);
leftKerningGroup = i;
rightKerningGroup = i;
unicode = 0069;
},
{
glyphname = idotless;
lastChange = "2017-09-10 19:17:56 +0000";
layers = (
{
anchors = (
{
name = bottom;
position = "{135, 0}";
},
{
name = ogonek;
position = "{236, 10}";
},
{
name = top;
position = "{152, 508}";
}
);
background = {
components = (
{
name = n;
transform = "{1, 0, 0, 1, 2, 0}";
}
);
};
guideLines = (
{
position = "{418, 715}";
}
);
layerId = "71FD7A9F-05F5-4D76-8D4F-547475A05E4C";
paths = (
{
closed = 1;
nodes = (
"31 440 LINE",
"100 422 LINE",
"102 371 OFFCURVE",
"98 315 OFFCURVE",
"90 251 CURVE SMOOTH",
"66 59 OFFCURVE",
"59 16 OFFCURVE",
"82 -5 CURVE",
"107 -3 OFFCURVE",
"223 28 OFFCURVE",
"237 38 CURVE",
"231 80 LINE",
"152 70 LINE",
"138 99 OFFCURVE",
"141 151 OFFCURVE",
"164 312 CURVE SMOOTH",
"172 371 OFFCURVE",
"185 430 OFFCURVE",
"193 480 CURVE",
"148 486 OFFCURVE",
"56 482 OFFCURVE",
"35 476 CURVE"
);
}
);
width = 252;
},
{
anchors = (
{
name = bottom;
position = "{129, 0}";
},
{
name = ogonek;
position = "{230, 18}";
},
{
name = top;
position = "{176, 536}";
}
);
background = {
components = (
{
name = n;
transform = "{1, 0, 0, 1, -274, 0}";
}
);
};
layerId = "977FCFA9-45AC-4A33-B2D7-4D17E6BBF8E0";
paths = (
{
closed = 1;
nodes = (
"26 446 OFFCURVE",
"21 408 OFFCURVE",
"21 376 CURVE",
"76 365 LINE",
"76 330 OFFCURVE",
"74 283 OFFCURVE",
"66 227 CURVE SMOOTH",
"47 96 OFFCURVE",
"38 25 OFFCURVE",
"53 -5 CURVE",
"76 -11 OFFCURVE",
"247 15 OFFCURVE",
"274 30 CURVE",
"276 63 OFFCURVE",
"276 95 OFFCURVE",
"271 126 CURVE",
"214 122 LINE",
"213 161 OFFCURVE",
"224 221 OFFCURVE",
"234 285 CURVE SMOOTH",
"244 346 OFFCURVE",
"252 392 OFFCURVE",
"268 480 CURVE",
"231 489 OFFCURVE",
"61 487 OFFCURVE",
"32 478 CURVE"
);
}
);
width = 301;
}
);
leftKerningGroup = i;
leftMetricsKey = n;
rightKerningGroup = i;
rightMetricsKey = n;
unicode = 0131;
},
{
glyphname = j;
lastChange = "2018-04-01 20:21:08 +0000";
layers = (
{
background = {
paths = (
{
closed = 1;
nodes = (
"65 481 OFFCURVE",
"177 463 OFFCURVE",
"195 450 CURVE",
"193 433 OFFCURVE",
"135 122 OFFCURVE",
"154 60 CURVE",
"169 60 OFFCURVE",
"192 67 OFFCURVE",
"208 72 CURVE",
"212 26 LINE",
"196 14 OFFCURVE",
"163 -1 OFFCURVE",
"145 -4 CURVE",
"99 -5 OFFCURVE",
"64 11 OFFCURVE",
"42 27 CURVE SMOOTH",
"15 47 OFFCURVE",
"56 311 OFFCURVE",
"74 406 CURVE",
"32 433 LINE",
"45 476 LINE"
);
}
);
};
components = (
{
name = jdotless;
},
{
name = dotaccentcomb;
transform = "{1, 0, 0, 1, -176, 28}";
}
);
guideLines = (
{
alignment = center;
angle = -12;
position = "{223, 497}";
},
{
angle = -103;
position = "{12, 345}";
}
);
layerId = "71FD7A9F-05F5-4D76-8D4F-547475A05E4C";
width = 259;
},
{
background = {
paths = (
{
closed = 1;
nodes = (
"88 481 OFFCURVE",
"200 463 OFFCURVE",
"218 450 CURVE",
"216 433 OFFCURVE",
"158 122 OFFCURVE",
"177 60 CURVE",
"192 60 OFFCURVE",
"215 67 OFFCURVE",
"231 72 CURVE",
"235 26 LINE",
"219 14 OFFCURVE",
"186 -1 OFFCURVE",
"168 -4 CURVE",
"122 -5 OFFCURVE",
"87 11 OFFCURVE",
"65 27 CURVE SMOOTH",
"38 47 OFFCURVE",
"79 311 OFFCURVE",
"97 406 CURVE",
"55 433 LINE",
"68 476 LINE"
);
}
);
};
color = 1;
components = (
{
alignment = -1;
name = jdotless;
transform = "{1, 0, 0, 1, 23, 0}";
},
{
alignment = -1;
name = dotaccentcomb;
transform = "{1, 0, 0, 1, -140, 22}";
}
);
guideLines = (
{
alignment = center;
angle = -12;
position = "{246, 497}";
},
{
angle = -103;
position = "{35, 345}";
},
{
position = "{293, 742}";
}
);
layerId = "977FCFA9-45AC-4A33-B2D7-4D17E6BBF8E0";
width = 297;
}
);
leftKerningGroup = j;
rightKerningGroup = g;
unicode = 006A;
},
{
glyphname = jdotless;
lastChange = "2017-09-10 17:56:32 +0000";
layers = (
{
anchors = (
{
name = bottom;
position = "{106, 0}";
},
{
name = top;
position = "{138, 508}";
}
);
background = {
components = (
{
name = _part.stem;
transform = "{1, 0, 0, 1, 18, 0}";
}
);
};
guideLines = (
{
position = "{418, 715}";
}
);
layerId = "71FD7A9F-05F5-4D76-8D4F-547475A05E4C";
paths = (
{
closed = 1;
nodes = (
"147 486 OFFCURVE",
"69 481 OFFCURVE",
"38 477 CURVE",
"34 440 LINE",
"108 420 LINE",
"101 287 OFFCURVE",
"92 109 OFFCURVE",
"84 28 CURVE SMOOTH",
"73 -87 OFFCURVE",
"41 -142 OFFCURVE",
"-12 -195 CURVE",
"9 -231 LINE",
"97 -173 OFFCURVE",
"141 -101 OFFCURVE",
"157 83 CURVE SMOOTH",
"164 163 OFFCURVE",
"169 209 OFFCURVE",
"177 281 CURVE SMOOTH",
"183 338 OFFCURVE",
"192 403 OFFCURVE",
"203 480 CURVE"
);
}
);
width = 259;
},
{
anchors = (
{
name = bottom;
position = "{116, 0}";
},
{
name = top;
position = "{156, 537}";
}
);
background = {
components = (
{
name = i;
transform = "{1, 0, 0, 1, 0, -1}";
}
);
};
guideLines = (
{
position = "{270, 742}";
}
);
layerId = "977FCFA9-45AC-4A33-B2D7-4D17E6BBF8E0";
paths = (
{
closed = 1;
nodes = (
"180 490 OFFCURVE",
"41 486 OFFCURVE",
"10 480 CURVE",
"2 451 OFFCURVE",
"0 413 OFFCURVE",
"-1 379 CURVE",
"55 369 LINE",
"43 190 OFFCURVE",
"39 135 OFFCURVE",
"31 50 CURVE SMOOTH",
"23 -32 OFFCURVE",
"1 -107 OFFCURVE",
"-40 -173 CURVE",
"-27 -202 OFFCURVE",
"-11 -225 OFFCURVE",
"8 -242 CURVE",
"99 -193 OFFCURVE",
"176 -55 OFFCURVE",
"193 97 CURVE SMOOTH",
"201 165 OFFCURVE",
"210 231 OFFCURVE",
"220 296 CURVE SMOOTH",
"230 358 OFFCURVE",
"238 419 OFFCURVE",
"247 480 CURVE"
);
}
);
width = 244;
}
);
leftKerningGroup = j;
rightKerningGroup = g;
unicode = 0237;
},
{
color = 1;
glyphname = k;
lastChange = "2018-04-01 20:39:09 +0000";
layers = (
{
anchors = (
{
name = bottom;
position = "{204, 0}";
},
{
name = top;
position = "{254, 480}";
}
);
background = {
components = (
{
name = n;
transform = "{1, 0, 0, 1, -16, 0}";
}
);
};
components = (
{
name = _part.stem_ascender;
transform = "{1, 0, 0, 1, 14, 0}";
}
);
layerId = "71FD7A9F-05F5-4D76-8D4F-547475A05E4C";
paths = (
{
closed = 1;
nodes = (
"114 0 LINE",
"137 139 OFFCURVE",
"262 379 OFFCURVE",
"301 422 CURVE",
"344 424 OFFCURVE",
"374 399 OFFCURVE",
"370 348 CURVE SMOOTH",
"362 261 OFFCURVE",
"314 222 OFFCURVE",
"244 209 CURVE",
"233 187 LINE",
"260 99 OFFCURVE",
"286 30 OFFCURVE",
"315 -5 CURVE",
"364 2 OFFCURVE",
"406 14 OFFCURVE",
"450 33 CURVE",
"444 74 LINE",
"365 64 LINE",
"350 78 OFFCURVE",
"319 129 OFFCURVE",
"299 181 CURVE",
"372 189 OFFCURVE",
"432 261 OFFCURVE",
"443 345 CURVE SMOOTH",
"457 453 OFFCURVE",
"390 502 OFFCURVE",
"274 479 CURVE",
"222 421 OFFCURVE",
"135 235 OFFCURVE",
"105 75 CURVE"
);
}
);
width = 495;
},
{
anchors = (
{
name = bottom;
position = "{257, 0}";
},
{
name = top;
position = "{333, 740}";
}
);
background = {
components = (
{
name = n;
transform = "{1, 0, 0, 1, -9, 0}";
}
);
};
components = (
{
name = _part.stem_ascender;
transform = "{1, 0, 0, 1, 14, 0}";
}
);
layerId = "977FCFA9-45AC-4A33-B2D7-4D17E6BBF8E0";
paths = (
{
closed = 1;
nodes = (
"195 -3 LINE",
"239 154 OFFCURVE",
"286 298 OFFCURVE",
"324 341 CURVE",
"358 345 OFFCURVE",
"366 316 OFFCURVE",
"359 285 CURVE SMOOTH",
"352 255 OFFCURVE",
"337 225 OFFCURVE",
"292 225 CURVE",
"266 149 LINE",
"282 79 OFFCURVE",
"290 30 OFFCURVE",
"312 -5 CURVE",
"366 -6 OFFCURVE",
"482 10 OFFCURVE",
"526 29 CURVE",
"528 60 OFFCURVE",
"528 95 OFFCURVE",
"522 126 CURVE",
"455 122 LINE",
"445 139 OFFCURVE",
"428 162 OFFCURVE",
"420 182 CURVE",
"496 207 OFFCURVE",
"526 273 OFFCURVE",
"532 330 CURVE SMOOTH",
"543 434 OFFCURVE",
"509 519 OFFCURVE",
"298 480 CURVE",
"254 387 OFFCURVE",
"219 261 OFFCURVE",
"165 96 CURVE"
);
}
);
width = 558;
}
);
leftKerningGroup = l;
rightKerningGroup = i;
unicode = 006B;
},
{
color = 1;
glyphname = l;
lastChange = "2018-04-01 20:39:10 +0000";
layers = (
{
anchors = (
{
name = bottom;
position = "{92, 0}";
},
{
name = center;
position = "{124, 370}";
},
{
name = top;
position = "{161, 710}";
},
{
name = topright;
position = "{224, 480}";
}
);
background = {
components = (
{
name = _part.stem_ascender;
transform = "{1, 0, 0, 1, 11, 0}";
}
);
};
guideLines = (
{
angle = -103;
position = "{25, 624}";
}
);
layerId = "71FD7A9F-05F5-4D76-8D4F-547475A05E4C";
paths = (
{
closed = 1;
nodes = (
"119 2 OFFCURVE",
"202 26 OFFCURVE",
"223 37 CURVE",
"215 79 LINE",
"139 70 LINE",
"134 128 OFFCURVE",
"137 213 OFFCURVE",
"166 433 CURVE SMOOTH",
"177 518 OFFCURVE",
"183 542 OFFCURVE",
"215 741 CURVE",
"188 749 OFFCURVE",
"145 737 OFFCURVE",
"124 727 CURVE",
"118 596 OFFCURVE",
"115 563 OFFCURVE",
"92 355 CURVE SMOOTH",
"72 178 OFFCURVE",
"42 20 OFFCURVE",
"71 -5 CURVE"
);
}
);
width = 247;
},
{
anchors = (
{
name = bottom;
position = "{121, 0}";
},
{
name = center;
position = "{131, 370}";
},
{
name = top;
position = "{178, 740}";
},
{
name = topright;
position = "{253, 480}";
}
);
guideLines = (
{
angle = -103;
position = "{54, 624}";
}
);
layerId = "977FCFA9-45AC-4A33-B2D7-4D17E6BBF8E0";
paths = (
{
closed = 1;
nodes = (
"116 -7 OFFCURVE",
"238 13 OFFCURVE",
"276 30 CURVE",
"278 62 OFFCURVE",
"278 94 OFFCURVE",
"274 126 CURVE",
"217 122 LINE",
"218 194 OFFCURVE",
"224 257 OFFCURVE",
"248 433 CURVE SMOOTH",
"260 522 OFFCURVE",
"272 579 OFFCURVE",
"303 740 CURVE",
"276 749 OFFCURVE",
"85 747 OFFCURVE",
"56 740 CURVE",
"48 707 OFFCURVE",
"45 672 OFFCURVE",
"45 635 CURVE",
"103 625 LINE",
"102 555 OFFCURVE",
"90 474 OFFCURVE",
"73 312 CURVE SMOOTH",
"56 150 OFFCURVE",
"33 21 OFFCURVE",
"61 -5 CURVE"
);
}
);
width = 308;
}
);
leftKerningGroup = l;
rightKerningGroup = i;
unicode = 006C;
},
{
color = 1;
glyphname = m;
lastChange = "2018-04-01 20:39:10 +0000";
layers = (
{
anchors = (
{
name = bottom;
position = "{351, 0}";
},
{
name = top;
position = "{401, 480}";
}
);
background = {
components = (
{
name = n;
transform = "{1, 0, 0, 1, -3, 0}";
}
);
};
components = (
{
name = _part.stem;
transform = "{1, 0, 0, 1, 27, 0}";
},
{
name = _part.bow;
transform = "{0.9707, 0, 0, 1, 292, 0}";
}
);
guideLines = (
{
angle = -18;
position = "{-76, 0}";
},
{
position = "{1109, 369}";
},
{
position = "{271, 393}";
},
{
position = "{192, 87}";
},
{
position = "{-326, 225}";
}
);
layerId = "71FD7A9F-05F5-4D76-8D4F-547475A05E4C";
paths = (
{
closed = 1;
nodes = (
"157 128 OFFCURVE",
"242 325 OFFCURVE",
"314 423 CURVE",
"362 431 OFFCURVE",
"367 400 OFFCURVE",
"361 348 CURVE SMOOTH",
"347 229 OFFCURVE",
"330 135 OFFCURVE",
"311 16 CURVE",
"318 3 OFFCURVE",
"356 -3 OFFCURVE",
"382 -3 CURVE",
"390 57 OFFCURVE",
"397 116 OFFCURVE",
"405 176 CURVE",
"390 176 LINE",
"405 247 OFFCURVE",
"417 296 OFFCURVE",
"426 342 CURVE SMOOTH",
"450 463 OFFCURVE",
"416 506 OFFCURVE",
"286 478 CURVE",
"238 428 OFFCURVE",
"143 196 OFFCURVE",
"127 78 CURVE",
"135 -2 LINE"
);
}
);
width = 763;
},
{
anchors = (
{
name = bottom;
position = "{371, 0}";
},
{
name = top;
position = "{421, 480}";
}
);
background = {
components = (
{
name = n;
transform = "{1, 0, 0, 1, 256, 0}";
}
);
};
components = (
{
name = _part.stem;
transform = "{1, 0, 0, 1, 48, 0}";
},
{
name = _part.bow;
transform = "{1, 0, 0, 1, 319, 0}";
}
);
guideLines = (
{
angle = -18;
position = "{-56, 0}";
},
{
position = "{1129, 369}";
},
{
position = "{152, 277}";
}
);
layerId = "977FCFA9-45AC-4A33-B2D7-4D17E6BBF8E0";
paths = (
{
closed = 1;
nodes = (
"256 151 OFFCURVE",
"294 264 OFFCURVE",
"338 342 CURVE",
"366 344 OFFCURVE",
"352 298 OFFCURVE",
"339 234 CURVE SMOOTH",
"315 116 OFFCURVE",
"305 72 OFFCURVE",
"297 19 CURVE",
"346 -3 OFFCURVE",
"450 -7 OFFCURVE",
"465 -3 CURVE",
"469 25 OFFCURVE",
"506 211 OFFCURVE",
"510 278 CURVE",
"480 278 LINE",
"483 293 OFFCURVE",
"492 321 OFFCURVE",
"499 355 CURVE SMOOTH",
"527 492 OFFCURVE",
"466 507 OFFCURVE",
"314 480 CURVE",
"273 394 OFFCURVE",
"199 221 OFFCURVE",
"174 100 CURVE",
"211 -2 LINE"
);
}
);
width = 826;
}
);
leftKerningGroup = i;
rightKerningGroup = n;
unicode = 006D;
},
{
glyphname = eng;
lastChange = "2017-05-20 11:39:13 +0000";
layers = (
{
anchors = (
{
name = bottom;
position = "{208, 0}";
},
{
name = top;
position = "{258, 480}";
}
);
background = {
components = (
{
name = n;
transform = "{1, 0, 0, 1, -7, 0}";
}
);
};
components = (
{
name = _part.stem;
transform = "{1, 0, 0, 1, 15, 0}";
}
);
layerId = "71FD7A9F-05F5-4D76-8D4F-547475A05E4C";
paths = (
{
closed = 1;
nodes = (
"123 -2 LINE",
"169 192 OFFCURVE",
"255 359 OFFCURVE",
"306 421 CURVE",
"336 424 OFFCURVE",
"372 413 OFFCURVE",
"366 356 CURVE SMOOTH",
"353 235 OFFCURVE",
"338 128 OFFCURVE",
"323 -5 CURVE SMOOTH",
"310 -123 OFFCURVE",
"224 -120 OFFCURVE",
"181 -106 CURVE",
"173 -158 LINE",
"286 -184 OFFCURVE",
"385 -143 OFFCURVE",
"398 -5 CURVE SMOOTH",
"402 36 OFFCURVE",
"426 264 OFFCURVE",
"436 366 CURVE SMOOTH",
"444 449 OFFCURVE",
"408 500 OFFCURVE",
"280 478 CURVE",
"225 422 OFFCURVE",
"129 177 OFFCURVE",
"114 78 CURVE"
);
}
);
width = 495;
},
{
anchors = (
{
name = bottom;
position = "{229, 0}";
},
{
name = top;
position = "{279, 480}";
}
);
background = {
components = (
{
name = n;
transform = "{1, 0, 0, 1, -5, 0}";
}
);
};
components = (
{
name = _part.stem;
transform = "{1, 0, 0, 1, 27, 0}";
}
);
layerId = "977FCFA9-45AC-4A33-B2D7-4D17E6BBF8E0";
paths = (
{
closed = 1;
nodes = (
"160 -3 LINE",
"197 195 OFFCURVE",
"279 336 OFFCURVE",
"316 375 CURVE",
"338 377 OFFCURVE",
"365 372 OFFCURVE",
"359 326 CURVE SMOOTH",
"341 187 OFFCURVE",
"336 121 OFFCURVE",
"319 -8 CURVE SMOOTH",
"307 -102 OFFCURVE",
"266 -110 OFFCURVE",
"206 -100 CURVE",
"198 -163 LINE",
"397 -200 OFFCURVE",
"432 -95 OFFCURVE",
"444 16 CURVE SMOOTH",
"460 164 OFFCURVE",
"469 267 OFFCURVE",
"480 362 CURVE SMOOTH",
"492 468 OFFCURVE",
"393 499 OFFCURVE",
"301 481 CURVE",
"247 411 OFFCURVE",
"182 268 OFFCURVE",
"149 97 CURVE"
);
}
);
width = 536;
}
);
leftKerningGroup = i;
rightKerningGroup = n;
unicode = 014B;
},
{
color = 1;
glyphname = o;
lastChange = "2018-04-01 20:39:10 +0000";
layers = (
{
anchors = (
{
name = bottom;
position = "{204, 0}";
},
{
name = center;
position = "{229, 240}";
},
{
name = ogonek;
position = "{386, 10}";
},
{
name = top;
position = "{256, 508}";
},
{
name = topright;
position = "{462, 480}";
}
);
layerId = "71FD7A9F-05F5-4D76-8D4F-547475A05E4C";
paths = (
{
closed = 1;
nodes = (
"458 224 OFFCURVE",
"405 386 CURVE SMOOTH",
"385 447 OFFCURVE",
"334 488 OFFCURVE",
"270 488 CURVE SMOOTH",
"103 488 OFFCURVE",
"3 268 OFFCURVE",
"51 100 CURVE SMOOTH",
"68 35 OFFCURVE",
"121 -8 OFFCURVE",
"193 -8 CURVE SMOOTH",
"355 -8 OFFCURVE"
);
},
{
closed = 1;
nodes = (
"198 36 OFFCURVE",
"147 66 OFFCURVE",
"127 132 CURVE SMOOTH",
"94 242 OFFCURVE",
"135 414 OFFCURVE",
"237 442 CURVE",
"216 461 OFFCURVE",
"199 461 OFFCURVE",
"192 426 CURVE",
"246 446 OFFCURVE",
"308 418 OFFCURVE",
"328 354 CURVE SMOOTH",
"364 243 OFFCURVE",
"327 71 OFFCURVE",
"219 36 CURVE",
"243 18 OFFCURVE",
"259 19 OFFCURVE",
"266 53 CURVE"
);
}
);
width = 457;
},
{
anchors = (
{
name = bottom;
position = "{234, 0}";
},
{
name = center;
position = "{259, 240}";
},
{
name = ogonek;
position = "{416, 10}";
},
{
name = top;
position = "{285, 480}";
},
{
name = topright;
position = "{492, 480}";
}
);
background = {
anchors = (
{
name = bottom;
position = "{233, 0}";
},
{
name = center;
position = "{258, 240}";
},
{
name = ogonek;
position = "{415, 10}";
},
{
name = top;
position = "{280, 480}";
},
{
name = topright;
position = "{491, 480}";
}
);
paths = (
{
closed = 1;
nodes = (
"445 500 OFFCURVE",
"307 500 CURVE SMOOTH",
"132 500 OFFCURVE",
"39 377 OFFCURVE",
"25 240 CURVE SMOOTH",
"12 97 OFFCURVE",
"70 -12 OFFCURVE",
"229 -12 CURVE SMOOTH",
"403 -12 OFFCURVE",
"490 107 OFFCURVE",
"504 262 CURVE SMOOTH",
"518 402 OFFCURVE"
);
},
{
closed = 1;
nodes = (
"276 75 LINE",
"278 99 LINE",
"179 51 OFFCURVE",
"187 391 OFFCURVE",
"282 391 CURVE",
"259 402 LINE",
"245 381 LINE",
"352 445 OFFCURVE",
"347 91 OFFCURVE",
"247 91 CURVE"
);
}
);
};
layerId = "977FCFA9-45AC-4A33-B2D7-4D17E6BBF8E0";
paths = (
{
closed = 1;
nodes = (
"445 500 OFFCURVE",
"307 500 CURVE SMOOTH",
"132 500 OFFCURVE",
"39 377 OFFCURVE",
"25 240 CURVE SMOOTH",
"12 97 OFFCURVE",
"70 -12 OFFCURVE",
"229 -12 CURVE SMOOTH",
"403 -12 OFFCURVE",
"490 107 OFFCURVE",
"504 262 CURVE SMOOTH",
"518 402 OFFCURVE"
);
},
{
closed = 1;
nodes = (
"276 75 LINE",
"278 99 LINE",
"179 51 OFFCURVE",
"187 391 OFFCURVE",
"282 391 CURVE",
"259 402 LINE",
"245 381 LINE",
"352 445 OFFCURVE",
"347 91 OFFCURVE",
"247 91 CURVE"
);
}
);
width = 527;
}
);
leftKerningGroup = o;
rightKerningGroup = o;
unicode = 006F;
},
{
glyphname = oslash;
lastChange = "2018-04-01 20:23:51 +0000";
layers = (
{
components = (
{
name = o;
},
{
name = slashlongcomb;
transform = "{1, 0, 0, 1, -45, -124}";
}
);
layerId = "71FD7A9F-05F5-4D76-8D4F-547475A05E4C";
width = 457;
},
{
color = 1;
components = (
{
alignment = -1;
name = o;
},
{
alignment = -1;
name = slashlongcomb;
transform = "{1, 0, 0, 1, -34, -124}";
}
);
layerId = "977FCFA9-45AC-4A33-B2D7-4D17E6BBF8E0";
width = 489;
},
{
anchors = (
{
name = _center;
position = "{227, 240}";
}
);
associatedMasterId = "71FD7A9F-05F5-4D76-8D4F-547475A05E4C";
components = (
{
name = o;
}
);
layerId = "4BA6B979-9D82-4523-9503-D3419A836DCE";
name = "Light [110]";
paths = (
{
closed = 1;
nodes = (
"93 82 LINE",
"59 32 OFFCURVE",
"25 -15 OFFCURVE",
"-7 -55 CURVE",
"46 -84 LINE",
"61 -75 LINE",
"84 -37 OFFCURVE",
"111 6 OFFCURVE",
"139 52 CURVE"
);
},
{
closed = 1;
nodes = (
"357 391 LINE",
"393 445 OFFCURVE",
"428 497 OFFCURVE",
"460 541 CURVE",
"410 564 LINE",
"394 555 LINE",
"370 516 OFFCURVE",
"342 470 OFFCURVE",
"312 422 CURVE"
);
}
);
width = 453;
},
{
anchors = (
{
name = _center;
position = "{223, 240}";
}
);
associatedMasterId = "977FCFA9-45AC-4A33-B2D7-4D17E6BBF8E0";
components = (
{
name = o;
}
);
layerId = "0F5E500E-890B-4398-B365-6A820F352535";
name = "Bold [110]";
paths = (
{
closed = 1;
nodes = (
"112 128 LINE",
"69 60 OFFCURVE",
"27 -4 OFFCURVE",
"-12 -56 CURVE",
"61 -91 LINE",
"75 -82 LINE",
"103 -34 OFFCURVE",
"136 24 OFFCURVE",
"173 85 CURVE"
);
},
{
closed = 1;
nodes = (
"338 355 LINE",
"378 420 OFFCURVE",
"418 482 OFFCURVE",
"454 534 CURVE",
"383 563 LINE",
"368 554 LINE",
"340 506 OFFCURVE",
"307 449 OFFCURVE",
"271 389 CURVE"
);
}
);
width = 452;
}
);
leftKerningGroup = o;
rightKerningGroup = o;
unicode = 00F8;
},
{
color = 1;
glyphname = p;
lastChange = "2018-04-01 20:39:10 +0000";
layers = (
{
anchors = (
{
name = bottom;
position = "{236, 0}";
},
{
name = top;
position = "{286, 480}";
}
);
background = {
components = (
{
name = n;
}
);
};
components = (
{
name = _part.bowl;
transform = "{1, 0, 0, 1, 39, 0}";
}
);
guideLines = (
{
angle = -18;
position = "{769, -224}";
},
{
position = "{1125, 137}";
},
{
position = "{1311, 251}";
}
);
layerId = "71FD7A9F-05F5-4D76-8D4F-547475A05E4C";
paths = (
{
closed = 1;
nodes = (
"139 178 LINE",
"179 430 OFFCURVE",
"194 464 OFFCURVE",
"196 479 CURVE",
"166 489 OFFCURVE",
"57 481 OFFCURVE",
"46 476 CURVE",
"42 440 LINE",
"104 421 LINE",
"104 363 OFFCURVE",
"101 301 OFFCURVE",
"88 195 CURVE SMOOTH",
"62 -14 OFFCURVE",
"33 -169 OFFCURVE",
"29 -213 CURVE",
"44 -222 OFFCURVE",
"90 -234 OFFCURVE",
"115 -232 CURVE",
"117 -116 OFFCURVE",
"124 -21 OFFCURVE",
"150 176 CURVE"
);
}
);
width = 506;
},
{
anchors = (
{
name = bottom;
position = "{321, 0}";
},
{
name = top;
position = "{371, 480}";
}
);
background = {
anchors = (
{
name = bottom;
position = "{165, 0}";
},
{
name = ogonek;
position = "{278, 18}";
},
{
name = top;
position = "{224, 536}";
}
);
paths = (
{
closed = 1;
nodes = (
"83 306 LINE",
"102 305 OFFCURVE",
"180 313 OFFCURVE",
"199 321 CURVE",
"212 385 LINE",
"227 389 OFFCURVE",
"246 390 OFFCURVE",
"265 388 CURVE",
"293 377 OFFCURVE",
"297 347 OFFCURVE",
"296 299 CURVE SMOOTH",
"295 234 OFFCURVE",
"294 151 OFFCURVE",
"294 132 CURVE SMOOTH",
"294 51 OFFCURVE",
"301 18 OFFCURVE",
"315 -4 CURVE",
"378 -7 OFFCURVE",
"481 9 OFFCURVE",
"510 18 CURVE",
"515 42 OFFCURVE",
"519 91 OFFCURVE",
"517 118 CURVE",
"454 122 LINE",
"462 321 LINE SMOOTH",
"467 454 OFFCURVE",
"405 502 OFFCURVE",
"260 502 CURVE SMOOTH",
"185 502 OFFCURVE",
"112 488 OFFCURVE",
"69 476 CURVE"
);
},
{
closed = 1;
nodes = (
"255 127 LINE SMOOTH",
"231 122 OFFCURVE",
"213 132 OFFCURVE",
"205 152 CURVE SMOOTH",
"200 165 OFFCURVE",
"199 183 OFFCURVE",
"204 204 CURVE",
"333 230 LINE",
"330 314 LINE",
"267 304 OFFCURVE",
"213 296 OFFCURVE",
"150 285 CURVE SMOOTH",
"79 273 OFFCURVE",
"30 211 OFFCURVE",
"30 142 CURVE SMOOTH",
"30 55 OFFCURVE",
"73 -16 OFFCURVE",
"215 -3 CURVE",
"323 94 LINE",
"347 147 LINE"
);
}
);
};
components = (
{
name = _part.bowl;
piece = {
"b/q?" = 0;
};
transform = "{1, 0, 0, 1, 104, 0}";
}
);
guideLines = (
{
angle = -18;
position = "{854, -224}";
},
{
angle = 78;
position = "{127, 445}";
}
);
layerId = "977FCFA9-45AC-4A33-B2D7-4D17E6BBF8E0";
paths = (
{
closed = 1;
nodes = (
"26 448 OFFCURVE",
"21 408 OFFCURVE",
"21 376 CURVE",
"79 364 LINE",
"80 329 OFFCURVE",
"76 279 OFFCURVE",
"70 223 CURVE SMOOTH",
"48 14 OFFCURVE",
"26 -83 OFFCURVE",
"7 -205 CURVE",
"61 -227 OFFCURVE",
"132 -235 OFFCURVE",
"201 -235 CURVE",
"200 -152 OFFCURVE",
"198 -87 OFFCURVE",
"204 33 CURVE",
"251 275 LINE",
"224 279 LINE",
"236 340 OFFCURVE",
"248 392 OFFCURVE",
"265 480 CURVE",
"228 489 OFFCURVE",
"63 490 OFFCURVE",
"34 481 CURVE"
);
}
);
width = 564;
},
{
anchors = (
{
name = bottom;
position = "{280, 0}";
},
{
name = top;
position = "{280, 480}";
}
);
associatedMasterId = "71FD7A9F-05F5-4D76-8D4F-547475A05E4C";
background = {
anchors = (
{
name = _connect;
position = "{234, 2}";
}
);
};
guideLines = (
{
position = "{170, 407}";
},
{
position = "{188, 457}";
}
);
layerId = "9F53F523-309F-4B20-95C9-BBB6F7844458";
name = "black test";
paths = (
{
closed = 1;
nodes = (
"252 -119 OFFCURVE",
"253 -84 OFFCURVE",
"253 97 CURVE SMOOTH",
"253 233 OFFCURVE",
"253 326 OFFCURVE",
"252 388 CURVE",
"252 394 OFFCURVE",
"243 400 OFFCURVE",
"243 406 CURVE",
"240 437 OFFCURVE",
"239 468 OFFCURVE",
"235 480 CURVE",
"216 485 OFFCURVE",
"91 496 OFFCURVE",
"4 459 CURVE",
"13 383 LINE",
"70 383 LINE",
"79 302 OFFCURVE",
"76 305 OFFCURVE",
"76 -119 CURVE SMOOTH",
"76 -147 OFFCURVE",
"121 -161 OFFCURVE",
"142 -163 CURVE SMOOTH",
"169 -166 OFFCURVE",
"223 -174 OFFCURVE",
"258 -174 CURVE"
);
},
{
closed = 1;
nodes = (
"9 -165 LINE",
"6 -250 LINE",
"325 -250 LINE",
"329 -164 LINE",
"252 -154 LINE",
"175 -154 LINE"
);
},
{
closed = 1;
nodes = (
"196 296 LINE",
"206 302 OFFCURVE",
"214 340 OFFCURVE",
"277 359 CURVE",
"338 345 OFFCURVE",
"351 294 OFFCURVE",
"351 227 CURVE SMOOTH",
"351 169 OFFCURVE",
"338 133 OFFCURVE",
"293 105 CURVE",
"250 106 OFFCURVE",
"234 121 OFFCURVE",
"197 151 CURVE",
"163 118 LINE",
"189 92 OFFCURVE",
"243 19 OFFCURVE",
"320 -3 CURVE",
"595 19 OFFCURVE",
"620 474 OFFCURVE",
"350 484 CURVE",
"306 474 OFFCURVE",
"195 379 OFFCURVE",
"169 357 CURVE"
);
}
);
width = 567;
}
);
leftKerningGroup = i;
rightKerningGroup = o;
unicode = 0070;
},
{
glyphname = thorn;
lastChange = "2017-09-10 19:17:56 +0000";
layers = (
{
anchors = (
{
name = bottom;
position = "{219, 0}";
},
{
name = top;
position = "{269, 480}";
}
);
background = {
components = (
{
name = p;
transform = "{1, 0, 0, 1, -15, 0}";
}
);
};
components = (
{
name = _part.bowl;
transform = "{1, 0, 0, 1, 9, 0}";
}
);
layerId = "71FD7A9F-05F5-4D76-8D4F-547475A05E4C";
paths = (
{
closed = 1;
nodes = (
"121 113 LINE",
"207 733 OFFCURVE",
"209 718 OFFCURVE",
"210 733 CURVE",
"180 743 OFFCURVE",
"67 735 OFFCURVE",
"56 730 CURVE",
"53 694 LINE",
"117 673 LINE",
"116 615 OFFCURVE",
"81 293 OFFCURVE",
"61 139 CURVE SMOOTH",
"34 -70 OFFCURVE",
"18 -165 OFFCURVE",
"14 -209 CURVE",
"29 -218 OFFCURVE",
"77 -234 OFFCURVE",
"102 -232 CURVE",
"104 -116 OFFCURVE",
"113 29 OFFCURVE",
"116 64 CURVE"
);
}
);
width = 470;
},
{
anchors = (
{
name = bottom;
position = "{252, 0}";
},
{
name = top;
position = "{302, 480}";
}
);
background = {
paths = (
{
closed = 1;
nodes = (
"233 355 LINE",
"242 472 OFFCURVE",
"239 448 OFFCURVE",
"284 706 CURVE",
"284 706 LINE",
"226 707 OFFCURVE",
"157 704 OFFCURVE",
"74 700 CURVE",
"67 643 LINE",
"113 634 LINE",
"123 612 OFFCURVE",
"115 481 OFFCURVE",
"110 421 CURVE SMOOTH",
"101 309 OFFCURVE",
"70 109 OFFCURVE",
"74 96 CURVE",
"76 84 OFFCURVE",
"99 70 OFFCURVE",
"133 58 CURVE",
"17 58 LINE",
"12 0 LINE",
"291 0 LINE",
"300 55 LINE",
"244 63 LINE",
"220 100 OFFCURVE",
"222 172 OFFCURVE",
"227 293 CURVE"
);
},
{
closed = 1;
nodes = (
"212 272 LINE",
"246 261 OFFCURVE",
"292 259 OFFCURVE",
"328 264 CURVE",
"574 312 OFFCURVE",
"627 589 OFFCURVE",
"457 670 CURVE SMOOTH",
"402 697 OFFCURVE",
"339 705 OFFCURVE",
"257 706 CURVE",
"249 624 LINE",
"426 651 OFFCURVE",
"472 416 OFFCURVE",
"347 350 CURVE",
"305 348 OFFCURVE",
"259 355 OFFCURVE",
"219 378 CURVE"
);
}
);
};
components = (
{
name = _part.bowl;
piece = {
"b/q?" = 0;
};
transform = "{1, 0, 0, 1, 35, 0}";
}
);
layerId = "977FCFA9-45AC-4A33-B2D7-4D17E6BBF8E0";
paths = (
{
closed = 1;
nodes = (
"165 109 LINE",
"186 235 OFFCURVE",
"236 642 OFFCURVE",
"250 740 CURVE",
"212 749 OFFCURVE",
"92 746 OFFCURVE",
"53 736 CURVE",
"47 690 LINE",
"108 664 LINE",
"107 606 OFFCURVE",
"69 218 OFFCURVE",
"57 128 CURVE SMOOTH",
"38 -15 OFFCURVE",
"20 -161 OFFCURVE",
"13 -211 CURVE",
"41 -225 OFFCURVE",
"115 -238 OFFCURVE",
"148 -234 CURVE",
"159 -93 OFFCURVE",
"162 -36 OFFCURVE",
"169 38 CURVE"
);
}
);
width = 495;
}
);
leftKerningGroup = l;
leftMetricsKey = l;
rightKerningGroup = o;
rightMetricsKey = o;
unicode = 00FE;
},
{
color = 1;
glyphname = q;
lastChange = "2018-04-01 20:39:10 +0000";
layers = (
{
anchors = (
{
name = bottom;
position = "{225, 0}";
},
{
name = top;
position = "{275, 480}";
}
);
background = {
components = (
{
name = a;
transform = "{1, 0, 0, 1, 20, 0}";
}
);
};
components = (
{
name = _part.bowl;
transform = "{-1, 0, 0, -1, 467, 476}";
}
);
guideLines = (
{
position = "{-102, 250}";
}
);
layerId = "71FD7A9F-05F5-4D76-8D4F-547475A05E4C";
paths = (
{
closed = 1;
nodes = (
"310 -231 OFFCURVE",
"340 -231 OFFCURVE",
"364 -232 CURVE",
"380 32 OFFCURVE",
"409 258 OFFCURVE",
"435 403 CURVE SMOOTH",
"449 481 LINE",
"433 491 OFFCURVE",
"419 493 OFFCURVE",
"401 493 CURVE",
"339 282 LINE",
"361 272 LINE",
"276 -182 OFFCURVE",
"343 180 OFFCURVE",
"272 -212 CURVE"
);
}
);
width = 492;
},
{
anchors = (
{
name = bottom;
position = "{246, 0}";
},
{
name = top;
position = "{296, 480}";
}
);
background = {
components = (
{
name = p;
transform = "{1, 0, 0, 1, 243, 0}";
}
);
};
components = (
{
name = _part.bowl;
piece = {
"b/q?" = 1;
};
transform = "{-1, 0, 0, -1, 461, 475}";
}
);
guideLines = (
{
position = "{-689, 267}";
}
);
layerId = "977FCFA9-45AC-4A33-B2D7-4D17E6BBF8E0";
paths = (
{
closed = 1;
nodes = (
"298 -225 OFFCURVE",
"382 -239 OFFCURVE",
"443 -234 CURVE",
"446 -149 OFFCURVE",
"463 62 OFFCURVE",
"481 228 CURVE SMOOTH",
"491 319 OFFCURVE",
"504 422 OFFCURVE",
"520 500 CURVE",
"493 511 OFFCURVE",
"464 513 OFFCURVE",
"436 512 CURVE",
"267 173 LINE",
"333 172 LINE",
"288 -33 OFFCURVE",
"283 -67 OFFCURVE",
"249 -205 CURVE"
);
}
);
width = 503;
}
);
leftKerningGroup = o;
rightKerningGroup = g;
unicode = 0071;
},
{
color = 1;
glyphname = r;
lastChange = "2018-04-01 20:39:10 +0000";
layers = (
{
anchors = (
{
name = bottom;
position = "{84, 0}";
},
{
name = top;
position = "{226, 508}";
}
);
background = {
components = (
{
name = n;
transform = "{1, 0, 0, 1, 5, 0}";
}
);
};
components = (
{
name = _part.stem;
transform = "{1, 0, 0, 1, 27, 0}";
}
);
guideLines = (
{
position = "{-1217, 367}";
},
{
angle = -30;
position = "{254, 371}";
},
{
position = "{444, 715}";
},
{
position = "{2784, 225}";
}
);
layerId = "71FD7A9F-05F5-4D76-8D4F-547475A05E4C";
paths = (
{
closed = 1;
nodes = (
"185 202 OFFCURVE",
"268 354 OFFCURVE",
"311 403 CURVE",
"378 394 LINE",
"389 422 OFFCURVE",
"391 446 OFFCURVE",
"391 480 CURVE",
"360 486 OFFCURVE",
"322 484 OFFCURVE",
"297 480 CURVE",
"237 422 OFFCURVE",
"163 237 OFFCURVE",
"130 105 CURVE",
"135 -2 LINE"
);
}
);
width = 331;
},
{
anchors = (
{
name = bottom;
position = "{123, 0}";
},
{
name = top;
position = "{264, 480}";
}
);
background = {
components = (
{
name = n;
transform = "{1, 0, 0, 1, 10, 0}";
}
);
};
components = (
{
name = _part.stem;
transform = "{1, 0, 0, 1, 48, 0}";
}
);
guideLines = (
{
position = "{-1178, 367}";
},
{
angle = -30;
position = "{293, 371}";
}
);
layerId = "977FCFA9-45AC-4A33-B2D7-4D17E6BBF8E0";
paths = (
{
closed = 1;
nodes = (
"254 141 OFFCURVE",
"287 243 OFFCURVE",
"330 328 CURVE",
"428 315 LINE",
"441 354 OFFCURVE",
"454 442 OFFCURVE",
"455 482 CURVE",
"423 490 OFFCURVE",
"349 487 OFFCURVE",
"313 480 CURVE",
"290 437 OFFCURVE",
"221 266 OFFCURVE",
"182 116 CURVE",
"211 -3 LINE"
);
}
);
width = 436;
}
);
leftKerningGroup = i;
note = "     ";
rightKerningGroup = r;
unicode = 0072;
},
{
color = 1;
glyphname = s;
lastChange = "2018-04-01 20:39:10 +0000";
layers = (
{
anchors = (
{
name = bottom;
position = "{169, 0}";
},
{
name = top;
position = "{221, 508}";
}
);
background = {
components = (
{
name = c;
transform = "{1, 0, 0, 1, -1, 0}";
}
);
};
guideLines = (
{
angle = -96;
position = "{31, 308}";
},
{
position = "{-21, -6}";
}
);
layerId = "71FD7A9F-05F5-4D76-8D4F-547475A05E4C";
paths = (
{
closed = 1;
nodes = (
"262 -2 OFFCURVE",
"329 46 OFFCURVE",
"348 133 CURVE SMOOTH",
"364 205 OFFCURVE",
"313 245 OFFCURVE",
"224 282 CURVE SMOOTH",
"81 341 OFFCURVE",
"130 414 OFFCURVE",
"165 435 CURVE",
"210 435 OFFCURVE",
"293 422 OFFCURVE",
"341 393 CURVE",
"349 422 OFFCURVE",
"352 447 OFFCURVE",
"351 469 CURVE",
"323 484 OFFCURVE",
"276 491 OFFCURVE",
"221 489 CURVE SMOOTH",
"141 486 OFFCURVE",
"80 448 OFFCURVE",
"62 364 CURVE SMOOTH",
"47 290 OFFCURVE",
"117 253 OFFCURVE",
"184 222 CURVE SMOOTH",
"282 176 OFFCURVE",
"328 114 OFFCURVE",
"242 50 CURVE",
"161 50 OFFCURVE",
"83 74 OFFCURVE",
"32 106 CURVE",
"25 76 OFFCURVE",
"22 60 OFFCURVE",
"20 36 CURVE",
"46 10 OFFCURVE",
"114 -10 OFFCURVE",
"186 -6 CURVE SMOOTH"
);
}
);
width = 395;
},
{
anchors = (
{
name = bottom;
position = "{191, 0}";
},
{
name = top;
position = "{241, 480}";
}
);
background = {
paths = (
{
closed = 1;
nodes = (
"32 433 OFFCURVE",
"22 333 CURVE SMOOTH",
"14 249 OFFCURVE",
"55 194 OFFCURVE",
"154 168 CURVE SMOOTH",
"215 152 OFFCURVE",
"236 127 OFFCURVE",
"225 97 CURVE",
"186 87 OFFCURVE",
"159 88 OFFCURVE",
"128 104 CURVE",
"124 163 LINE",
"93 165 OFFCURVE",
"44 159 OFFCURVE",
"17 151 CURVE",
"-3 25 LINE",
"21 3 OFFCURVE",
"106 -14 OFFCURVE",
"171 -11 CURVE SMOOTH",
"328 -4 OFFCURVE",
"377 69 OFFCURVE",
"385 170 CURVE SMOOTH",
"393 266 OFFCURVE",
"322 297 OFFCURVE",
"234 318 CURVE SMOOTH",
"175 332 OFFCURVE",
"167 358 OFFCURVE",
"183 385 CURVE",
"208 395 OFFCURVE",
"233 395 OFFCURVE",
"261 385 CURVE",
"269 327 LINE",
"295 327 OFFCURVE",
"346 331 OFFCURVE",
"370 339 CURVE",
"389 476 LINE",
"368 493 OFFCURVE",
"293 507 OFFCURVE",
"222 504 CURVE SMOOTH",
"99 499 OFFCURVE"
);
}
);
};
guideLines = (
{
angle = -96;
position = "{53, 308}";
},
{
angle = -132;
position = "{159, 532}";
}
);
layerId = "977FCFA9-45AC-4A33-B2D7-4D17E6BBF8E0";
paths = (
{
closed = 1;
nodes = (
"287 -11 OFFCURVE",
"378 41 OFFCURVE",
"391 162 CURVE SMOOTH",
"399 233 OFFCURVE",
"376 275 OFFCURVE",
"254 318 CURVE SMOOTH",
"173 347 OFFCURVE",
"170 360 OFFCURVE",
"183 382 CURVE",
"222 384 OFFCURVE",
"294 377 OFFCURVE",
"365 344 CURVE",
"377 386 OFFCURVE",
"384 450 OFFCURVE",
"383 481 CURVE",
"346 497 OFFCURVE",
"292 503 OFFCURVE",
"248 503 CURVE SMOOTH",
"119 503 OFFCURVE",
"33 456 OFFCURVE",
"22 346 CURVE SMOOTH",
"14 278 OFFCURVE",
"47 215 OFFCURVE",
"126 186 CURVE SMOOTH",
"232 147 OFFCURVE",
"236 130 OFFCURVE",
"222 106 CURVE",
"152 109 OFFCURVE",
"55 129 OFFCURVE",
"4 153 CURVE",
"-5 124 OFFCURVE",
"-12 52 OFFCURVE",
"-12 22 CURVE",
"21 -3 OFFCURVE",
"98 -11 OFFCURVE",
"149 -11 CURVE SMOOTH"
);
}
);
width = 402;
}
);
leftKerningGroup = o;
rightKerningGroup = o;
unicode = 0073;
},
{
glyphname = germandbls;
lastChange = "2017-09-10 18:57:27 +0000";
layers = (
{
background = {
anchors = (
{
name = bottom;
position = "{115, 0}";
},
{
name = top;
position = "{165, 480}";
}
);
components = (
{
name = f;
}
);
};
guideLines = (
{
position = "{360, 81}";
},
{
position = "{358, 39}";
}
);
layerId = "71FD7A9F-05F5-4D76-8D4F-547475A05E4C";
paths = (
{
closed = 1;
nodes = (
"430 438 OFFCURVE",
"475 517 OFFCURVE",
"475 589 CURVE SMOOTH",
"475 671 OFFCURVE",
"416 744 OFFCURVE",
"328 744 CURVE SMOOTH",
"197 744 OFFCURVE",
"117 627 OFFCURVE",
"100 480 CURVE",
"28 476 LINE",
"24 437 LINE",
"92 427 LINE",
"85 346 OFFCURVE",
"75 222 OFFCURVE",
"66 88 CURVE SMOOTH",
"59 -13 OFFCURVE",
"56 -106 OFFCURVE",
"4 -162 CURVE",
"-105 -150 LINE",
"-125 -156 LINE",
"-133 -215 LINE",
"-123 -227 OFFCURVE",
"-102 -234 OFFCURVE",
"-77 -234 CURVE SMOOTH",
"-50 -234 OFFCURVE",
"-19 -226 OFFCURVE",
"8 -208 CURVE SMOOTH",
"108 -141 OFFCURVE",
"129 -47 OFFCURVE",
"145 142 CURVE SMOOTH",
"162 346 OFFCURVE",
"167 405 OFFCURVE",
"180 531 CURVE SMOOTH",
"188 606 OFFCURVE",
"213 651 OFFCURVE",
"260 675 CURVE",
"330 685 OFFCURVE",
"399 649 OFFCURVE",
"399 572 CURVE SMOOTH",
"399 507 OFFCURVE",
"348 433 OFFCURVE",
"257 414 CURVE",
"251 404 OFFCURVE",
"249 394 OFFCURVE",
"249 385 CURVE SMOOTH",
"249 346 OFFCURVE",
"297 318 OFFCURVE",
"343 290 CURVE SMOOTH",
"395 259 OFFCURVE",
"442 226 OFFCURVE",
"442 167 CURVE SMOOTH",
"442 97 OFFCURVE",
"399 51 OFFCURVE",
"319 51 CURVE SMOOTH",
"283 51 OFFCURVE",
"244 61 OFFCURVE",
"210 80 CURVE",
"190 40 LINE",
"230 10 OFFCURVE",
"275 -4 OFFCURVE",
"319 -4 CURVE SMOOTH",
"420 -4 OFFCURVE",
"513 70 OFFCURVE",
"513 186 CURVE SMOOTH",
"513 292 OFFCURVE",
"427 340 OFFCURVE",
"320 395 CURVE"
);
}
);
width = 560;
},
{
anchors = (
{
name = bottom;
position = "{190, 0}";
},
{
name = top;
position = "{240, 480}";
}
);
background = {
anchors = (
{
name = bottom;
position = "{81, 0}";
},
{
name = top;
position = "{131, 480}";
}
);
components = (
{
name = f;
transform = "{1, 0, 0, 1, -12, 0}";
}
);
};
guideLines = (
{
position = "{320, 92}";
}
);
layerId = "977FCFA9-45AC-4A33-B2D7-4D17E6BBF8E0";
paths = (
{
closed = 1;
nodes = (
"460 432 OFFCURVE",
"523 530 OFFCURVE",
"523 613 CURVE SMOOTH",
"523 685 OFFCURVE",
"476 747 OFFCURVE",
"369 747 CURVE SMOOTH",
"211 747 OFFCURVE",
"97 648 OFFCURVE",
"81 482 CURVE",
"6 479 LINE",
"0 425 LINE",
"72 414 LINE",
"66 334 OFFCURVE",
"60 225 OFFCURVE",
"51 105 CURVE SMOOTH",
"39 -59 OFFCURVE",
"42 -98 OFFCURVE",
"9 -138 CURVE",
"-97 -126 LINE",
"-127 -139 LINE",
"-135 -217 LINE",
"-126 -236 OFFCURVE",
"-103 -247 OFFCURVE",
"-72 -247 CURVE SMOOTH",
"-36 -247 OFFCURVE",
"11 -231 OFFCURVE",
"55 -191 CURVE SMOOTH",
"142 -113 OFFCURVE",
"163 -31 OFFCURVE",
"182 208 CURVE SMOOTH",
"191 317 OFFCURVE",
"202 428 OFFCURVE",
"215 531 CURVE SMOOTH",
"224 600 OFFCURVE",
"247 643 OFFCURVE",
"275 653 CURVE",
"335 654 OFFCURVE",
"381 611 OFFCURVE",
"381 558 CURVE SMOOTH",
"381 515 OFFCURVE",
"349 465 OFFCURVE",
"268 428 CURVE",
"259 414 OFFCURVE",
"254 394 OFFCURVE",
"254 366 CURVE SMOOTH",
"254 333 OFFCURVE",
"293 306 OFFCURVE",
"334 273 CURVE SMOOTH",
"374 241 OFFCURVE",
"412 204 OFFCURVE",
"412 152 CURVE SMOOTH",
"412 105 OFFCURVE",
"377 66 OFFCURVE",
"326 66 CURVE SMOOTH",
"304 66 OFFCURVE",
"279 73 OFFCURVE",
"252 90 CURVE",
"225 34 LINE",
"263 6 OFFCURVE",
"308 -7 OFFCURVE",
"352 -7 CURVE SMOOTH",
"457 -7 OFFCURVE",
"556 66 OFFCURVE",
"556 180 CURVE SMOOTH",
"556 296 OFFCURVE",
"454 350 OFFCURVE",
"354 399 CURVE"
);
}
);
width = 588;
},
{
associatedMasterId = "977FCFA9-45AC-4A33-B2D7-4D17E6BBF8E0";
background = {
anchors = (
{
name = bottom;
position = "{-623, 0}";
},
{
name = top;
position = "{-573, 480}";
}
);
};
guideLines = (
{
position = "{-425, 92}";
}
);
layerId = "E3741215-1F82-4AEE-80DD-00715A8C4FC5";
name = "Sep 10 17, 19:28";
paths = (
{
closed = 1;
nodes = (
"-103 -267 OFFCURVE",
"35 -231 OFFCURVE",
"98 -172 CURVE SMOOTH",
"167 -108 OFFCURVE",
"211 -23 OFFCURVE",
"226 133 CURVE SMOOTH",
"248 365 LINE SMOOTH",
"268 575 OFFCURVE",
"268 620 OFFCURVE",
"308 634 CURVE",
"408 650 OFFCURVE",
"412 465 OFFCURVE",
"301 428 CURVE",
"273 366 LINE",
"270 323 OFFCURVE",
"316 290 OFFCURVE",
"351 267 CURVE SMOOTH",
"397 236 OFFCURVE",
"444 214 OFFCURVE",
"439 159 CURVE SMOOTH",
"434 116 OFFCURVE",
"374 83 OFFCURVE",
"303 110 CURVE",
"287 85 OFFCURVE",
"274 41 OFFCURVE",
"269 16 CURVE",
"404 -60 OFFCURVE",
"592 30 OFFCURVE",
"610 199 CURVE SMOOTH",
"621 313 OFFCURVE",
"544 373 OFFCURVE",
"419 406 CURVE",
"504 425 OFFCURVE",
"556 500 OFFCURVE",
"564 575 CURVE SMOOTH",
"573 661 OFFCURVE",
"522 747 OFFCURVE",
"393 747 CURVE SMOOTH",
"234 747 OFFCURVE",
"111 646 OFFCURVE",
"94 481 CURVE",
"21 479 LINE",
"11 445 OFFCURVE",
"8 412 OFFCURVE",
"11 378 CURVE",
"78 368 LINE",
"58 102 LINE SMOOTH",
"47 -38 OFFCURVE",
"39 -73 OFFCURVE",
"12 -100 CURVE",
"-34 -96 OFFCURVE",
"-59 -95 OFFCURVE",
"-93 -91 CURVE",
"-121 -104 LINE",
"-131 -217 LINE"
);
}
);
width = 639;
}
);
leftKerningGroup = f;
leftMetricsKey = f;
rightKerningGroup = z;
rightMetricsKey = o;
unicode = 00DF;
},
{
color = 1;
glyphname = t;
lastChange = "2018-04-01 20:39:10 +0000";
layers = (
{
anchors = (
{
name = bottom;
position = "{143, 3}";
},
{
name = center;
position = "{142, 240}";
},
{
name = top;
position = "{163, 480}";
},
{
name = topright;
position = "{294, 480}";
}
);
background = {
components = (
{
name = f;
transform = "{1, 0, 0, 1, 10, 0}";
}
);
};
guideLines = (
{
position = "{155, 457}";
}
);
layerId = "71FD7A9F-05F5-4D76-8D4F-547475A05E4C";
paths = (
{
closed = 1;
nodes = (
"159 3 OFFCURVE",
"215 14 OFFCURVE",
"278 38 CURVE",
"271 80 LINE",
"164 70 LINE",
"136 105 OFFCURVE",
"163 319 OFFCURVE",
"177 431 CURVE",
"294 423 LINE SMOOTH",
"304 422 OFFCURVE",
"309 457 OFFCURVE",
"310 483 CURVE",
"261 482 OFFCURVE",
"204 481 OFFCURVE",
"187 480 CURVE",
"190 502 OFFCURVE",
"201 571 OFFCURVE",
"206 601 CURVE",
"196 610 LINE",
"165 591 OFFCURVE",
"136 576 OFFCURVE",
"123 570 CURVE",
"120 530 OFFCURVE",
"120 508 OFFCURVE",
"118 479 CURVE",
"44 476 LINE",
"39 437 LINE",
"109 425 LINE",
"102 340 OFFCURVE",
"82 204 OFFCURVE",
"77 118 CURVE SMOOTH",
"74 63 OFFCURVE",
"75 8 OFFCURVE",
"101 -5 CURVE"
);
}
);
width = 309;
},
{
anchors = (
{
name = bottom;
position = "{113, 3}";
},
{
name = center;
position = "{138, 240}";
},
{
name = top;
position = "{159, 480}";
},
{
name = topright;
position = "{290, 480}";
}
);
background = {
components = (
{
name = n;
transform = "{1, 0, 0, 1, -264, 0}";
}
);
};
guideLines = (
{
position = "{151, 457}";
},
{
position = "{-274, 379}";
}
);
layerId = "977FCFA9-45AC-4A33-B2D7-4D17E6BBF8E0";
paths = (
{
closed = 1;
nodes = (
"123 -5 OFFCURVE",
"233 9 OFFCURVE",
"296 33 CURVE",
"297 60 OFFCURVE",
"297 102 OFFCURVE",
"292 129 CURVE",
"216 124 LINE",
"192 159 OFFCURVE",
"211 255 OFFCURVE",
"225 367 CURVE",
"297 362 LINE SMOOTH",
"317 361 OFFCURVE",
"326 456 OFFCURVE",
"327 482 CURVE",
"278 481 OFFCURVE",
"254 480 OFFCURVE",
"237 479 CURVE",
"240 501 OFFCURVE",
"251 578 OFFCURVE",
"256 608 CURVE",
"229 623 LINE",
"193 607 OFFCURVE",
"126 591 OFFCURVE",
"97 579 CURVE",
"94 539 OFFCURVE",
"93 509 OFFCURVE",
"91 480 CURVE",
"32 476 LINE",
"25 447 OFFCURVE",
"22 407 OFFCURVE",
"21 378 CURVE",
"67 370 LINE",
"62 333 OFFCURVE",
"45 217 OFFCURVE",
"37 112 CURVE SMOOTH",
"33 57 OFFCURVE",
"39 8 OFFCURVE",
"65 -5 CURVE"
);
}
);
width = 324;
}
);
leftKerningGroup = i;
rightKerningGroup = t;
unicode = 0074;
},
{
color = 1;
glyphname = u;
lastChange = "2018-04-01 20:39:10 +0000";
layers = (
{
anchors = (
{
name = bottom;
position = "{247, 0}";
},
{
name = ogonek;
position = "{460, 10}";
},
{
name = top;
position = "{274, 480}";
},
{
name = topright;
position = "{498, 480}";
}
);
background = {
anchors = (
{
name = bottom;
position = "{246, 3}";
},
{
name = top;
position = "{296, 483}";
}
);
components = (
{
name = n;
transform = "{-1, 0, 0, -1, 560, 483}";
}
);
};
layerId = "977FCFA9-45AC-4A33-B2D7-4D17E6BBF8E0";
paths = (
{
closed = 1;
nodes = (
"477 122 LINE",
"473 191 OFFCURVE",
"501 362 OFFCURVE",
"519 461 CURVE",
"482 483 OFFCURVE",
"380 485 OFFCURVE",
"337 483 CURVE",
"313 195 LINE",
"332 191 LINE",
"311 95 OFFCURVE",
"296 30 OFFCURVE",
"324 -7 CURVE",
"385 -1 OFFCURVE",
"475 10 OFFCURVE",
"536 30 CURVE",
"537 56 OFFCURVE",
"537 101 OFFCURVE",
"532 126 CURVE"
);
},
{
closed = 1;
nodes = (
"24 449 OFFCURVE",
"20 408 OFFCURVE",
"19 377 CURVE",
"76 366 LINE",
"80 315 OFFCURVE",
"48 238 OFFCURVE",
"33 143 CURVE SMOOTH",
"12 11 OFFCURVE",
"127 -31 OFFCURVE",
"254 0 CURVE",
"295 95 OFFCURVE",
"345 250 OFFCURVE",
"382 386 CURVE",
"337 483 LINE",
"310 338 OFFCURVE",
"277 225 OFFCURVE",
"227 135 CURVE",
"207 133 OFFCURVE",
"204 152 OFFCURVE",
"211 186 CURVE SMOOTH",
"237 310 OFFCURVE",
"249 372 OFFCURVE",
"272 480 CURVE",
"225 489 OFFCURVE",
"55 488 OFFCURVE",
"31 480 CURVE"
);
}
);
width = 558;
},
{
anchors = (
{
name = bottom;
position = "{214, 0}";
},
{
name = ogonek;
position = "{427, 10}";
},
{
name = top;
position = "{245, 508}";
},
{
name = topright;
position = "{465, 480}";
}
);
background = {
components = (
{
name = n;
transform = "{-1, 0, 0, -1, 502, 483}";
}
);
};
layerId = "71FD7A9F-05F5-4D76-8D4F-547475A05E4C";
paths = (
{
closed = 1;
nodes = (
"405 70 LINE",
"392 116 OFFCURVE",
"421 335 OFFCURVE",
"445 473 CURVE",
"430 486 OFFCURVE",
"383 490 OFFCURVE",
"361 486 CURVE",
"352 296 LINE",
"368 296 LINE",
"329 120 OFFCURVE",
"306 22 OFFCURVE",
"345 -5 CURVE",
"403 8 OFFCURVE",
"448 19 OFFCURVE",
"490 37 CURVE",
"483 79 LINE"
);
},
{
closed = 1;
nodes = (
"45 440 LINE",
"111 423 LINE",
"109 344 OFFCURVE",
"93 268 OFFCURVE",
"69 128 CURVE SMOOTH",
"49 11 OFFCURVE",
"99 -25 OFFCURVE",
"215 1 CURVE",
"265 79 OFFCURVE",
"325 193 OFFCURVE",
"385 394 CURVE",
"361 486 LINE",
"338 344 OFFCURVE",
"262 168 OFFCURVE",
"187 61 CURVE",
"133 55 OFFCURVE",
"124 72 OFFCURVE",
"142 168 CURVE SMOOTH",
"168 304 OFFCURVE",
"184 378 OFFCURVE",
"201 480 CURVE",
"165 486 OFFCURVE",
"84 482 OFFCURVE",
"49 476 CURVE"
);
}
);
width = 516;
}
);
leftKerningGroup = u;
note = " ";
rightKerningGroup = i;
unicode = 0075;
},
{
color = 1;
glyphname = v;
lastChange = "2018-04-01 20:39:10 +0000";
layers = (
{
anchors = (
{
name = bottom;
position = "{184, 0}";
},
{
name = top;
position = "{234, 480}";
}
);
background = {
components = (
{
name = w;
transform = "{1, 0, 0, 1, -192, 0}";
}
);
};
layerId = "71FD7A9F-05F5-4D76-8D4F-547475A05E4C";
paths = (
{
closed = 1;
nodes = (
"300 481 OFFCURVE",
"263 473 CURVE",
"259 448 OFFCURVE",
"256 423 OFFCURVE",
"259 397 CURVE",
"348 407 LINE",
"352 351 OFFCURVE",
"300 178 OFFCURVE",
"220 76 CURVE",
"150 87 LINE",
"159 287 OFFCURVE",
"166 468 OFFCURVE",
"160 480 CURVE",
"127 489 OFFCURVE",
"30 482 OFFCURVE",
"17 477 CURVE",
"14 441 LINE",
"81 422 LINE",
"90 365 OFFCURVE",
"91 178 OFFCURVE",
"98 28 CURVE",
"110 9 OFFCURVE",
"149 0 OFFCURVE",
"216 -1 CURVE",
"308 103 OFFCURVE",
"450 373 OFFCURVE",
"403 475 CURVE",
"365 487 OFFCURVE"
);
}
);
width = 425;
},
{
anchors = (
{
name = bottom;
position = "{244, 0}";
},
{
name = top;
position = "{294, 480}";
}
);
background = {
components = (
{
name = n;
transform = "{1, 0, 0, 1, 68, 0}";
}
);
};
guideLines = (
{
angle = 84;
position = "{276, 383}";
}
);
layerId = "977FCFA9-45AC-4A33-B2D7-4D17E6BBF8E0";
paths = (
{
closed = 1;
nodes = (
"478 494 OFFCURVE",
"337 492 OFFCURVE",
"296 480 CURVE",
"289 448 OFFCURVE",
"285 408 OFFCURVE",
"285 374 CURVE",
"327 368 LINE",
"329 309 OFFCURVE",
"314 214 OFFCURVE",
"264 137 CURVE",
"233 141 LINE",
"251 341 OFFCURVE",
"262 470 OFFCURVE",
"253 482 CURVE",
"209 493 OFFCURVE",
"82 491 OFFCURVE",
"30 480 CURVE",
"21 443 OFFCURVE",
"16 409 OFFCURVE",
"19 374 CURVE",
"64 368 LINE",
"73 311 OFFCURVE",
"79 177 OFFCURVE",
"91 27 CURVE",
"103 8 OFFCURVE",
"253 -5 OFFCURVE",
"291 -4 CURVE",
"384 99 OFFCURVE",
"493 294 OFFCURVE",
"514 480 CURVE"
);
}
);
width = 495;
}
);
leftKerningGroup = v;
rightKerningGroup = g;
unicode = 0076;
},
{
color = 1;
glyphname = w;
lastChange = "2018-04-01 20:39:09 +0000";
layers = (
{
anchors = (
{
name = bottom;
position = "{289, 0}";
},
{
name = top;
position = "{334, 508}";
}
);
background = {
components = (
{
name = y;
transform = "{1, 0, 0, 1, -1, 0}";
}
);
};
guideLines = (
{
angle = -12;
position = "{701, 437}";
},
{
angle = -96;
position = "{351, 480}";
}
);
layerId = "71FD7A9F-05F5-4D76-8D4F-547475A05E4C";
paths = (
{
closed = 1;
nodes = (
"323 396 LINE",
"323 340 OFFCURVE",
"283 179 OFFCURVE",
"203 77 CURVE",
"152 85 LINE",
"161 285 OFFCURVE",
"170 468 OFFCURVE",
"164 480 CURVE",
"122 485 OFFCURVE",
"28 482 OFFCURVE",
"15 477 CURVE",
"11 441 LINE",
"78 421 LINE",
"87 364 OFFCURVE",
"90 178 OFFCURVE",
"102 28 CURVE",
"114 9 OFFCURVE",
"152 0 OFFCURVE",
"199 -1 CURVE",
"291 103 OFFCURVE",
"403 358 OFFCURVE",
"355 441 CURVE"
);
},
{
closed = 1;
nodes = (
"566 485 OFFCURVE",
"502 480 OFFCURVE",
"463 473 CURVE",
"457 446 OFFCURVE",
"457 424 OFFCURVE",
"459 397 CURVE",
"547 408 LINE",
"551 352 OFFCURVE",
"501 181 OFFCURVE",
"421 79 CURVE",
"370 87 LINE",
"377 287 OFFCURVE",
"393 455 OFFCURVE",
"384 460 CURVE",
"358 475 OFFCURVE",
"331 479 OFFCURVE",
"299 480 CURVE",
"283 472 OFFCURVE",
"309 177 OFFCURVE",
"321 27 CURVE",
"333 8 OFFCURVE",
"370 0 OFFCURVE",
"417 -1 CURVE",
"509 103 OFFCURVE",
"646 365 OFFCURVE",
"604 474 CURVE"
);
}
);
width = 626;
},
{
anchors = (
{
name = bottom;
position = "{335, 0}";
},
{
name = top;
position = "{360, 480}";
}
);
background = {
components = (
{
name = u;
transform = "{1, 0, 0, 1, -22, 0}";
}
);
};
guideLines = (
{
angle = 84;
position = "{477, 322}";
},
{
angle = -96;
position = "{397, 480}";
},
{
position = "{18, 369}";
}
);
layerId = "977FCFA9-45AC-4A33-B2D7-4D17E6BBF8E0";
paths = (
{
closed = 1;
nodes = (
"330 411 LINE",
"330 355 OFFCURVE",
"319 235 OFFCURVE",
"261 136 CURVE",
"234 140 LINE",
"250 334 OFFCURVE",
"260 470 OFFCURVE",
"254 482 CURVE",
"188 491 OFFCURVE",
"89 492 OFFCURVE",
"28 480 CURVE",
"21 449 OFFCURVE",
"17 415 OFFCURVE",
"17 379 CURVE",
"65 367 LINE",
"74 310 OFFCURVE",
"76 172 OFFCURVE",
"88 22 CURVE",
"128 5 OFFCURVE",
"231 -3 OFFCURVE",
"278 -4 CURVE",
"366 115 OFFCURVE",
"405 293 OFFCURVE",
"421 411 CURVE"
);
},
{
closed = 1;
nodes = (
"710 489 OFFCURVE",
"576 490 OFFCURVE",
"536 481 CURVE",
"528 449 OFFCURVE",
"525 411 OFFCURVE",
"527 376 CURVE",
"571 368 LINE",
"575 312 OFFCURVE",
"560 218 OFFCURVE",
"506 137 CURVE",
"479 141 LINE",
"487 341 OFFCURVE",
"488 393 OFFCURVE",
"494 461 CURVE",
"468 478 OFFCURVE",
"368 487 OFFCURVE",
"309 483 CURVE",
"308 358 OFFCURVE",
"337 163 OFFCURVE",
"349 20 CURVE",
"388 2 OFFCURVE",
"487 -4 OFFCURVE",
"535 -4 CURVE",
"634 100 OFFCURVE",
"755 355 OFFCURVE",
"755 480 CURVE"
);
}
);
width = 737;
}
);
leftKerningGroup = v;
note = "compare with v";
rightKerningGroup = g;
unicode = 0077;
},
{
color = 1;
glyphname = x;
lastChange = "2018-04-01 20:39:09 +0000";
layers = (
{
anchors = (
{
name = bottom;
position = "{192, 0}";
},
{
name = top;
position = "{242, 480}";
}
);
background = {
components = (
{
name = n;
transform = "{1, 0, 0, 1, -1, 0}";
}
);
};
layerId = "71FD7A9F-05F5-4D76-8D4F-547475A05E4C";
paths = (
{
closed = 1;
nodes = (
"416 51 OFFCURVE",
"414 65 OFFCURVE",
"409 80 CURVE",
"337 71 LINE",
"320 94 OFFCURVE",
"297 155 OFFCURVE",
"246 267 CURVE",
"225 271 LINE",
"214 323 OFFCURVE",
"192 426 OFFCURVE",
"174 476 CURVE",
"137 480 OFFCURVE",
"93 483 OFFCURVE",
"40 476 CURVE",
"38 464 OFFCURVE",
"36 448 OFFCURVE",
"36 434 CURVE",
"104 415 LINE",
"133 357 OFFCURVE",
"171 252 OFFCURVE",
"189 192 CURVE",
"219 187 LINE",
"231 134 OFFCURVE",
"248 21 OFFCURVE",
"284 -5 CURVE",
"331 7 OFFCURVE",
"367 20 OFFCURVE",
"417 36 CURVE"
);
},
{
closed = 1;
nodes = (
"250 220 LINE",
"272 275 OFFCURVE",
"334 385 OFFCURVE",
"355 403 CURVE",
"423 394 LINE",
"431 425 OFFCURVE",
"432 449 OFFCURVE",
"433 480 CURVE",
"410 488 OFFCURVE",
"360 487 OFFCURVE",
"340 481 CURVE",
"317 467 OFFCURVE",
"241 327 OFFCURVE",
"216 237 CURVE"
);
},
{
closed = 1;
nodes = (
"186 270 LINE",
"164 215 OFFCURVE",
"99 95 OFFCURVE",
"78 77 CURVE",
"10 87 LINE",
"2 58 OFFCURVE",
"-2 34 OFFCURVE",
"-3 1 CURVE",
"22 -5 OFFCURVE",
"58 -5 OFFCURVE",
"94 0 CURVE",
"114 18 OFFCURVE",
"188 157 OFFCURVE",
"215 245 CURVE"
);
}
);
width = 447;
},
{
anchors = (
{
name = bottom;
position = "{210, 0}";
},
{
name = top;
position = "{261, 480}";
}
);
background = {
paths = (
{
closed = 1;
nodes = (
"26 420 OFFCURVE",
"27 389 OFFCURVE",
"31 356 CURVE",
"99 360 LINE",
"124 308 OFFCURVE",
"151 230 OFFCURVE",
"179 159 CURVE",
"219 154 LINE",
"213 86 OFFCURVE",
"208 58 OFFCURVE",
"204 -1 CURVE",
"284 -7 OFFCURVE",
"358 -7 OFFCURVE",
"434 1 CURVE",
"443 33 OFFCURVE",
"447 69 OFFCURVE",
"448 107 CURVE",
"369 120 LINE",
"345 179 OFFCURVE",
"322 250 OFFCURVE",
"300 327 CURVE",
"256 329 LINE",
"264 395 OFFCURVE",
"260 450 OFFCURVE",
"241 486 CURVE",
"167 484 OFFCURVE",
"72 467 OFFCURVE",
"28 451 CURVE"
);
}
);
};
layerId = "977FCFA9-45AC-4A33-B2D7-4D17E6BBF8E0";
paths = (
{
closed = 1;
nodes = (
"437 61 OFFCURVE",
"436 92 OFFCURVE",
"432 125 CURVE",
"375 121 LINE",
"350 173 OFFCURVE",
"323 251 OFFCURVE",
"295 322 CURVE",
"264 327 LINE",
"264 394 OFFCURVE",
"261 435 OFFCURVE",
"257 482 CURVE",
"182 488 OFFCURVE",
"113 487 OFFCURVE",
"40 480 CURVE",
"31 448 OFFCURVE",
"27 412 OFFCURVE",
"26 374 CURVE",
"92 361 LINE",
"116 302 OFFCURVE",
"152 231 OFFCURVE",
"174 154 CURVE",
"196 149 LINE",
"205 85 OFFCURVE",
"224 7 OFFCURVE",
"253 -5 CURVE",
"327 -3 OFFCURVE",
"391 14 OFFCURVE",
"435 30 CURVE"
);
},
{
closed = 1;
nodes = (
"300 208 LINE",
"325 265 OFFCURVE",
"334 291 OFFCURVE",
"352 328 CURVE",
"448 317 LINE",
"463 348 OFFCURVE",
"474 450 OFFCURVE",
"473 480 CURVE",
"430 487 OFFCURVE",
"370 486 OFFCURVE",
"330 480 CURVE",
"305 432 OFFCURVE",
"286 361 OFFCURVE",
"247 237 CURVE"
);
},
{
closed = 1;
nodes = (
"159 272 LINE",
"134 215 OFFCURVE",
"125 189 OFFCURVE",
"107 152 CURVE",
"11 163 LINE",
"-4 132 OFFCURVE",
"-15 30 OFFCURVE",
"-14 0 CURVE",
"29 -11 OFFCURVE",
"97 -6 OFFCURVE",
"131 0 CURVE",
"160 48 OFFCURVE",
"175 119 OFFCURVE",
"212 243 CURVE"
);
}
);
width = 464;
},
{
anchors = (
{
name = bottom;
position = "{206, 0}";
},
{
name = top;
position = "{257, 480}";
}
);
associatedMasterId = "977FCFA9-45AC-4A33-B2D7-4D17E6BBF8E0";
background = {
backgroundImage = {
crop = "{{0, 0}, {123, 109}}";
imagePath = "/Users/masterfgh/Desktop/Screen Shot 2017-09-10 at 18.40.16.png";
locked = "1";
transform = "{5.90953, 0, 0, 5.90953, -119, -94}";
};
paths = (
{
closed = 1;
nodes = (
"433 61 OFFCURVE",
"432 92 OFFCURVE",
"428 125 CURVE",
"371 121 LINE",
"346 173 OFFCURVE",
"332 234 OFFCURVE",
"314 321 CURVE",
"260 327 LINE",
"260 394 OFFCURVE",
"257 435 OFFCURVE",
"253 482 CURVE",
"178 488 OFFCURVE",
"109 487 OFFCURVE",
"36 480 CURVE",
"27 448 OFFCURVE",
"23 412 OFFCURVE",
"22 374 CURVE",
"88 361 LINE",
"112 302 OFFCURVE",
"122 231 OFFCURVE",
"144 154 CURVE",
"192 149 LINE",
"201 85 OFFCURVE",
"220 7 OFFCURVE",
"249 -5 CURVE",
"323 -3 OFFCURVE",
"387 14 OFFCURVE",
"431 30 CURVE"
);
},
{
closed = 1;
nodes = (
"296 208 LINE",
"321 265 OFFCURVE",
"330 291 OFFCURVE",
"348 328 CURVE",
"444 317 LINE",
"459 348 OFFCURVE",
"470 450 OFFCURVE",
"469 480 CURVE",
"426 487 OFFCURVE",
"370 486 OFFCURVE",
"330 480 CURVE",
"301 432 OFFCURVE",
"285 361 OFFCURVE",
"243 237 CURVE"
);
},
{
closed = 1;
nodes = (
"158 272 LINE",
"133 215 OFFCURVE",
"124 189 OFFCURVE",
"106 152 CURVE",
"10 163 LINE",
"-5 132 OFFCURVE",
"-16 30 OFFCURVE",
"-15 0 CURVE",
"28 -11 OFFCURVE",
"90 -6 OFFCURVE",
"124 0 CURVE",
"153 48 OFFCURVE",
"169 119 OFFCURVE",
"211 243 CURVE"
);
}
);
};
layerId = "39E10F32-A52A-4F07-B565-C13F8350CCE5";
name = "Sep 10 17, 18:40";
paths = (
{
closed = 1;
nodes = (
"433 61 OFFCURVE",
"432 97 OFFCURVE",
"428 130 CURVE",
"371 126 LINE",
"346 178 OFFCURVE",
"332 234 OFFCURVE",
"314 321 CURVE",
"260 327 LINE",
"257 394 OFFCURVE",
"255 435 OFFCURVE",
"253 482 CURVE",
"178 488 OFFCURVE",
"109 487 OFFCURVE",
"36 480 CURVE",
"27 448 OFFCURVE",
"23 410 OFFCURVE",
"22 372 CURVE",
"78 359 LINE",
"102 300 OFFCURVE",
"122 231 OFFCURVE",
"144 154 CURVE",
"192 149 LINE",
"201 85 OFFCURVE",
"210 38 OFFCURVE",
"229 -5 CURVE",
"303 -3 OFFCURVE",
"387 14 OFFCURVE",
"431 30 CURVE"
);
},
{
closed = 1;
nodes = (
"296 208 LINE",
"321 265 OFFCURVE",
"330 291 OFFCURVE",
"348 328 CURVE",
"444 317 LINE",
"459 348 OFFCURVE",
"470 450 OFFCURVE",
"469 480 CURVE",
"426 487 OFFCURVE",
"370 486 OFFCURVE",
"330 480 CURVE",
"301 432 OFFCURVE",
"285 361 OFFCURVE",
"243 237 CURVE"
);
},
{
closed = 1;
nodes = (
"158 272 LINE",
"133 215 OFFCURVE",
"124 189 OFFCURVE",
"106 152 CURVE",
"10 163 LINE",
"-5 132 OFFCURVE",
"-16 30 OFFCURVE",
"-15 0 CURVE",
"28 -11 OFFCURVE",
"90 -6 OFFCURVE",
"124 0 CURVE",
"153 48 OFFCURVE",
"169 119 OFFCURVE",
"211 243 CURVE"
);
}
);
width = 451;
}
);
leftKerningGroup = z;
rightKerningGroup = z;
unicode = 0078;
},
{
color = 1;
glyphname = y;
lastChange = "2018-04-01 20:39:09 +0000";
layers = (
{
anchors = (
{
name = bottom;
position = "{166, 0}";
},
{
name = top;
position = "{209, 508}";
}
);
background = {
components = (
{
name = v;
}
);
};
components = (
{
name = v;
}
);
guideLines = (
{
angle = 84;
position = "{226, 314}";
},
{
position = "{-405, -234}";
}
);
layerId = "71FD7A9F-05F5-4D76-8D4F-547475A05E4C";
paths = (
{
closed = 1;
nodes = (
"190 24 LINE",
"126 -60 OFFCURVE",
"53 -111 OFFCURVE",
"-42 -158 CURVE",
"-42 -186 LINE",
"24 -237 LINE",
"124 -156 OFFCURVE",
"306 90 OFFCURVE",
"352 220 CURVE"
);
}
);
width = 427;
},
{
anchors = (
{
name = bottom;
position = "{190, 0}";
},
{
name = top;
position = "{227, 480}";
}
);
associatedMasterId = "977FCFA9-45AC-4A33-B2D7-4D17E6BBF8E0";
background = {
anchors = (
{
name = bottom;
position = "{188, 0}";
},
{
name = top;
position = "{238, 480}";
}
);
components = (
{
name = v;
transform = "{1, 0, 0, 1, -29, 0}";
}
);
};
layerId = "3EE97FE3-06D2-4298-AB48-199B4A48A5A7";
name = "Sep 10 17, 18:00";
paths = (
{
closed = 1;
nodes = (
"0 443 OFFCURVE",
"-2 408 OFFCURVE",
"-1 373 CURVE",
"44 368 LINE",
"52 300 OFFCURVE",
"66 136 OFFCURVE",
"73 35 CURVE",
"160 -8 OFFCURVE",
"208 -5 OFFCURVE",
"306 125 CURVE",
"213 142 LINE",
"220 254 OFFCURVE",
"239 426 OFFCURVE",
"234 482 CURVE",
"196 494 OFFCURVE",
"40 489 OFFCURVE",
"10 480 CURVE"
);
},
{
closed = 1;
nodes = (
"269 450 OFFCURVE",
"260 410 OFFCURVE",
"266 373 CURVE",
"308 367 LINE",
"308 292 OFFCURVE",
"285 173 OFFCURVE",
"206 71 CURVE",
"171 21 LINE",
"30 -97 OFFCURVE",
"6 -199 OFFCURVE",
"2 -251 CURVE",
"56 -279 OFFCURVE",
"117 -289 OFFCURVE",
"180 -289 CURVE",
"194 -70 OFFCURVE",
"266 -9 OFFCURVE",
"347 105 CURVE SMOOTH",
"409 192 OFFCURVE",
"481 350 OFFCURVE",
"494 480 CURVE",
"457 493 OFFCURVE",
"325 493 OFFCURVE",
"276 480 CURVE"
);
}
);
width = 428;
},
{
anchors = (
{
name = bottom;
position = "{190, 0}";
},
{
name = top;
position = "{227, 480}";
}
);
associatedMasterId = "977FCFA9-45AC-4A33-B2D7-4D17E6BBF8E0";
background = {
anchors = (
{
name = bottom;
position = "{188, 0}";
},
{
name = top;
position = "{238, 480}";
}
);
components = (
{
name = v;
transform = "{1, 0, 0, 1, -29, 0}";
}
);
};
layerId = "5AAB991D-6F83-467B-9806-FDB8B676F467";
name = "Sep 10 17, 18:19";
paths = (
{
closed = 1;
nodes = (
"0 443 OFFCURVE",
"-2 408 OFFCURVE",
"-1 373 CURVE",
"44 368 LINE",
"52 300 OFFCURVE",
"64 129 OFFCURVE",
"71 28 CURVE",
"97 9 OFFCURVE",
"174 0 OFFCURVE",
"203 19 CURVE",
"276 135 LINE",
"213 142 LINE",
"220 254 OFFCURVE",
"239 426 OFFCURVE",
"234 482 CURVE",
"196 494 OFFCURVE",
"40 489 OFFCURVE",
"10 480 CURVE"
);
},
{
closed = 1;
nodes = (
"269 450 OFFCURVE",
"260 410 OFFCURVE",
"266 373 CURVE",
"308 367 LINE",
"308 292 OFFCURVE",
"275 166 OFFCURVE",
"210 71 CURVE",
"191 38 LINE",
"147 -38 OFFCURVE",
"102 -76 OFFCURVE",
"53 -102 CURVE",
"15 -100 OFFCURVE",
"-3 -96 OFFCURVE",
"-41 -91 CURVE",
"-73 -107 LINE",
"-81 -229 LINE",
"99 -280 OFFCURVE",
"235 -96 OFFCURVE",
"344 80 CURVE SMOOTH",
"423 207 OFFCURVE",
"481 350 OFFCURVE",
"494 480 CURVE",
"457 493 OFFCURVE",
"325 493 OFFCURVE",
"276 480 CURVE"
);
}
);
width = 428;
},
{
anchors = (
{
name = bottom;
position = "{209, 0}";
},
{
name = top;
position = "{246, 480}";
}
);
background = {
anchors = (
{
name = bottom;
position = "{207, 0}";
},
{
name = top;
position = "{257, 480}";
}
);
components = (
{
name = v;
transform = "{1, 0, 0, 1, -10, 0}";
}
);
};
components = (
{
name = v;
}
);
layerId = "977FCFA9-45AC-4A33-B2D7-4D17E6BBF8E0";
paths = (
{
closed = 1;
nodes = (
"202 24 LINE",
"135 -41 OFFCURVE",
"69 -59 OFFCURVE",
"-26 -86 CURVE",
"-32 -148 LINE",
"89 -237 LINE",
"189 -156 OFFCURVE",
"378 83 OFFCURVE",
"424 220 CURVE"
);
}
);
width = 494;
}
);
leftKerningGroup = v;
note = " ";
unicode = 0079;
},
{
color = 1;
glyphname = z;
lastChange = "2018-04-01 20:39:10 +0000";
layers = (
{
anchors = (
{
name = bottom;
position = "{184, 0}";
},
{
name = top;
position = "{226, 508}";
}
);
background = {
paths = (
{
closed = 1;
nodes = (
"119 369 OFFCURVE",
"140 386 OFFCURVE",
"195 385 CURVE SMOOTH",
"296 384 LINE",
"12 20 LINE",
"23 3 LINE",
"58 24 OFFCURVE",
"87 33 OFFCURVE",
"115 33 CURVE SMOOTH",
"151 33 OFFCURVE",
"183 22 OFFCURVE",
"212 11 CURVE SMOOTH",
"241 0 OFFCURVE",
"269 -12 OFFCURVE",
"300 -12 CURVE SMOOTH",
"324 -12 OFFCURVE",
"346 -1 OFFCURVE",
"362 19 CURVE SMOOTH",
"378 38 OFFCURVE",
"388 63 OFFCURVE",
"388 91 CURVE SMOOTH",
"388 102 OFFCURVE",
"385 114 OFFCURVE",
"380 130 CURVE",
"362 132 LINE",
"352 89 OFFCURVE",
"328 67 OFFCURVE",
"289 67 CURVE SMOOTH",
"266 67 OFFCURVE",
"242 73 OFFCURVE",
"218 78 CURVE SMOOTH",
"193 83 OFFCURVE",
"168 89 OFFCURVE",
"147 89 CURVE",
"118 82 LINE",
"133 103 OFFCURVE",
"152 127 OFFCURVE",
"174 155 CURVE SMOOTH",
"218 211 OFFCURVE",
"270 276 OFFCURVE",
"328 344 CURVE SMOOTH",
"357 378 OFFCURVE",
"385 412 OFFCURVE",
"413 445 CURVE",
"408 464 LINE",
"364 471 LINE",
"348 451 LINE",
"337 439 OFFCURVE",
"332 436 OFFCURVE",
"317 436 CURVE SMOOTH",
"294 436 OFFCURVE",
"270 438 OFFCURVE",
"246 441 CURVE SMOOTH",
"198 447 OFFCURVE",
"156 453 OFFCURVE",
"112 464 CURVE",
"98 454 LINE",
"95 439 OFFCURVE",
"92 423 OFFCURVE",
"88 406 CURVE SMOOTH",
"80 373 OFFCURVE",
"73 345 OFFCURVE",
"64 314 CURVE",
"103 320 LINE"
);
}
);
};
layerId = "71FD7A9F-05F5-4D76-8D4F-547475A05E4C";
paths = (
{
closed = 1;
nodes = (
"108 5 OFFCURVE",
"134 32 OFFCURVE",
"168 80 CURVE SMOOTH",
"186 105 OFFCURVE",
"359 354 OFFCURVE",
"421 472 CURVE",
"408 482 OFFCURVE",
"382 483 OFFCURVE",
"362 483 CURVE",
"335 429 LINE",
"112 95 LINE",
"86 99 OFFCURVE",
"64 98 OFFCURVE",
"33 105 CURVE",
"27 72 OFFCURVE",
"24 48 OFFCURVE",
"23 20 CURVE",
"32 7 OFFCURVE",
"48 -6 OFFCURVE",
"76 -1 CURVE SMOOTH"
);
},
{
closed = 1;
nodes = (
"366 50 OFFCURVE",
"376 77 OFFCURVE",
"390 119 CURVE",
"376 124 OFFCURVE",
"357 127 OFFCURVE",
"343 130 CURVE",
"317 79 LINE",
"283 69 OFFCURVE",
"226 65 OFFCURVE",
"166 98 CURVE",
"125 72 LINE",
"190 8 OFFCURVE",
"262 -35 OFFCURVE",
"352 16 CURVE"
);
},
{
closed = 1;
nodes = (
"134 392 LINE",
"212 401 OFFCURVE",
"272 395 OFFCURVE",
"322 390 CURVE",
"354 455 LINE",
"275 460 OFFCURVE",
"156 467 OFFCURVE",
"82 479 CURVE",
"76 414 OFFCURVE",
"72 387 OFFCURVE",
"68 333 CURVE",
"81 330 OFFCURVE",
"98 328 OFFCURVE",
"111 328 CURVE"
);
}
);
width = 434;
},
{
anchors = (
{
name = bottom;
position = "{185, 0}";
},
{
name = top;
position = "{235, 480}";
}
);
layerId = "977FCFA9-45AC-4A33-B2D7-4D17E6BBF8E0";
paths = (
{
closed = 1;
nodes = (
"79 -4 OFFCURVE",
"132 25 OFFCURVE",
"171 76 CURVE SMOOTH",
"217 136 OFFCURVE",
"388 349 OFFCURVE",
"452 467 CURVE",
"441 484 OFFCURVE",
"374 486 OFFCURVE",
"355 484 CURVE",
"320 443 LINE",
"116 160 LINE",
"94 163 OFFCURVE",
"50 171 OFFCURVE",
"17 181 CURVE",
"9 139 OFFCURVE",
"-4 54 OFFCURVE",
"-6 22 CURVE",
"3 7 OFFCURVE",
"23 -4 OFFCURVE",
"52 -4 CURVE SMOOTH"
);
},
{
closed = 1;
nodes = (
"394 51 OFFCURVE",
"419 134 OFFCURVE",
"432 180 CURVE",
"395 194 OFFCURVE",
"371 200 OFFCURVE",
"327 205 CURVE",
"301 152 LINE",
"267 146 OFFCURVE",
"240 144 OFFCURVE",
"163 191 CURVE",
"91 66 LINE",
"155 2 OFFCURVE",
"290 -34 OFFCURVE",
"381 17 CURVE"
);
},
{
closed = 1;
nodes = (
"154 314 LINE",
"198 320 OFFCURVE",
"312 316 OFFCURVE",
"337 314 CURVE",
"382 455 LINE",
"308 455 OFFCURVE",
"138 472 OFFCURVE",
"50 484 CURVE",
"40 425 OFFCURVE",
"29 316 OFFCURVE",
"27 268 CURVE",
"60 259 OFFCURVE",
"97 254 OFFCURVE",
"132 259 CURVE"
);
}
);
width = 440;
}
);
leftKerningGroup = z;
rightKerningGroup = z;
unicode = 007A;
},
{
color = 5;
glyphname = fi;
lastChange = "2017-09-10 19:17:56 +0000";
layers = (
{
anchors = (
{
name = bottom;
position = "{420, 0}";
},
{
name = ogonek;
position = "{521, 10}";
},
{
name = top;
position = "{472, 487}";
}
);
background = {
components = (
{
name = i;
transform = "{1, 0, 0, 1, 36, 0}";
}
);
};
components = (
{
name = idotless;
transform = "{1, 0, 0, 1, 216, 0}";
}
);
layerId = "71FD7A9F-05F5-4D76-8D4F-547475A05E4C";
paths = (
{
closed = 1;
nodes = (
"356 760 OFFCURVE",
"250 751 OFFCURVE",
"181 680 CURVE SMOOTH",
"139 636 OFFCURVE",
"111 572 OFFCURVE",
"100 480 CURVE",
"28 476 LINE",
"24 437 LINE",
"92 427 LINE",
"85 349 OFFCURVE",
"77 231 OFFCURVE",
"68 116 CURVE SMOOTH",
"55 -48 OFFCURVE",
"52 -110 OFFCURVE",
"4 -162 CURVE",
"-42 -159 OFFCURVE",
"-77 -154 OFFCURVE",
"-105 -150 CURVE",
"-125 -156 LINE",
"-133 -215 LINE",
"-113 -241 OFFCURVE",
"-51 -241 OFFCURVE",
"-7 -217 CURVE SMOOTH",
"88 -165 OFFCURVE",
"125 -76 OFFCURVE",
"139 84 CURVE SMOOTH",
"170 432 LINE",
"214 430 OFFCURVE",
"362 426 OFFCURVE",
"380 426 CURVE",
"373 483 LINE",
"175 480 LINE",
"190 610 OFFCURVE",
"203 646 OFFCURVE",
"263 676 CURVE",
"305 676 OFFCURVE",
"352 667 OFFCURVE",
"389 639 CURVE",
"407 645 LINE",
"417 719 LINE"
);
}
);
width = 468;
},
{
anchors = (
{
name = bottom;
position = "{317, 0}";
},
{
name = ogonek;
position = "{418, 10}";
},
{
name = top;
position = "{369, 487}";
}
);
background = {
components = (
{
name = f;
transform = "{1, 0, 0, 1, -12, 0}";
}
);
};
components = (
{
name = idotless;
transform = "{1, 0, 0, 1, 272, 0}";
}
);
layerId = "977FCFA9-45AC-4A33-B2D7-4D17E6BBF8E0";
paths = (
{
closed = 1;
nodes = (
"135 654 OFFCURVE",
"94 582 OFFCURVE",
"81 481 CURVE",
"-5 479 LINE",
"-11 425 LINE",
"72 414 LINE",
"51 102 LINE SMOOTH",
"39 -73 OFFCURVE",
"36 -111 OFFCURVE",
"9 -138 CURVE",
"-37 -134 OFFCURVE",
"-64 -131 OFFCURVE",
"-98 -126 CURVE",
"-126 -139 LINE",
"-135 -217 LINE",
"-107 -267 OFFCURVE",
"-9 -251 OFFCURVE",
"54 -192 CURVE SMOOTH",
"123 -128 OFFCURVE",
"156 -61 OFFCURVE",
"171 94 CURVE SMOOTH",
"202 414 LINE",
"376 408 LINE SMOOTH",
"383 408 OFFCURVE",
"397 413 OFFCURVE",
"400 485 CURVE",
"208 480 LINE",
"220 589 OFFCURVE",
"233 626 OFFCURVE",
"270 652 CURVE",
"316 653 OFFCURVE",
"378 630 OFFCURVE",
"409 598 CURVE",
"446 617 LINE",
"453 633 OFFCURVE",
"458 681 OFFCURVE",
"461 718 CURVE",
"429 767 OFFCURVE",
"295 767 OFFCURVE",
"197 698 CURVE SMOOTH"
);
}
);
width = 569;
}
);
leftKerningGroup = f;
leftMetricsKey = f;
rightKerningGroup = i;
rightMetricsKey = i;
unicode = FB01;
},
{
color = 5;
glyphname = fl;
lastChange = "2017-09-10 19:17:56 +0000";
layers = (
{
anchors = (
{
name = bottom;
position = "{111, 0}";
},
{
name = top;
position = "{161, 480}";
}
);
background = {
anchors = (
{
name = bottom;
position = "{81, 0}";
},
{
name = top;
position = "{131, 480}";
}
);
paths = (
{
closed = 1;
nodes = (
"235 751 OFFCURVE",
"166 680 CURVE SMOOTH",
"124 636 OFFCURVE",
"96 572 OFFCURVE",
"85 480 CURVE",
"13 476 LINE",
"9 437 LINE",
"77 427 LINE",
"70 349 OFFCURVE",
"62 231 OFFCURVE",
"53 116 CURVE SMOOTH",
"40 -48 OFFCURVE",
"29 -139 OFFCURVE",
"-37 -180 CURVE",
"-66 -171 OFFCURVE",
"-80 -164 OFFCURVE",
"-107 -150 CURVE",
"-127 -156 LINE",
"-148 -215 LINE",
"-128 -241 OFFCURVE",
"-66 -241 OFFCURVE",
"-22 -217 CURVE SMOOTH",
"73 -165 OFFCURVE",
"110 -76 OFFCURVE",
"124 84 CURVE SMOOTH",
"155 432 LINE",
"199 430 OFFCURVE",
"268 422 OFFCURVE",
"286 422 CURVE SMOOTH",
"297 422 OFFCURVE",
"302 438 OFFCURVE",
"304 483 CURVE",
"160 480 LINE",
"175 610 OFFCURVE",
"188 646 OFFCURVE",
"248 676 CURVE",
"290 677 OFFCURVE",
"347 680 OFFCURVE",
"384 652 CURVE",
"471 740 LINE",
"354 764 OFFCURVE"
);
}
);
};
components = (
{
name = l;
transform = "{1, 0, 0, 1, 257, 0}";
}
);
layerId = "71FD7A9F-05F5-4D76-8D4F-547475A05E4C";
paths = (
{
closed = 1;
nodes = (
"344 763 OFFCURVE",
"262 746 OFFCURVE",
"193 691 CURVE SMOOTH",
"144 652 OFFCURVE",
"111 572 OFFCURVE",
"100 480 CURVE",
"28 476 LINE",
"24 437 LINE",
"92 427 LINE",
"85 349 OFFCURVE",
"77 231 OFFCURVE",
"68 116 CURVE SMOOTH",
"55 -48 OFFCURVE",
"52 -110 OFFCURVE",
"4 -162 CURVE",
"-42 -159 OFFCURVE",
"-77 -154 OFFCURVE",
"-105 -150 CURVE",
"-125 -156 LINE",
"-133 -215 LINE",
"-113 -241 OFFCURVE",
"-51 -241 OFFCURVE",
"-7 -217 CURVE SMOOTH",
"88 -165 OFFCURVE",
"125 -76 OFFCURVE",
"139 84 CURVE SMOOTH",
"170 432 LINE",
"214 430 OFFCURVE",
"283 423 OFFCURVE",
"301 423 CURVE SMOOTH",
"312 423 OFFCURVE",
"317 438 OFFCURVE",
"319 483 CURVE",
"175 480 LINE",
"190 644 OFFCURVE",
"225 659 OFFCURVE",
"262 680 CURVE",
"302 685 OFFCURVE",
"357 686 OFFCURVE",
"396 670 CURVE",
"468 741 LINE"
);
}
);
width = 506;
},
{
anchors = (
{
name = bottom;
position = "{128, 0}";
},
{
name = top;
position = "{178, 480}";
}
);
background = {
paths = (
{
closed = 1;
nodes = (
"134 654 OFFCURVE",
"101 582 OFFCURVE",
"85 481 CURVE",
"27 479 LINE",
"21 425 LINE",
"75 414 LINE",
"74 400 OFFCURVE",
"61 255 OFFCURVE",
"46 102 CURVE SMOOTH",
"29 -73 OFFCURVE",
"13 -126 OFFCURVE",
"-20 -153 CURVE",
"-50 -143 OFFCURVE",
"-75 -132 OFFCURVE",
"-101 -118 CURVE",
"-129 -131 LINE",
"-154 -214 LINE",
"-126 -264 OFFCURVE",
"-5 -251 OFFCURVE",
"58 -192 CURVE SMOOTH",
"127 -128 OFFCURVE",
"157 -61 OFFCURVE",
"171 94 CURVE SMOOTH",
"183 227 OFFCURVE",
"185 251 OFFCURVE",
"200 414 CURVE",
"311 408 LINE SMOOTH",
"329 407 OFFCURVE",
"337 412 OFFCURVE",
"341 483 CURVE",
"209 480 LINE",
"221 589 OFFCURVE",
"241 633 OFFCURVE",
"278 659 CURVE",
"324 660 OFFCURVE",
"382 662 OFFCURVE",
"413 630 CURVE",
"532 741 LINE",
"471 757 OFFCURVE",
"294 767 OFFCURVE",
"196 698 CURVE SMOOTH"
);
}
);
};
components = (
{
alignment = -1;
name = l;
transform = "{1, 0, 0, 1, 294, 0}";
}
);
layerId = "977FCFA9-45AC-4A33-B2D7-4D17E6BBF8E0";
paths = (
{
closed = 1;
nodes = (
"133 651 OFFCURVE",
"94 582 OFFCURVE",
"81 481 CURVE",
"-5 479 LINE",
"-11 425 LINE",
"72 414 LINE",
"51 102 LINE SMOOTH",
"39 -73 OFFCURVE",
"36 -111 OFFCURVE",
"9 -138 CURVE",
"-37 -134 OFFCURVE",
"-64 -131 OFFCURVE",
"-98 -126 CURVE",
"-126 -139 LINE",
"-135 -217 LINE",
"-107 -267 OFFCURVE",
"-9 -251 OFFCURVE",
"54 -192 CURVE SMOOTH",
"123 -128 OFFCURVE",
"156 -61 OFFCURVE",
"171 94 CURVE SMOOTH",
"202 414 LINE",
"326 408 LINE SMOOTH",
"333 408 OFFCURVE",
"347 411 OFFCURVE",
"350 483 CURVE",
"208 480 LINE",
"220 589 OFFCURVE",
"248 643 OFFCURVE",
"285 669 CURVE",
"338 677 OFFCURVE",
"398 669 OFFCURVE",
"445 642 CURVE",
"546 740 LINE",
"473 766 OFFCURVE",
"325 791 OFFCURVE",
"197 698 CURVE SMOOTH"
);
}
);
width = 602;
}
);
leftKerningGroup = f;
leftMetricsKey = f;
rightKerningGroup = i;
rightMetricsKey = l;
unicode = FB02;
},
{
glyphname = zero.lf;
lastChange = "2017-05-20 10:52:14 +0000";
layers = (
{
guideLines = (
{
position = "{323, 623}";
}
);
layerId = "71FD7A9F-05F5-4D76-8D4F-547475A05E4C";
paths = (
{
closed = 1;
nodes = (
"133 -10 OFFCURVE",
"32 81 OFFCURVE",
"48 290 CURVE SMOOTH",
"65 516 OFFCURVE",
"191 631 OFFCURVE",
"324 631 CURVE SMOOTH",
"449 631 OFFCURVE",
"543 539 OFFCURVE",
"527 322 CURVE SMOOTH",
"513 120 OFFCURVE",
"410 -10 OFFCURVE",
"253 -10 CURVE SMOOTH"
);
},
{
closed = 1;
nodes = (
"409 87 OFFCURVE",
"468 201 OFFCURVE",
"465 347 CURVE",
"462 481 OFFCURVE",
"402 558 OFFCURVE",
"282 538 CURVE SMOOTH",
"164 518 OFFCURVE",
"116 404 OFFCURVE",
"111 266 CURVE SMOOTH",
"109 136 OFFCURVE",
"170 50 OFFCURVE",
"299 70 CURVE SMOOTH"
);
}
);
width = 550;
},
{
guideLines = (
{
position = "{323, 623}";
}
);
layerId = "977FCFA9-45AC-4A33-B2D7-4D17E6BBF8E0";
paths = (
{
closed = 1;
nodes = (
"132 -10 OFFCURVE",
"27 81 OFFCURVE",
"39 290 CURVE SMOOTH",
"52 516 OFFCURVE",
"178 631 OFFCURVE",
"311 631 CURVE SMOOTH",
"436 631 OFFCURVE",
"534 539 OFFCURVE",
"522 322 CURVE SMOOTH",
"511 120 OFFCURVE",
"409 -10 OFFCURVE",
"252 -10 CURVE SMOOTH"
);
},
{
closed = 1;
nodes = (
"380 144 OFFCURVE",
"430 226 OFFCURVE",
"425 335 CURVE SMOOTH",
"421 437 OFFCURVE",
"368 499 OFFCURVE",
"273 482 CURVE SMOOTH",
"178 465 OFFCURVE",
"137 379 OFFCURVE",
"137 275 CURVE SMOOTH",
"136 177 OFFCURVE",
"193 105 OFFCURVE",
"294 126 CURVE SMOOTH"
);
}
);
width = 550;
}
);
},
{
glyphname = one.lf;
lastChange = "2017-05-20 11:39:51 +0000";
layers = (
{
background = {
paths = (
{
closed = 1;
nodes = (
"-4 55 LINE",
"-12 0 LINE",
"274 0 LINE",
"283 56 LINE",
"202 70 LINE",
"144 68 LINE"
);
},
{
closed = 1;
nodes = (
"228 383 OFFCURVE",
"247 583 OFFCURVE",
"260 698 CURVE",
"178 708 LINE",
"151 661 OFFCURVE",
"93 626 OFFCURVE",
"45 613 CURVE",
"39 564 LINE",
"111 560 LINE",
"114 530 OFFCURVE",
"108 472 OFFCURVE",
"102 400 CURVE SMOOTH",
"95 340 OFFCURVE",
"73 112 OFFCURVE",
"71 102 CURVE",
"69 74 OFFCURVE",
"107 59 OFFCURVE",
"128 57 CURVE SMOOTH",
"170 54 OFFCURVE",
"182 40 OFFCURVE",
"217 40 CURVE",
"212 50 OFFCURVE",
"208 70 OFFCURVE",
"210 97 CURVE SMOOTH"
);
}
);
};
guideLines = (
{
position = "{359, 623}";
}
);
layerId = "71FD7A9F-05F5-4D76-8D4F-547475A05E4C";
paths = (
{
closed = 1;
nodes = (
"130 -7 OFFCURVE",
"157 -16 OFFCURVE",
"192 -16 CURVE",
"197 78 OFFCURVE",
"199 137 OFFCURVE",
"209 245 CURVE SMOOTH",
"222 379 OFFCURVE",
"242 549 OFFCURVE",
"252 626 CURVE",
"207 630 LINE",
"180 583 OFFCURVE",
"147 545 OFFCURVE",
"79 541 CURVE",
"75 502 LINE",
"153 498 LINE",
"156 468 OFFCURVE",
"148 403 OFFCURVE",
"141 331 CURVE SMOOTH",
"140 325 OFFCURVE",
"101 12 OFFCURVE",
"100 1 CURVE"
);
}
);
width = 272;
},
{
background = {
paths = (
{
closed = 1;
nodes = (
"-4 55 LINE",
"-12 0 LINE",
"274 0 LINE",
"283 56 LINE",
"202 70 LINE",
"144 68 LINE"
);
},
{
closed = 1;
nodes = (
"228 383 OFFCURVE",
"247 583 OFFCURVE",
"260 698 CURVE",
"178 708 LINE",
"151 661 OFFCURVE",
"93 626 OFFCURVE",
"45 613 CURVE",
"39 564 LINE",
"111 560 LINE",
"114 530 OFFCURVE",
"108 472 OFFCURVE",
"102 400 CURVE SMOOTH",
"95 340 OFFCURVE",
"73 112 OFFCURVE",
"71 102 CURVE",
"69 74 OFFCURVE",
"107 59 OFFCURVE",
"128 57 CURVE SMOOTH",
"170 54 OFFCURVE",
"182 40 OFFCURVE",
"217 40 CURVE",
"212 50 OFFCURVE",
"208 70 OFFCURVE",
"210 97 CURVE SMOOTH"
);
}
);
};
guideLines = (
{
position = "{359, 623}";
}
);
layerId = "977FCFA9-45AC-4A33-B2D7-4D17E6BBF8E0";
paths = (
{
closed = 1;
nodes = (
"92 -2 OFFCURVE",
"163 -16 OFFCURVE",
"198 -16 CURVE",
"199 21 OFFCURVE",
"203 81 OFFCURVE",
"205 108 CURVE SMOOTH",
"221 329 OFFCURVE",
"241 499 OFFCURVE",
"256 614 CURVE",
"174 624 LINE",
"146 577 OFFCURVE",
"87 542 OFFCURVE",
"39 529 CURVE",
"33 480 LINE",
"104 476 LINE",
"107 446 OFFCURVE",
"101 384 OFFCURVE",
"93 313 CURVE SMOOTH",
"82 211 OFFCURVE",
"65 74 OFFCURVE",
"54 17 CURVE"
);
}
);
width = 272;
}
);
},
{
glyphname = two.lf;
lastChange = "2017-05-20 10:52:14 +0000";
layers = (
{
background = {
paths = (
{
closed = 1;
nodes = (
"548 671 OFFCURVE",
"404 772 OFFCURVE",
"106 668 CURVE",
"75 503 LINE",
"136 492 LINE",
"165 563 LINE",
"213 576 OFFCURVE",
"274 585 OFFCURVE",
"320 587 CURVE",
"366 534 OFFCURVE",
"323 399 OFFCURVE",
"271 315 CURVE SMOOTH",
"217 229 OFFCURVE",
"160 160 OFFCURVE",
"54 79 CURVE SMOOTH",
"37 66 OFFCURVE",
"17 55 OFFCURVE",
"6 50 CURVE",
"18 -1 LINE",
"167 1 OFFCURVE",
"329 0 OFFCURVE",
"474 -5 CURVE",
"507 172 LINE",
"455 180 LINE",
"424 118 LINE",
"376 108 OFFCURVE",
"284 104 OFFCURVE",
"188 103 CURVE",
"254 115 OFFCURVE",
"429 297 OFFCURVE",
"484 470 CURVE SMOOTH"
);
}
);
};
guideLines = (
{
position = "{-141, 520}";
},
{
position = "{321, 623}";
}
);
layerId = "71FD7A9F-05F5-4D76-8D4F-547475A05E4C";
paths = (
{
closed = 1;
nodes = (
"460 612 OFFCURVE",
"335 668 OFFCURVE",
"98 598 CURVE",
"83 470 LINE",
"100 467 OFFCURVE",
"119 468 OFFCURVE",
"138 472 CURVE",
"146 506 OFFCURVE",
"152 527 OFFCURVE",
"158 547 CURVE",
"190 555 OFFCURVE",
"300 562 OFFCURVE",
"331 556 CURVE",
"437 425 OFFCURVE",
"221 129 OFFCURVE",
"17 45 CURVE",
"25 0 LINE",
"175 2 OFFCURVE",
"262 1 OFFCURVE",
"407 -4 CURVE",
"445 133 LINE",
"393 139 LINE",
"366 77 LINE",
"319 69 OFFCURVE",
"210 67 OFFCURVE",
"143 67 CURVE",
"197 84 OFFCURVE",
"426 280 OFFCURVE",
"446 472 CURVE SMOOTH"
);
}
);
width = 529;
},
{
background = {
paths = (
{
closed = 1;
nodes = (
"548 671 OFFCURVE",
"404 772 OFFCURVE",
"106 668 CURVE",
"75 503 LINE",
"136 492 LINE",
"165 563 LINE",
"213 576 OFFCURVE",
"274 585 OFFCURVE",
"320 587 CURVE",
"366 534 OFFCURVE",
"323 399 OFFCURVE",
"271 315 CURVE SMOOTH",
"217 229 OFFCURVE",
"160 160 OFFCURVE",
"54 79 CURVE SMOOTH",
"37 66 OFFCURVE",
"17 55 OFFCURVE",
"6 50 CURVE",
"18 -1 LINE",
"167 1 OFFCURVE",
"329 0 OFFCURVE",
"474 -5 CURVE",
"507 172 LINE",
"455 180 LINE",
"424 118 LINE",
"376 108 OFFCURVE",
"284 104 OFFCURVE",
"188 103 CURVE",
"254 115 OFFCURVE",
"429 297 OFFCURVE",
"484 470 CURVE SMOOTH"
);
}
);
};
guideLines = (
{
position = "{-141, 520}";
},
{
position = "{321, 623}";
}
);
layerId = "977FCFA9-45AC-4A33-B2D7-4D17E6BBF8E0";
paths = (
{
closed = 1;
nodes = (
"485 612 OFFCURVE",
"332 674 OFFCURVE",
"94 599 CURVE",
"73 438 LINE",
"91 435 OFFCURVE",
"129 436 OFFCURVE",
"147 440 CURVE",
"156 474 OFFCURVE",
"160 489 OFFCURVE",
"166 509 CURVE",
"199 517 OFFCURVE",
"278 522 OFFCURVE",
"308 516 CURVE",
"375 372 OFFCURVE",
"206 151 OFFCURVE",
"8 63 CURVE",
"19 0 LINE",
"168 2 OFFCURVE",
"278 1 OFFCURVE",
"423 -4 CURVE",
"473 166 LINE",
"398 172 LINE",
"371 117 LINE",
"324 109 OFFCURVE",
"264 107 OFFCURVE",
"197 107 CURVE",
"251 124 OFFCURVE",
"452 280 OFFCURVE",
"472 472 CURVE SMOOTH"
);
}
);
width = 529;
}
);
},
{
glyphname = three.lf;
lastChange = "2017-05-20 10:52:14 +0000";
layers = (
{
background = {
paths = (
{
closed = 1;
nodes = (
"504 643 OFFCURVE",
"344 784 OFFCURVE",
"92 674 CURVE",
"67 527 LINE",
"129 516 LINE",
"166 594 OFFCURVE",
"220 603 OFFCURVE",
"318 595 CURVE",
"347 498 OFFCURVE",
"236 404 OFFCURVE",
"131 393 CURVE",
"141 337 LINE",
"303 337 OFFCURVE",
"323 217 OFFCURVE",
"322 162 CURVE SMOOTH",
"321 126 OFFCURVE",
"311 103 OFFCURVE",
"289 88 CURVE",
"211 91 OFFCURVE",
"112 122 OFFCURVE",
"57 167 CURVE",
"38 139 OFFCURVE",
"10 72 OFFCURVE",
"5 45 CURVE",
"27 16 OFFCURVE",
"208 -48 OFFCURVE",
"339 19 CURVE SMOOTH",
"407 54 OFFCURVE",
"461 125 OFFCURVE",
"454 213 CURVE SMOOTH",
"444 342 OFFCURVE",
"335 384 OFFCURVE",
"304 384 CURVE",
"323 386 OFFCURVE",
"406 429 OFFCURVE",
"446 516 CURVE SMOOTH"
);
}
);
};
components = (
{
name = three;
transform = "{1, 0, 0, 1, 5, 119}";
}
);
guideLines = (
{
position = "{298, 623}";
}
);
layerId = "71FD7A9F-05F5-4D76-8D4F-547475A05E4C";
width = 485;
},
{
background = {
paths = (
{
closed = 1;
nodes = (
"504 643 OFFCURVE",
"344 784 OFFCURVE",
"92 674 CURVE",
"67 527 LINE",
"129 516 LINE",
"166 594 OFFCURVE",
"220 603 OFFCURVE",
"318 595 CURVE",
"347 498 OFFCURVE",
"236 404 OFFCURVE",
"131 393 CURVE",
"141 337 LINE",
"303 337 OFFCURVE",
"323 217 OFFCURVE",
"322 162 CURVE SMOOTH",
"321 126 OFFCURVE",
"311 103 OFFCURVE",
"289 88 CURVE",
"211 91 OFFCURVE",
"112 122 OFFCURVE",
"57 167 CURVE",
"38 139 OFFCURVE",
"10 72 OFFCURVE",
"5 45 CURVE",
"27 16 OFFCURVE",
"208 -48 OFFCURVE",
"339 19 CURVE SMOOTH",
"407 54 OFFCURVE",
"461 125 OFFCURVE",
"454 213 CURVE SMOOTH",
"444 342 OFFCURVE",
"335 384 OFFCURVE",
"304 384 CURVE",
"323 386 OFFCURVE",
"406 429 OFFCURVE",
"446 516 CURVE SMOOTH"
);
}
);
};
components = (
{
name = three.osf;
transform = "{1, 0, 0, 1, 8, 120}";
}
);
guideLines = (
{
position = "{298, 623}";
}
);
layerId = "977FCFA9-45AC-4A33-B2D7-4D17E6BBF8E0";
width = 485;
}
);
},
{
glyphname = four.lf;
lastChange = "2017-05-20 10:52:14 +0000";
layers = (
{
guideLines = (
{
position = "{323, 623}";
}
);
layerId = "71FD7A9F-05F5-4D76-8D4F-547475A05E4C";
paths = (
{
closed = 1;
nodes = (
"368 631 LINE",
"30 200 LINE",
"50 154 LINE",
"476 146 LINE",
"481 173 OFFCURVE",
"488 194 OFFCURVE",
"492 224 CURVE",
"410 211 OFFCURVE",
"310 207 OFFCURVE",
"118 214 CURVE",
"167 280 OFFCURVE",
"315 480 OFFCURVE",
"341 513 CURVE",
"330 360 OFFCURVE",
"303 162 OFFCURVE",
"279 3 CURVE",
"307 -5 OFFCURVE",
"330 -7 OFFCURVE",
"363 -8 CURVE",
"368 56 OFFCURVE",
"378 162 OFFCURVE",
"392 306 CURVE SMOOTH",
"404 427 OFFCURVE",
"419 544 OFFCURVE",
"430 618 CURVE"
);
}
);
width = 507;
},
{
guideLines = (
{
position = "{323, 623}";
}
);
layerId = "977FCFA9-45AC-4A33-B2D7-4D17E6BBF8E0";
paths = (
{
closed = 1;
nodes = (
"359 630 LINE",
"18 196 LINE",
"41 143 LINE",
"478 130 LINE",
"487 160 OFFCURVE",
"501 222 OFFCURVE",
"503 252 CURVE",
"439 247 OFFCURVE",
"362 247 OFFCURVE",
"162 249 CURVE",
"209 312 OFFCURVE",
"272 399 OFFCURVE",
"304 436 CURVE",
"288 283 OFFCURVE",
"270 158 OFFCURVE",
"245 8 CURVE",
"281 -4 OFFCURVE",
"355 -8 OFFCURVE",
"387 -8 CURVE",
"392 51 OFFCURVE",
"410 232 OFFCURVE",
"425 383 CURVE SMOOTH",
"432 458 OFFCURVE",
"441 542 OFFCURVE",
"450 616 CURVE"
);
}
);
width = 507;
}
);
},
{
glyphname = eight.lf;
lastChange = "2017-05-20 10:52:14 +0000";
layers = (
{
guideLines = (
{
position = "{368, 623}";
}
);
layerId = "71FD7A9F-05F5-4D76-8D4F-547475A05E4C";
paths = (
{
closed = 1;
nodes = (
"258 289 LINE",
"413 336 OFFCURVE",
"479 376 OFFCURVE",
"479 474 CURVE SMOOTH",
"482 577 OFFCURVE",
"395 633 OFFCURVE",
"272 628 CURVE SMOOTH",
"132 623 OFFCURVE",
"63 525 OFFCURVE",
"67 445 CURVE SMOOTH",
"70 380 OFFCURVE",
"110 340 OFFCURVE",
"189 295 CURVE SMOOTH",
"304 229 OFFCURVE",
"336 212 OFFCURVE",
"339 164 CURVE SMOOTH",
"342 106 OFFCURVE",
"308 76 OFFCURVE",
"278 62 CURVE",
"195 62 OFFCURVE",
"140 97 OFFCURVE",
"137 146 CURVE SMOOTH",
"131 211 OFFCURVE",
"189 268 OFFCURVE",
"272 298 CURVE",
"247 359 LINE",
"141 319 OFFCURVE",
"28 291 OFFCURVE",
"11 167 CURVE SMOOTH",
"4 114 OFFCURVE",
"23 69 OFFCURVE",
"63 37 CURVE SMOOTH",
"115 -5 OFFCURVE",
"216 -21 OFFCURVE",
"309 -1 CURVE",
"441 33 OFFCURVE",
"480 114 OFFCURVE",
"482 170 CURVE SMOOTH",
"485 266 OFFCURVE",
"401 295 OFFCURVE",
"258 385 CURVE SMOOTH",
"139 460 OFFCURVE",
"221 541 OFFCURVE",
"254 554 CURVE",
"389 548 OFFCURVE",
"417 395 OFFCURVE",
"225 344 CURVE"
);
}
);
width = 510;
},
{
components = (
{
name = eight.osf;
transform = "{1, 0, 0, 1, 0, -3}";
}
);
guideLines = (
{
position = "{368, 623}";
}
);
layerId = "977FCFA9-45AC-4A33-B2D7-4D17E6BBF8E0";
width = 510;
}
);
},
